<?xml version="1.0" encoding="UTF-8"?>
<!DOCTYPE svg PUBLIC "-//W3C//DTD SVG 1.1//EN" "http://www.w3.org/Graphics/SVG/1.1/DTD/svg11.dtd">
<!-- Creator: CorelDRAW X8 -->
<svg xmlns="http://www.w3.org/2000/svg" xml:space="preserve" width="0.646598in" height="0.615114in" version="1.1" style="shape-rendering:geometricPrecision; text-rendering:geometricPrecision; image-rendering:optimizeQuality; fill-rule:evenodd; clip-rule:evenodd"
viewBox="0 0 49 47"
 xmlns:xlink="http://www.w3.org/1999/xlink">
 <defs>
  <style type="text/css">
   <![CDATA[
    .fil0 {fill:#7F84E0}
    .fil1 {fill:#FFFEE8}
   ]]>
  </style>
 </defs>
 <g id="Layer_x0020_1">
  <metadata id="CorelCorpID_0Corel-Layer"/>
  <polygon class="fil0" points="25,0 28,5 33,14 42,16 49,18 44,24 39,30 39,39 40,47 33,44 25,41 17,44 9,47 10,39 11,30 5,23 0,18 5,17 16,14 22,5 "/>
  <polygon class="fil1" points="25,3 27,7 32,15 40,17 46,19 42,24 37,30 38,37 38,44 32,41 25,39 18,41 11,44 12,37 12,30 7,23 3,19 8,17 17,15 22,7 "/>
 </g>
</svg>
