<?xml version="1.0" encoding="UTF-8"?>
<!DOCTYPE svg PUBLIC "-//W3C//DTD SVG 1.1//EN" "http://www.w3.org/Graphics/SVG/1.1/DTD/svg11.dtd">
<!-- Creator: CorelDRAW X8 -->
<svg xmlns="http://www.w3.org/2000/svg" xml:space="preserve" width="780px" height="780px" version="1.1" shape-rendering="geometricPrecision" text-rendering="geometricPrecision" image-rendering="optimizeQuality" fill-rule="evenodd" clip-rule="evenodd"
viewBox="0 0 133 133"
 xmlns:xlink="http://www.w3.org/1999/xlink">
 <g id="Layer_x0020_1">
  <metadata id="CorelCorpID_0Corel-Layer"/>
  <rect fill="none" width="133" height="133"/>
  <path fill="white" d="M66 14c28,0 51,23 51,51 0,15 -7,29 -17,38l0 -50 -9 0 0 -5 -8 0 -5 -7 6 -11 -3 0 -5 8 -5 -8 -3 0 7 11 -5 7 -5 0 -6 -18 -5 0 -5 18 -10 0 0 5 -8 0 0 48c-10,-9 -15,-22 -15,-36 0,-28 22,-51 50,-51zm13 34l-6 0 3 -5 3 5zm-17 0l-10 0 5 -15 0 0 5 15zm-25 51l15 0 0 -18 -15 0 0 18zm21 9l15 0 0 -27 -15 0 0 27zm20 -9l16 0 0 -18 -16 0 0 18z"/>
 </g>
</svg>
