<?xml version="1.0" encoding="UTF-8"?>
<!DOCTYPE svg PUBLIC "-//W3C//DTD SVG 1.1//EN" "http://www.w3.org/Graphics/SVG/1.1/DTD/svg11.dtd">
<!-- Creator: CorelDRAW X8 -->
<svg xmlns="http://www.w3.org/2000/svg" xml:space="preserve" width="843px" height="432px" version="1.1" shape-rendering="geometricPrecision" text-rendering="geometricPrecision" image-rendering="optimizeQuality" fill-rule="evenodd" clip-rule="evenodd"
viewBox="0 0 4893 2506"
 xmlns:xlink="http://www.w3.org/1999/xlink">
 <defs>
   <mask id="id0">
     <linearGradient id="id1" gradientUnits="userSpaceOnUse" x1="3164.14" y1="2676.9" x2="3839.85" y2="1978.5">
      <stop offset="0" stop-opacity="1" stop-color="white"/>
      <stop offset="1" stop-opacity="0" stop-color="white"/>
     </linearGradient>
    <rect fill="url(#id1)" x="3309" y="2079" width="460" height="342"/>
   </mask>
   <mask id="id2">
     <linearGradient id="id3" gradientUnits="userSpaceOnUse" x1="4842.08" y1="2676.9" x2="4166.36" y2="1978.5">
      <stop offset="0" stop-opacity="1" stop-color="white"/>
      <stop offset="1" stop-opacity="0" stop-color="white"/>
     </linearGradient>
    <rect fill="url(#id3)" x="4237" y="2079" width="460" height="342"/>
   </mask>
    <mask id="id4">
      <linearGradient id="id5" gradientUnits="userSpaceOnUse" x1="2054.31" y1="2584.45" x2="2054.31" y2="2360.59">
       <stop offset="0" stop-opacity="1" stop-color="white"/>
       <stop offset="1" stop-opacity="0" stop-color="white"/>
      </linearGradient>
     <rect fill="url(#id5)" x="1877" y="2317" width="327" height="195"/>
    </mask>
    <mask id="id6">
      <linearGradient id="id7" gradientUnits="userSpaceOnUse" x1="406.056" y1="2584.45" x2="406.063" y2="2360.59">
       <stop offset="0" stop-opacity="1" stop-color="white"/>
       <stop offset="1" stop-opacity="0" stop-color="white"/>
      </linearGradient>
     <rect fill="url(#id7)" x="229" y="2317" width="327" height="195"/>
    </mask>
     <mask id="id8">
       <linearGradient id="id9" gradientUnits="userSpaceOnUse" x1="2054.31" y1="-64.538" x2="2054.31" y2="159.329">
        <stop offset="0" stop-opacity="1" stop-color="white"/>
        <stop offset="1" stop-opacity="0" stop-color="white"/>
       </linearGradient>
      <rect fill="url(#id9)" x="1877" y="7" width="327" height="195"/>
     </mask>
     <mask id="id10">
       <linearGradient id="id11" gradientUnits="userSpaceOnUse" x1="406.056" y1="-64.538" x2="406.063" y2="159.329">
        <stop offset="0" stop-opacity="1" stop-color="white"/>
        <stop offset="1" stop-opacity="0" stop-color="white"/>
       </linearGradient>
      <rect fill="url(#id11)" x="229" y="7" width="327" height="195"/>
     </mask>
 </defs>
 <g id="Layer_x0020_1">
  <metadata id="CorelCorpID_0Corel-Layer"/>
  <rect fill="#6582B0" y="6" width="4893" height="2501"/>
  <rect fill="#526A8F" transform="matrix(6.12323E-17 -1 1 4.58661E-12 3300.4 1143.15)" width="1143" height="339"/>
  <path fill="#2F3457" mask="url(#id0)" d="M3372 2126l2 0c16,-38 69,-58 135,-33 15,-6 32,-3 44,7 68,-35 128,-15 146,26l7 0c33,0 60,15 60,34l0 181c0,19 -27,34 -60,34l-5 0c-15,52 -75,64 -144,0l-36 0c-73,64 -135,52 -149,0l0 0c-34,0 -61,-15 -61,-34l0 -181c0,-19 27,-34 61,-34z"/>
  <rect fill="#526A8F" transform="matrix(1.51603E-14 -1 1 4.60245E-14 0.0154253 166.116)" width="166" height="4893"/>
  <polygon fill="#2F3457" points="3632,6 4893,6 4893,1310 3632,1310 "/>
  <polygon fill="#2F3457" points="2656,6 2947,6 2947,1004 3969,1004 3969,1346 3348,1346 3321,1300 2935,1300 2935,1359 2656,1359 2656,1300 2656,1073 "/>
  <polygon fill="#454E82" points="2691,6 2900,6 2900,1073 3876,1073 3876,1265 2900,1265 2900,1324 2691,1324 2691,1265 2691,1073 "/>
  <path fill="#59405A" d="M3876 6l0 1306 -448 0c-45,0 -75,-21 -75,-52l0 -1203c0,-31 30,-51 75,-51l448 0z"/>
  <rect fill="#526A8F" transform="matrix(6.12323E-17 -1 1 3.75767E-11 0.013745 2506.42)" width="2500.84" height="90.4664"/>
  <g id="_407838935136">
   <path fill="#526A8F" d="M932 1477l0 -361c0,-36 12,-72 36,-72l48 0c24,0 36,36 36,72l0 36 24 0 0 -72c0,-24 0,-36 12,-36l24 0c0,0 12,12 12,36l0 445c0,12 -12,24 -12,24l-24 0c-12,0 -12,-12 -12,-24l0 -84 -24 0 0 36c0,48 -12,72 -36,72l-48 0c-24,0 -36,-24 -36,-72l0 0zm-445 -433l324 0c49,0 85,48 85,96l0 313c0,60 -36,96 -85,96l-324 0c-48,0 -84,-36 -84,-96l0 -313c0,-48 36,-96 84,-96zm-265 337l24 0 0 -157 -24 0 0 157zm24 60l-24 0 0 84c0,12 0,24 -12,24l-24 0c0,0 -12,-12 -12,-24l0 -445c0,-24 12,-36 12,-36l24 0c12,0 12,12 12,36l0 72 24 0 0 -36c0,-36 12,-72 36,-72l49 0c24,0 36,36 36,72l0 373c0,36 -12,60 -36,60l-49 0c-24,0 -36,-24 -36,-60l0 -48zm830 -60l0 -157 -24 0 0 157 24 0z"/>
   <path fill="#7D89B3" d="M427 1080l380 0c34,0 61,38 61,84l0 264c0,47 -27,84 -61,84l-380 0c-33,0 -60,-37 -60,-84l0 -264c0,-46 27,-84 60,-84z"/>
   <path fill="#B5C2D8" d="M451 1104l326 0c33,0 60,32 60,72l0 242c0,39 -27,72 -60,72l-326 0c-33,0 -60,-33 -60,-72l0 -242c0,-40 27,-72 60,-72z"/>
   <path fill="#2F3457" d="M331 1453l0 -313c0,-36 -12,-60 -37,-60l-48 0c-24,0 -36,24 -36,60l0 313c0,36 12,60 36,60l48 0c25,0 37,-24 37,-60zm-193 36l0 -385c0,-12 12,-24 12,-24l24 0c12,0 12,12 12,24l0 385c0,12 0,24 -12,24l-24 0c0,0 -12,-12 -12,-24z"/>
   <rect fill="#2F3457" x="174" y="1176" width="65.1639" height="56.4834"/>
   <rect fill="#2F3457" x="174" y="1369" width="65.1639" height="56.4834"/>
   <path fill="#2F3457" d="M896 1453l0 -313c0,-36 12,-60 36,-60l48 0c24,0 36,24 36,60l0 313c0,36 -12,60 -36,60l-48 0c-24,0 -36,-24 -36,-60zm192 36l0 -385c0,-12 -12,-24 -12,-24l-24 0c-12,0 -12,12 -12,24l0 385c0,12 0,24 12,24l24 0c0,0 12,-12 12,-24z"/>
   <rect fill="#2F3457" x="992" y="1176" width="65.1639" height="56.4834"/>
   <rect fill="#2F3457" x="992" y="1357" width="65.1639" height="56.4834"/>
  </g>
  <g id="_407838938048">
   <path fill="#526A8F" d="M932 653l0 -361c0,-36 12,-72 36,-72l48 0c24,0 36,36 36,72l0 36 24 0 0 -72c0,-24 0,-36 12,-36l24 0c0,0 12,12 12,36l0 445c0,12 -12,24 -12,24l-24 0c-12,0 -12,-12 -12,-24l0 -84 -24 0 0 36c0,48 -12,72 -36,72l-48 0c-24,0 -36,-24 -36,-72l0 0zm-445 -433l324 0c49,0 85,48 85,96l0 313c0,60 -36,96 -85,96l-324 0c-48,0 -84,-36 -84,-96l0 -313c0,-48 36,-96 84,-96zm-265 337l24 0 0 -157 -24 0 0 157zm24 60l-24 0 0 84c0,12 0,24 -12,24l-24 0c0,0 -12,-12 -12,-24l0 -445c0,-24 12,-36 12,-36l24 0c12,0 12,12 12,36l0 72 24 0 0 -36c0,-36 12,-72 36,-72l49 0c24,0 36,36 36,72l0 373c0,36 -12,60 -36,60l-49 0c-24,0 -36,-24 -36,-60l0 -48zm830 -60l0 -157 -24 0 0 157 24 0z"/>
   <path fill="#7D89B3" d="M427 256l380 0c34,0 61,38 61,84l0 264c0,47 -27,84 -61,84l-380 0c-33,0 -60,-37 -60,-84l0 -264c0,-46 27,-84 60,-84z"/>
   <path fill="#B5C2D8" d="M451 280l326 0c33,0 60,32 60,72l0 241c0,40 -27,73 -60,73l-326 0c-33,0 -60,-33 -60,-73l0 -241c0,-40 27,-72 60,-72z"/>
   <path fill="#2F3457" d="M331 629l0 -313c0,-36 -12,-60 -37,-60l-48 0c-24,0 -36,24 -36,60l0 313c0,36 12,60 36,60l48 0c25,0 37,-24 37,-60zm-193 36l0 -385c0,-12 12,-24 12,-24l24 0c12,0 12,12 12,24l0 385c0,12 0,24 -12,24l-24 0c0,0 -12,-12 -12,-24z"/>
   <rect fill="#2F3457" x="174" y="352" width="65.1639" height="56.4834"/>
   <rect fill="#2F3457" x="174" y="545" width="65.1639" height="56.4834"/>
   <path fill="#2F3457" d="M896 629l0 -313c0,-36 12,-60 36,-60l48 0c24,0 36,24 36,60l0 313c0,36 -12,60 -36,60l-48 0c-24,0 -36,-24 -36,-60zm192 36l0 -385c0,-12 -12,-24 -12,-24l-24 0c-12,0 -12,12 -12,24l0 385c0,12 0,24 12,24l24 0c0,0 12,-12 12,-24z"/>
   <rect fill="#2F3457" x="992" y="352" width="65.1639" height="56.4834"/>
   <rect fill="#2F3457" x="992" y="533" width="65.1639" height="56.4834"/>
  </g>
  <g id="_407976618496">
   <path fill="#745975" d="M3314 2172l334 0c33,0 60,16 60,35l0 180c0,19 -27,34 -60,34l-334 0c-34,0 -61,-15 -61,-34l0 -180c0,-19 27,-35 61,-35z"/>
   <path fill="#3EAA92" d="M3482 2154c122,-75 224,28 125,125 99,155 -3,258 -125,125 -131,133 -233,30 -125,-125 -108,-97 -6,-200 125,-125z"/>
   <path fill="#79CFBA" d="M3400 2200c26,-88 119,-84 114,5 115,31 110,124 -5,114 -5,120 -98,116 -114,-5 -93,1 -89,-92 5,-114z"/>
   <path fill="#B9E7D5" d="M3424 2310c-35,-52 8,-98 52,-57 66,-45 112,-3 57,53 59,54 17,101 -53,56 -40,49 -86,6 -56,-52z"/>
  </g>
  <path fill="#2F3457" mask="url(#id2)" d="M4635 2126l-3 0c-16,-38 -69,-58 -134,-33 -16,-6 -32,-3 -44,7 -69,-35 -129,-15 -147,26l-7 0c-33,0 -60,15 -60,34l0 181c0,19 27,34 60,34l5 0c15,52 75,64 144,0l36 0c74,64 135,52 149,0l1 0c33,0 60,-15 60,-34l0 -181c0,-19 -27,-34 -60,-34z"/>
  <g id="_407976624960">
   <path fill="#745975" d="M4693 2172l-335 0c-33,0 -60,16 -60,35l0 180c0,19 27,34 60,34l335 0c33,0 60,-15 60,-34l0 -180c0,-19 -27,-35 -60,-35z"/>
   <path fill="#3EAA92" d="M4524 2154c-122,-75 -224,28 -125,125 -99,155 3,258 125,125 131,133 233,30 125,-125 108,-97 6,-200 -125,-125z"/>
   <path fill="#79CFBA" d="M4606 2200c-26,-88 -119,-84 -114,5 -114,31 -110,124 5,114 5,120 98,116 114,-5 94,1 89,-92 -5,-114z"/>
   <path fill="#B9E7D5" d="M4582 2310c35,-52 -8,-98 -52,-57 -66,-45 -112,-3 -56,53 -60,54 -17,101 52,56 41,49 87,6 56,-52z"/>
  </g>
  <g id="_407976631840">
   <g>
    <path fill="#526A8F" d="M2081 1477l0 -361c0,-36 12,-72 36,-72l48 0c24,0 36,36 36,72l0 36 24 0 0 -72c0,-24 0,-36 12,-36l24 0c0,0 12,12 12,36l0 445c0,12 -12,24 -12,24l-24 0c-12,0 -12,-12 -12,-24l0 -84 -24 0 0 36c0,48 -12,72 -36,72l-48 0c-24,0 -36,-24 -36,-72l0 0zm-445 -433l325 0c48,0 84,48 84,96l0 313c0,60 -36,96 -84,96l-325 0c-48,0 -84,-36 -84,-96l0 -313c0,-48 36,-96 84,-96zm-265 337l25 0 0 -157 -25 0 0 157zm25 60l-25 0 0 84c0,12 0,24 -12,24l-24 0c0,0 -12,-12 -12,-24l0 -445c0,-24 12,-36 12,-36l24 0c12,0 12,12 12,36l0 72 25 0 0 -36c0,-36 12,-72 36,-72l48 0c24,0 36,36 36,72l0 373c0,36 -12,60 -36,60l-48 0c-24,0 -36,-24 -36,-60l0 -48zm829 -60l0 -157 -24 0 0 157 24 0z"/>
    <path fill="#7D89B3" d="M1576 1080l381 0c33,0 60,38 60,84l0 264c0,47 -27,84 -60,84l-381 0c-33,0 -60,-37 -60,-84l0 -264c0,-46 27,-84 60,-84z"/>
    <path fill="#B5C2D8" d="M1600 1104l326 0c33,0 60,32 60,72l0 242c0,39 -27,72 -60,72l-326 0c-33,0 -60,-33 -60,-72l0 -242c0,-40 27,-72 60,-72z"/>
    <path fill="#2F3457" d="M1480 1453l0 -313c0,-36 -12,-60 -36,-60l-48 0c-25,0 -37,24 -37,60l0 313c0,36 12,60 37,60l48 0c24,0 36,-24 36,-60zm-193 36l0 -385c0,-12 12,-24 12,-24l24 0c12,0 12,12 12,24l0 385c0,12 0,24 -12,24l-24 0c0,0 -12,-12 -12,-24z"/>
    <rect fill="#2F3457" x="1323" y="1176" width="65.1639" height="56.4834"/>
    <rect fill="#2F3457" x="1323" y="1369" width="65.1639" height="56.4834"/>
    <path fill="#2F3457" d="M2045 1453l0 -313c0,-36 12,-60 36,-60l48 0c24,0 36,24 36,60l0 313c0,36 -12,60 -36,60l-48 0c-24,0 -36,-24 -36,-60zm192 36l0 -385c0,-12 -12,-24 -12,-24l-24 0c-12,0 -12,12 -12,24l0 385c0,12 0,24 12,24l24 0c0,0 12,-12 12,-24z"/>
    <rect fill="#2F3457" x="2141" y="1176" width="65.1639" height="56.4834"/>
    <rect fill="#2F3457" x="2141" y="1357" width="65.1639" height="56.4834"/>
   </g>
   <g>
    <path fill="#526A8F" d="M2081 653l0 -361c0,-36 12,-72 36,-72l48 0c24,0 36,36 36,72l0 36 24 0 0 -72c0,-24 0,-36 12,-36l24 0c0,0 12,12 12,36l0 445c0,12 -12,24 -12,24l-24 0c-12,0 -12,-12 -12,-24l0 -84 -24 0 0 36c0,48 -12,72 -36,72l-48 0c-24,0 -36,-24 -36,-72l0 0zm-445 -433l325 0c48,0 84,48 84,96l0 313c0,60 -36,96 -84,96l-325 0c-48,0 -84,-36 -84,-96l0 -313c0,-48 36,-96 84,-96zm-265 337l25 0 0 -157 -25 0 0 157zm25 60l-25 0 0 84c0,12 0,24 -12,24l-24 0c0,0 -12,-12 -12,-24l0 -445c0,-24 12,-36 12,-36l24 0c12,0 12,12 12,36l0 72 25 0 0 -36c0,-36 12,-72 36,-72l48 0c24,0 36,36 36,72l0 373c0,36 -12,60 -36,60l-48 0c-24,0 -36,-24 -36,-60l0 -48zm829 -60l0 -157 -24 0 0 157 24 0z"/>
    <path fill="#7D89B3" d="M1576 256l381 0c33,0 60,38 60,84l0 264c0,47 -27,84 -60,84l-381 0c-33,0 -60,-37 -60,-84l0 -264c0,-46 27,-84 60,-84z"/>
    <path fill="#B5C2D8" d="M1600 280l326 0c33,0 60,32 60,72l0 241c0,40 -27,73 -60,73l-326 0c-33,0 -60,-33 -60,-73l0 -241c0,-40 27,-72 60,-72z"/>
    <path fill="#2F3457" d="M1480 629l0 -313c0,-36 -12,-60 -36,-60l-48 0c-25,0 -37,24 -37,60l0 313c0,36 12,60 37,60l48 0c24,0 36,-24 36,-60zm-193 36l0 -385c0,-12 12,-24 12,-24l24 0c12,0 12,12 12,24l0 385c0,12 0,24 -12,24l-24 0c0,0 -12,-12 -12,-24z"/>
    <rect fill="#2F3457" x="1323" y="352" width="65.1639" height="56.4834"/>
    <rect fill="#2F3457" x="1323" y="545" width="65.1639" height="56.4834"/>
    <path fill="#2F3457" d="M2045 629l0 -313c0,-36 12,-60 36,-60l48 0c24,0 36,24 36,60l0 313c0,36 -12,60 -36,60l-48 0c-24,0 -36,-24 -36,-60zm192 36l0 -385c0,-12 -12,-24 -12,-24l-24 0c-12,0 -12,12 -12,24l0 385c0,12 0,24 12,24l24 0c0,0 12,-12 12,-24z"/>
    <rect fill="#2F3457" x="2141" y="352" width="65.1639" height="56.4834"/>
    <rect fill="#2F3457" x="2141" y="533" width="65.1639" height="56.4834"/>
   </g>
  </g>
  <g id="_407976646144">
   <path fill="#526A8F" d="M2081 2220l0 -361c0,-36 12,-72 36,-72l48 0c24,0 36,36 36,72l0 36 24 0 0 -72c0,-24 0,-36 12,-36l24 0c0,0 12,12 12,36l0 445c0,12 -12,24 -12,24l-24 0c-12,0 -12,-12 -12,-24l0 -84 -24 0 0 36c0,48 -12,72 -36,72l-48 0c-24,0 -36,-24 -36,-72l0 0zm-445 -433l325 0c48,0 84,48 84,96l0 313c0,60 -36,96 -84,96l-325 0c-48,0 -84,-36 -84,-96l0 -313c0,-48 36,-96 84,-96zm-265 337l25 0 0 -157 -25 0 0 157zm25 60l-25 0 0 84c0,12 0,24 -12,24l-24 0c0,0 -12,-12 -12,-24l0 -445c0,-24 12,-36 12,-36l24 0c12,0 12,12 12,36l0 72 25 0 0 -36c0,-36 12,-72 36,-72l48 0c24,0 36,36 36,72l0 373c0,36 -12,60 -36,60l-48 0c-24,0 -36,-24 -36,-60l0 -48zm829 -60l0 -157 -24 0 0 157 24 0z"/>
   <path fill="#7D89B3" d="M1576 1823l381 0c33,0 60,38 60,84l0 264c0,47 -27,84 -60,84l-381 0c-33,0 -60,-37 -60,-84l0 -264c0,-46 27,-84 60,-84z"/>
   <path fill="#B5C2D8" d="M1600 1847l326 0c33,0 60,32 60,72l0 241c0,40 -27,73 -60,73l-326 0c-33,0 -60,-33 -60,-73l0 -241c0,-40 27,-72 60,-72z"/>
   <path fill="#2F3457" d="M1480 2196l0 -313c0,-36 -12,-60 -36,-60l-48 0c-25,0 -37,24 -37,60l0 313c0,36 12,60 37,60l48 0c24,0 36,-24 36,-60zm-193 36l0 -385c0,-12 12,-24 12,-24l24 0c12,0 12,12 12,24l0 385c0,12 0,24 -12,24l-24 0c0,0 -12,-12 -12,-24z"/>
   <rect fill="#2F3457" x="1323" y="1919" width="65.1639" height="56.4834"/>
   <rect fill="#2F3457" x="1323" y="2112" width="65.1639" height="56.4834"/>
   <path fill="#2F3457" d="M2045 2196l0 -313c0,-36 12,-60 36,-60l48 0c24,0 36,24 36,60l0 313c0,36 -12,60 -36,60l-48 0c-24,0 -36,-24 -36,-60zm192 36l0 -385c0,-12 -12,-24 -12,-24l-24 0c-12,0 -12,12 -12,24l0 385c0,12 0,24 12,24l24 0c0,0 12,-12 12,-24z"/>
   <rect fill="#2F3457" x="2141" y="1919" width="65.1639" height="56.4834"/>
   <rect fill="#2F3457" x="2141" y="2100" width="65.1639" height="56.4834"/>
  </g>
  <g id="_407836353680">
   <path fill="#FAF8F9" d="M2124 2506c0,-46 -37,-84 -83,-84 -47,0 -84,38 -84,84l167 0z"/>
   <path fill="#FAF8F9" mask="url(#id4)" d="M2197 2506c1,-5 1,-11 1,-17 0,-92 -70,-166 -157,-166 -88,0 -158,74 -158,166 0,6 0,12 1,17l313 0z"/>
  </g>
  <g id="_407836352368">
   <path fill="#FAF8F9" d="M476 2506c0,-46 -37,-84 -84,-84 -46,0 -84,38 -84,84l168 0z"/>
   <path fill="#FAF8F9" mask="url(#id6)" d="M549 2506c0,-5 1,-11 1,-17 0,-92 -71,-166 -158,-166 -87,0 -157,74 -157,166 0,6 0,12 1,17l313 0z"/>
  </g>
  <g id="_407836339472">
   <polygon fill="#A3ACC9" stroke="#4B4B7F" stroke-width="5.22436" points="3245,1497 4741,1497 4741,2008 3245,2008 "/>
   <polygon fill="#7D89B3" stroke="#4B4B7F" stroke-width="5.22436" points="3245,1497 3559,1497 4426,1497 4678,1497 4741,1497 4741,2008 4426,2008 4426,1642 3559,1642 3559,2008 3245,2008 3245,1642 3245,1642 3245,1497 "/>
   <rect fill="#59405A" stroke="#4B4B7F" stroke-width="5.22436" x="3559" y="1844" width="867" height="164"/>
   <rect fill="#9F86B6" stroke="#4B4B7F" stroke-width="5.22436" x="3662" y="1844" width="662" height="164"/>
   <rect fill="#D5C0DA" stroke="#4B4B7F" stroke-width="5.22436" x="3771" y="1844" width="444" height="164"/>
  </g>
  <path fill="#7F5F9D" d="M3461 6l0 1306 -92 0c-10,0 -16,-21 -16,-52l0 -1203c0,-31 6,-51 16,-51l92 0z"/>
  <path fill="#7F5F9D" d="M3694 6l0 1306 -93 0c-10,0 -16,-21 -16,-52l0 -1203c0,-31 6,-51 16,-51l93 0z"/>
  <path fill="#7F5F9D" d="M3926 6l0 1306 -93 0c-9,0 -16,-21 -16,-52l0 -1203c0,-31 7,-51 16,-51l93 0z"/>
 </g>
 <g id="Layer_x0020_1_0">
  <metadata id="CorelCorpID_1Corel-Layer"/>
  <g id="_407836352208">
   <path fill="#526A8F" d="M932 2220l0 -361c0,-36 12,-72 36,-72l48 0c24,0 36,36 36,72l0 36 24 0 0 -72c0,-24 0,-36 12,-36l24 0c0,0 12,12 12,36l0 445c0,12 -12,24 -12,24l-24 0c-12,0 -12,-12 -12,-24l0 -84 -24 0 0 36c0,48 -12,72 -36,72l-48 0c-24,0 -36,-24 -36,-72l0 0zm-445 -433l324 0c49,0 85,48 85,96l0 313c0,60 -36,96 -85,96l-324 0c-48,0 -84,-36 -84,-96l0 -313c0,-48 36,-96 84,-96zm-265 337l24 0 0 -157 -24 0 0 157zm24 60l-24 0 0 84c0,12 0,24 -12,24l-24 0c0,0 -12,-12 -12,-24l0 -445c0,-24 12,-36 12,-36l24 0c12,0 12,12 12,36l0 72 24 0 0 -36c0,-36 12,-72 36,-72l49 0c24,0 36,36 36,72l0 373c0,36 -12,60 -36,60l-49 0c-24,0 -36,-24 -36,-60l0 -48zm830 -60l0 -157 -24 0 0 157 24 0z"/>
   <path fill="#7D89B3" d="M427 1823l380 0c34,0 61,38 61,84l0 264c0,47 -27,84 -61,84l-380 0c-33,0 -60,-37 -60,-84l0 -264c0,-46 27,-84 60,-84z"/>
   <path fill="#B5C2D8" d="M451 1847l326 0c33,0 60,32 60,72l0 241c0,40 -27,73 -60,73l-326 0c-33,0 -60,-33 -60,-73l0 -241c0,-40 27,-72 60,-72z"/>
   <path fill="#2F3457" d="M331 2196l0 -313c0,-36 -12,-60 -37,-60l-48 0c-24,0 -36,24 -36,60l0 313c0,36 12,60 36,60l48 0c25,0 37,-24 37,-60zm-193 36l0 -385c0,-12 12,-24 12,-24l24 0c12,0 12,12 12,24l0 385c0,12 0,24 -12,24l-24 0c0,0 -12,-12 -12,-24z"/>
   <rect fill="#2F3457" x="174" y="1919" width="65.1639" height="56.4834"/>
   <rect fill="#2F3457" x="174" y="2112" width="65.1639" height="56.4834"/>
   <path fill="#2F3457" d="M896 2196l0 -313c0,-36 12,-60 36,-60l48 0c24,0 36,24 36,60l0 313c0,36 -12,60 -36,60l-48 0c-24,0 -36,-24 -36,-60zm192 36l0 -385c0,-12 -12,-24 -12,-24l-24 0c-12,0 -12,12 -12,24l0 385c0,12 0,24 12,24l24 0c0,0 12,-12 12,-24z"/>
   <rect fill="#2F3457" x="992" y="1919" width="65.1639" height="56.4834"/>
   <rect fill="#2F3457" x="992" y="2100" width="65.1639" height="56.4834"/>
  </g>
  <g id="_406409001664">
   <g>
    <path fill="#FAF8F9" d="M2124 13c0,47 -37,84 -83,84 -47,0 -84,-37 -84,-84l167 0z"/>
    <path fill="#FAF8F9" mask="url(#id8)" d="M2197 13c1,6 1,12 1,18 0,91 -70,166 -157,166 -88,0 -158,-75 -158,-166 0,-6 0,-12 1,-18l313 0z"/>
   </g>
   <g>
    <path fill="#FAF8F9" d="M476 13c0,47 -37,84 -84,84 -46,0 -84,-37 -84,-84l168 0z"/>
    <path fill="#FAF8F9" mask="url(#id10)" d="M549 13c0,6 1,12 1,18 0,91 -71,166 -158,166 -87,0 -157,-75 -157,-166 0,-6 0,-12 1,-18l313 0z"/>
   </g>
  </g>
  <g id="_406409004352">
   <rect fill="#454E82" x="495" y="371" width="273" height="203"/>
   <path fill="white" fill-rule="nonzero" d="M652 529l-14 0 0 -88c-3,3 -8,6 -13,10 -5,3 -10,5 -14,7l0 -14c7,-3 14,-8 20,-13 5,-5 10,-10 12,-15l9 0 0 113z"/>
  </g>
  <rect fill="#454E82" x="495" y="1195" width="273" height="203"/>
  <path fill="white" fill-rule="nonzero" d="M600 1323l14 -2c2,8 4,14 8,17 4,3 8,5 14,5 6,0 12,-2 16,-7 5,-4 7,-10 7,-16 0,-6 -2,-12 -6,-16 -4,-4 -10,-6 -16,-6 -3,0 -6,1 -10,2l2 -12c1,0 2,0 2,0 6,0 11,-2 16,-5 5,-3 7,-8 7,-14 0,-5 -2,-9 -5,-12 -4,-4 -8,-5 -13,-5 -6,0 -10,1 -14,5 -3,3 -6,8 -7,15l-13 -3c1,-9 5,-16 11,-21 6,-5 13,-8 22,-8 6,0 12,2 17,4 5,3 9,6 12,11 3,5 4,9 4,14 0,5 -1,10 -4,14 -2,3 -6,7 -11,9 6,1 11,5 15,9 4,5 5,11 5,19 0,9 -3,18 -10,24 -7,7 -16,11 -27,11 -10,0 -18,-3 -25,-9 -6,-6 -10,-14 -11,-23z"/>
  <rect fill="#454E82" x="1644" y="371" width="273" height="203"/>
  <path fill="white" fill-rule="nonzero" d="M1821 515l0 14 -74 0c0,-4 1,-7 2,-10 2,-5 5,-10 9,-15 4,-5 10,-10 18,-17 12,-10 20,-18 25,-23 4,-6 6,-12 6,-17 0,-5 -2,-10 -6,-14 -4,-3 -9,-5 -15,-5 -7,0 -12,2 -16,6 -4,4 -6,9 -6,16l-14 -1c1,-11 5,-19 11,-24 6,-6 15,-9 25,-9 11,0 20,3 26,9 6,6 9,14 9,22 0,5 -1,9 -3,14 -1,4 -4,8 -9,13 -4,5 -11,12 -21,20 -8,7 -13,12 -16,14 -2,2 -4,5 -6,7l55 0z"/>
  <rect fill="#454E82" x="1644" y="1195" width="273" height="203"/>
  <path fill="white" fill-rule="nonzero" d="M1793 1353l0 -27 -48 0 0 -13 51 -72 11 0 0 72 15 0 0 13 -15 0 0 27 -14 0zm0 -40l0 -50 -35 50 35 0z"/>
  <rect fill="#454E82" x="495" y="1938" width="273" height="203"/>
  <path fill="white" fill-rule="nonzero" d="M600 2066l15 -1c1,7 3,12 7,16 4,3 9,5 14,5 7,0 12,-2 17,-7 4,-5 7,-12 7,-20 0,-8 -2,-14 -7,-19 -4,-4 -10,-6 -17,-6 -5,0 -8,1 -12,3 -4,2 -6,4 -8,7l-13 -1 10 -58 56 0 0 13 -45 0 -6 30c7,-4 14,-7 22,-7 9,0 18,4 24,11 7,6 10,15 10,26 0,10 -3,18 -9,26 -7,9 -17,13 -29,13 -10,0 -18,-2 -25,-8 -6,-6 -10,-13 -11,-23z"/>
  <rect fill="#454E82" x="1644" y="1938" width="273" height="203"/>
  <path fill="white" fill-rule="nonzero" d="M1821 2011l-14 1c-1,-5 -3,-9 -5,-12 -4,-4 -8,-6 -14,-6 -4,0 -8,2 -12,4 -4,3 -7,8 -10,14 -2,6 -4,15 -4,26 4,-5 8,-9 12,-11 5,-3 10,-4 16,-4 9,0 16,3 23,10 6,7 10,15 10,26 0,7 -2,14 -5,20 -3,6 -7,10 -12,14 -6,3 -12,4 -18,4 -12,0 -21,-4 -28,-12 -8,-9 -11,-22 -11,-42 0,-21 4,-37 12,-47 7,-8 16,-13 28,-13 9,0 16,3 22,8 5,5 9,11 10,20zm-57 48c0,5 2,10 4,14 2,4 4,8 8,10 3,2 7,3 11,3 6,0 11,-2 15,-7 4,-5 7,-11 7,-19 0,-8 -3,-14 -7,-18 -4,-5 -9,-7 -15,-7 -6,0 -12,2 -16,7 -4,4 -7,10 -7,17z"/>
 </g>
</svg>
