<?xml version="1.0" encoding="UTF-8"?>
<!DOCTYPE svg PUBLIC "-//W3C//DTD SVG 1.1//EN" "http://www.w3.org/Graphics/SVG/1.1/DTD/svg11.dtd">
<!-- Creator: CorelDRAW X8 -->
<svg xmlns="http://www.w3.org/2000/svg" xml:space="preserve" width="843px" height="431px" version="1.1" shape-rendering="geometricPrecision" text-rendering="geometricPrecision" image-rendering="optimizeQuality" fill-rule="evenodd" clip-rule="evenodd"
viewBox="0 0 4444 2271"
 xmlns:xlink="http://www.w3.org/1999/xlink">
 <defs>
    <linearGradient id="id0" gradientUnits="userSpaceOnUse" x1="3508.98" y1="1858.39" x2="3508.98" y2="-532.85">
     <stop offset="0" stop-opacity="1" stop-color="white"/>
     <stop offset="0.521569" stop-opacity="0" stop-color="white"/>
     <stop offset="1" stop-opacity="0" stop-color="white"/>
    </linearGradient>
    <clipPath id="id1">
     <path d="M3029 410l1331 0 0 -342 -1331 0 0 342z"/>
    </clipPath>
      <mask id="id2">
        <linearGradient id="id3" gradientUnits="userSpaceOnUse" x1="2.33419e+09" y1="4.49107e+08" x2="2.33419e+09" y2="5.41098e+07">
         <stop offset="0" stop-opacity="1" stop-color="white"/>
         <stop offset="0.521569" stop-opacity="0" stop-color="white"/>
         <stop offset="1" stop-opacity="0" stop-color="white"/>
        </linearGradient>
       <rect fill="url(#id3)" x="3026" y="73" width="1326" height="334"/>
      </mask>
   <mask id="id4">
     <linearGradient id="id5" gradientUnits="userSpaceOnUse" x1="654.926" y1="820.676" x2="1572.06" y2="1738.51">
      <stop offset="0" stop-opacity="1" stop-color="white"/>
      <stop offset="1" stop-opacity="0" stop-color="white"/>
     </linearGradient>
    <rect fill="url(#id5)" x="860" y="1158" width="610" height="447"/>
   </mask>
 </defs>
 <g id="Layer_x0020_1">
  <metadata id="CorelCorpID_0Corel-Layer"/>
  <rect fill="#6582B0" width="4444" height="2271"/>
  <path fill="#745975" d="M195 533l1891 0 0 1588 -1891 0 0 -1588zm125 123l1615 0 0 1356 -1615 0 0 -1356z"/>
  <path fill="#745975" d="M634 902l1013 0 0 850 -1013 0 0 -850zm67 66l865 0 0 726 -865 0 0 -726z"/>
  <rect fill="#526A8F" transform="matrix(-8.27688E-15 -1 -1 8.355E-14 4444 150.852)" width="151" height="2452"/>
  <rect fill="#526A8F" x="4345" width="98.7679" height="2268.47"/>
  <path fill="#1A1A1A" d="M1867 16c1,6 1,11 1,17l0 478c0,57 -39,104 -88,104l-1305 0c-48,0 -88,-47 -88,-104l0 -478c0,-6 0,-11 1,-17l87 0 0 353 1305 0 0 -353 87 0z"/>
  <path fill="#2F3457" d="M547 637l152 0c16,0 29,13 29,28l0 29c0,16 -13,29 -29,29l-152 0c-16,0 -29,-13 -29,-29l0 -29c0,-15 13,-28 29,-28zm-17 133l186 0c7,0 12,-5 12,-11l0 -12c0,-6 -5,-12 -12,-12l-186 0c-7,0 -12,6 -12,12l0 12c0,6 5,11 12,11z"/>
  <path fill="#2F3457" d="M877 637l153 0c15,0 28,13 28,28l0 29c0,16 -13,29 -28,29l-153 0c-16,0 -28,-13 -28,-29l0 -29c0,-15 12,-28 28,-28zm-17 133l187 0c6,0 11,-5 11,-11l0 -12c0,-6 -5,-12 -11,-12l-187 0c-6,0 -11,6 -11,12l0 12c0,6 5,11 11,11z"/>
  <path fill="#2F3457" d="M1246 637l152 0c16,0 29,13 29,28l0 29c0,16 -13,29 -29,29l-152 0c-16,0 -29,-13 -29,-29l0 -29c0,-15 13,-28 29,-28zm-17 133l186 0c6,0 12,-5 12,-11l0 -12c0,-6 -6,-12 -12,-12l-186 0c-7,0 -12,6 -12,12l0 12c0,6 5,11 12,11z"/>
  <path fill="#2F3457" d="M1563 637l153 0c16,0 28,13 28,28l0 29c0,16 -12,29 -28,29l-153 0c-15,0 -28,-13 -28,-29l0 -29c0,-15 13,-28 28,-28zm-17 133l187 0c6,0 11,-5 11,-11l0 -12c0,-6 -5,-12 -11,-12l-187 0c-6,0 -11,6 -11,12l0 12c0,6 5,11 11,11z"/>
  <path fill="#454E82" d="M1839 16c0,5 1,10 1,16l0 449c0,53 -38,97 -85,97l-1255 0c-46,0 -85,-44 -85,-97l0 -449c0,-6 1,-11 2,-16l83 0 0 332 1255 0 0 -332 84 0z"/>
  <path fill="#282F58" d="M216 16l1824 0 0 157c0,35 -29,64 -64,64l-1696 0c-35,0 -64,-29 -64,-64l0 -157z"/>
  <path fill="#1D203D" d="M216 16l1824 0 0 64c0,14 -12,25 -26,25l-1772 0c-14,0 -26,-11 -26,-25l0 -64z"/>
 </g>
 <g id="Layer_x0020_1_0">
  <metadata id="CorelCorpID_1Corel-Layer"/>
  <g id="_406407110416">
   <polygon fill="url(#id0)" points="3029,410 4360,410 4360,68 3029,68 "/>
   <g clip-path="url(#id1)">
    <g>
     <path id="1" fill="#262E57" mask="url(#id2)" d="M3029 242l0 0c0,44 43,77 87,77l33 0c11,33 21,43 43,54 33,44 77,44 99,-11 76,22 120,0 120,-43l120 0c11,33 33,33 65,22 44,65 99,76 120,43 44,22 66,-11 66,-65l164 0c11,33 32,33 76,22 44,65 98,76 109,43 44,22 77,-11 77,-65l54 0c44,0 88,-33 88,-77l0 0c0,-11 0,-11 0,-11 0,-10 0,-21 0,-21l0 0c0,-55 -33,-88 -88,-88l-87 0c-11,-11 -22,-11 -44,-11 0,-43 -43,-43 -87,-21 -22,0 -44,10 -55,32l-229 0c-11,-11 -33,-11 -44,-11 -10,-43 -43,-43 -87,-21 -22,0 -44,10 -55,32l-174 0c-11,-11 -33,-22 -55,-11 -11,-43 -76,-43 -131,0 -22,-11 -33,-11 -54,11l-33 0c-55,0 -88,33 -88,88l0 0c0,0 0,0 0,0 -10,11 -10,21 -10,32l0 0z"/>
    </g>
   </g>
   <polygon fill="none" points="3029,410 4360,410 4360,68 3029,68 "/>
   <path fill="#53709F" d="M3030 185l0 0c0,47 66,86 147,86l1022 0c82,0 147,-39 147,-86l0 0c0,-48 -65,-86 -147,-86l-1022 0c-81,0 -147,38 -147,86z"/>
   <path fill="#745975" d="M3034 152l0 0c0,47 66,86 147,86l1023 0c81,0 147,-39 147,-86l0 0c0,-47 -66,-86 -147,-86l-1023 0c-81,0 -147,39 -147,86z"/>
   <path fill="#3EAA92" d="M3138 199c-22,76 54,163 98,98 153,66 240,-22 98,-98 142,-120 55,-197 -98,-99 -44,-98 -120,-21 -98,99z"/>
   <path fill="#64C7B2" d="M3192 79c-76,21 -109,131 -32,131 21,163 131,196 131,43 174,55 207,-54 32,-142 66,-87 -43,-120 -131,-32z"/>
   <path fill="#92D8C8" d="M3225 122c-44,11 -65,77 -22,88 22,98 88,109 88,21 98,33 120,-32 21,-87 33,-54 -32,-65 -87,-22z"/>
   <path fill="#3EAA92" d="M3564 100c-66,44 -66,153 10,142 66,153 186,142 132,-11 185,11 174,-98 0,-131 32,-109 -77,-98 -142,0z"/>
   <path fill="#64C7B2" d="M3684 57c-66,-44 -164,11 -110,65 -98,142 -32,241 66,120 87,164 186,99 120,-76 109,-22 44,-109 -76,-109z"/>
   <path fill="#92D8C8" d="M3684 111c-44,-32 -99,11 -77,44 -54,76 -22,142 44,66 55,98 109,65 76,-44 66,-11 22,-66 -43,-66z"/>
   <path fill="#3EAA92" d="M3989 100c-76,44 -76,153 0,142 77,153 186,142 142,-11 175,11 175,-98 -11,-131 44,-109 -76,-98 -131,0z"/>
   <path fill="#64C7B2" d="M4110 57c-77,-44 -175,11 -121,65 -87,142 -32,241 77,120 87,164 175,99 109,-76 109,-22 55,-109 -65,-109z"/>
   <path fill="#92D8C8" d="M4099 111c-44,-32 -99,11 -66,44 -55,76 -22,142 44,66 43,98 109,65 65,-44 66,-11 33,-66 -43,-66z"/>
  </g>
  <path fill="#526A8F" d="M3044 1391l0 -327c0,-33 11,-66 33,-66l43 0c22,0 33,33 33,66l0 32 22 0 0 -65c0,-22 0,-33 11,-33l22 0c0,0 11,11 11,33l0 404c0,11 -11,22 -11,22l-22 0c-11,0 -11,-11 -11,-22l0 -77 -22 0 0 33c0,44 -11,66 -33,66l-43 0c-22,0 -33,-22 -33,-66l0 0zm-404 -393l295 0c43,0 76,44 76,87l0 284c0,55 -33,88 -76,88l-295 0c-44,0 -76,-33 -76,-88l0 -284c0,-43 32,-87 76,-87zm-240 306l22 0 0 -142 -22 0 0 142zm22 54l-22 0 0 77c0,11 0,22 -11,22l-22 0c0,0 -11,-11 -11,-22l0 -404c0,-22 11,-33 11,-33l22 0c11,0 11,11 11,33l0 65 22 0 0 -32c0,-33 11,-66 32,-66l44 0c22,0 33,33 33,66l0 338c0,33 -11,55 -33,55l-44 0c-21,0 -32,-22 -32,-55l0 -44zm753 -54l0 -142 -22 0 0 142 22 0z"/>
  <path fill="#7D89B3" d="M2585 1031l346 0c30,0 55,34 55,76l0 240c0,42 -25,77 -55,77l-346 0c-30,0 -54,-35 -54,-77l0 -240c0,-42 24,-76 54,-76z"/>
  <path fill="#B5C2D8" d="M2607 1053l297 0c30,0 54,29 54,65l0 219c0,36 -24,66 -54,66l-297 0c-30,0 -54,-30 -54,-66l0 -219c0,-36 24,-65 54,-65z"/>
  <path fill="#2F3457" d="M2498 1369l0 -284c0,-32 -11,-54 -33,-54l-43 0c-22,0 -33,22 -33,54l0 284c0,33 11,55 33,55l43 0c22,0 33,-22 33,-55zm-175 33l0 -349c0,-11 11,-22 11,-22l22 0c11,0 11,11 11,22l0 349c0,11 0,22 -11,22l-22 0c0,0 -11,-11 -11,-22z"/>
  <rect fill="#2F3457" x="2356" y="1118" width="59.1785" height="51.2953"/>
  <rect fill="#2F3457" x="2356" y="1293" width="59.1785" height="51.2953"/>
  <path fill="#2F3457" d="M3011 1369l0 -284c0,-32 11,-54 33,-54l44 0c22,0 32,22 32,54l0 284c0,33 -10,55 -32,55l-44 0c-22,0 -33,-22 -33,-55zm175 33l0 -349c0,-11 -11,-22 -11,-22l-22 0c-11,0 -11,11 -11,22l0 349c0,11 0,22 11,22l22 0c0,0 11,-11 11,-22z"/>
  <rect fill="#2F3457" x="3099" y="1118" width="59.1785" height="51.2953"/>
  <rect fill="#2F3457" x="3099" y="1282" width="59.1785" height="51.2953"/>
  <path fill="#526A8F" d="M3044 801l0 -328c0,-32 11,-65 33,-65l43 0c22,0 33,33 33,65l0 33 22 0 0 -65c0,-22 0,-33 11,-33l22 0c0,0 11,11 11,33l0 404c0,11 -11,21 -11,21l-22 0c-11,0 -11,-10 -11,-21l0 -77 -22 0 0 33c0,44 -11,65 -33,65l-43 0c-22,0 -33,-21 -33,-65l0 0zm-404 -393l295 0c43,0 76,44 76,87l0 284c0,55 -33,87 -76,87l-295 0c-44,0 -76,-32 -76,-87l0 -284c0,-43 32,-87 76,-87zm-240 306l22 0 0 -142 -22 0 0 142zm22 54l-22 0 0 77c0,11 0,21 -11,21l-22 0c0,0 -11,-10 -11,-21l0 -404c0,-22 11,-33 11,-33l22 0c11,0 11,11 11,33l0 65 22 0 0 -33c0,-32 11,-65 32,-65l44 0c22,0 33,33 33,65l0 339c0,33 -11,54 -33,54l-44 0c-21,0 -32,-21 -32,-54l0 -44zm753 -54l0 -142 -22 0 0 142 22 0z"/>
  <path fill="#7D89B3" d="M2585 441l346 0c30,0 55,34 55,76l0 240c0,42 -25,76 -55,76l-346 0c-30,0 -54,-34 -54,-76l0 -240c0,-42 24,-76 54,-76z"/>
  <path fill="#B5C2D8" d="M2607 462l297 0c30,0 54,30 54,66l0 219c0,36 -24,66 -54,66l-297 0c-30,0 -54,-30 -54,-66l0 -219c0,-36 24,-66 54,-66z"/>
  <path fill="#2F3457" d="M2498 779l0 -284c0,-33 -11,-54 -33,-54l-43 0c-22,0 -33,21 -33,54l0 284c0,33 11,55 33,55l43 0c22,0 33,-22 33,-55zm-175 33l0 -350c0,-10 11,-21 11,-21l22 0c11,0 11,11 11,21l0 350c0,11 0,22 -11,22l-22 0c0,0 -11,-11 -11,-22z"/>
  <rect fill="#2F3457" x="2356" y="528" width="59.1785" height="51.2953"/>
  <rect fill="#2F3457" x="2356" y="703" width="59.1785" height="51.2953"/>
  <path fill="#2F3457" d="M3011 779l0 -284c0,-33 11,-54 33,-54l44 0c22,0 32,21 32,54l0 284c0,33 -10,55 -32,55l-44 0c-22,0 -33,-22 -33,-55zm175 33l0 -350c0,-10 -11,-21 -11,-21l-22 0c-11,0 -11,11 -11,21l0 350c0,11 0,22 11,22l22 0c0,0 11,-11 11,-22z"/>
  <rect fill="#2F3457" x="3099" y="528" width="59.1785" height="51.2953"/>
  <rect fill="#2F3457" x="3099" y="692" width="59.1785" height="51.2953"/>
  <path fill="#526A8F" d="M4088 1391l0 -327c0,-33 10,-66 32,-66l44 0c22,0 33,33 33,66l0 32 22 0 0 -65c0,-22 0,-33 11,-33l21 0c0,0 11,11 11,33l0 404c0,11 -11,22 -11,22l-21 0c-11,0 -11,-11 -11,-22l0 -77 -22 0 0 33c0,44 -11,66 -33,66l-44 0c-22,0 -32,-22 -32,-66l0 0zm-404 -393l294 0c44,0 77,44 77,87l0 284c0,55 -33,88 -77,88l-294 0c-44,0 -77,-33 -77,-88l0 -284c0,-43 33,-87 77,-87zm-241 306l22 0 0 -142 -22 0 0 142zm22 54l-22 0 0 77c0,11 0,22 -11,22l-21 0c0,0 -11,-11 -11,-22l0 -404c0,-22 11,-33 11,-33l21 0c11,0 11,11 11,33l0 65 22 0 0 -32c0,-33 11,-66 33,-66l44 0c21,0 32,33 32,66l0 338c0,33 -11,55 -32,55l-44 0c-22,0 -33,-22 -33,-55l0 -44zm754 -54l0 -142 -22 0 0 142 22 0z"/>
  <path fill="#7D89B3" d="M3629 1031l346 0c30,0 54,34 54,76l0 240c0,42 -24,77 -54,77l-346 0c-30,0 -55,-35 -55,-77l0 -240c0,-42 25,-76 55,-76z"/>
  <path fill="#B5C2D8" d="M3651 1053l296 0c30,0 55,29 55,65l0 219c0,36 -25,66 -55,66l-296 0c-30,0 -55,-30 -55,-66l0 -219c0,-36 25,-65 55,-65z"/>
  <path fill="#2F3457" d="M3542 1369l0 -284c0,-32 -11,-54 -33,-54l-44 0c-22,0 -33,22 -33,54l0 284c0,33 11,55 33,55l44 0c22,0 33,-22 33,-55zm-175 33l0 -349c0,-11 11,-22 11,-22l22 0c11,0 11,11 11,22l0 349c0,11 0,22 -11,22l-22 0c0,0 -11,-11 -11,-22z"/>
  <rect fill="#2F3457" x="3400" y="1118" width="59.1785" height="51.2953"/>
  <rect fill="#2F3457" x="3400" y="1293" width="59.1785" height="51.2953"/>
  <path fill="#2F3457" d="M4055 1369l0 -284c0,-32 11,-54 33,-54l43 0c22,0 33,22 33,54l0 284c0,33 -11,55 -33,55l-43 0c-22,0 -33,-22 -33,-55zm175 33l0 -349c0,-11 -11,-22 -11,-22l-22 0c-11,0 -11,11 -11,22l0 349c0,11 0,22 11,22l22 0c0,0 11,-11 11,-22z"/>
  <rect fill="#2F3457" x="4142" y="1118" width="59.1785" height="51.2953"/>
  <rect fill="#2F3457" x="4142" y="1282" width="59.1785" height="51.2953"/>
  <path fill="#526A8F" d="M4088 801l0 -328c0,-32 10,-65 32,-65l44 0c22,0 33,33 33,65l0 33 22 0 0 -65c0,-22 0,-33 11,-33l21 0c0,0 11,11 11,33l0 404c0,11 -11,21 -11,21l-21 0c-11,0 -11,-10 -11,-21l0 -77 -22 0 0 33c0,44 -11,65 -33,65l-44 0c-22,0 -32,-21 -32,-65l0 0zm-404 -393l294 0c44,0 77,44 77,87l0 284c0,55 -33,87 -77,87l-294 0c-44,0 -77,-32 -77,-87l0 -284c0,-43 33,-87 77,-87zm-241 306l22 0 0 -142 -22 0 0 142zm22 54l-22 0 0 77c0,11 0,21 -11,21l-21 0c0,0 -11,-10 -11,-21l0 -404c0,-22 11,-33 11,-33l21 0c11,0 11,11 11,33l0 65 22 0 0 -33c0,-32 11,-65 33,-65l44 0c21,0 32,33 32,65l0 339c0,33 -11,54 -32,54l-44 0c-22,0 -33,-21 -33,-54l0 -44zm754 -54l0 -142 -22 0 0 142 22 0z"/>
  <path fill="#7D89B3" d="M3629 441l346 0c30,0 54,34 54,76l0 240c0,42 -24,76 -54,76l-346 0c-30,0 -55,-34 -55,-76l0 -240c0,-42 25,-76 55,-76z"/>
  <path fill="#B5C2D8" d="M3651 462l296 0c30,0 55,30 55,66l0 219c0,36 -25,66 -55,66l-296 0c-30,0 -55,-30 -55,-66l0 -219c0,-36 25,-66 55,-66z"/>
  <path fill="#2F3457" d="M3542 779l0 -284c0,-33 -11,-54 -33,-54l-44 0c-22,0 -33,21 -33,54l0 284c0,33 11,55 33,55l44 0c22,0 33,-22 33,-55zm-175 33l0 -350c0,-10 11,-21 11,-21l22 0c11,0 11,11 11,21l0 350c0,11 0,22 -11,22l-22 0c0,0 -11,-11 -11,-22z"/>
  <rect fill="#2F3457" x="3400" y="528" width="59.1785" height="51.2953"/>
  <rect fill="#2F3457" x="3400" y="703" width="59.1785" height="51.2953"/>
  <path fill="#2F3457" d="M4055 779l0 -284c0,-33 11,-54 33,-54l43 0c22,0 33,21 33,54l0 284c0,33 -11,55 -33,55l-43 0c-22,0 -33,-22 -33,-55zm175 33l0 -350c0,-10 -11,-21 -11,-21l-22 0c-11,0 -11,11 -11,21l0 350c0,11 0,22 11,22l22 0c0,0 11,-11 11,-22z"/>
  <rect fill="#2F3457" x="4142" y="528" width="59.1785" height="51.2953"/>
  <rect fill="#2F3457" x="4142" y="692" width="59.1785" height="51.2953"/>
  <path fill="#526A8F" d="M4088 2013l0 -327c0,-33 10,-66 32,-66l44 0c22,0 33,33 33,66l0 32 22 0 0 -65c0,-22 0,-33 11,-33l21 0c0,0 11,11 11,33l0 404c0,11 -11,22 -11,22l-21 0c-11,0 -11,-11 -11,-22l0 -77 -22 0 0 33c0,44 -11,66 -33,66l-44 0c-22,0 -32,-22 -32,-66l0 0zm-404 -393l294 0c44,0 77,44 77,87l0 284c0,55 -33,88 -77,88l-294 0c-44,0 -77,-33 -77,-88l0 -284c0,-43 33,-87 77,-87zm-241 306l22 0 0 -142 -22 0 0 142zm22 54l-22 0 0 77c0,11 0,22 -11,22l-21 0c0,0 -11,-11 -11,-22l0 -404c0,-22 11,-33 11,-33l21 0c11,0 11,11 11,33l0 65 22 0 0 -32c0,-33 11,-66 33,-66l44 0c21,0 32,33 32,66l0 338c0,33 -11,55 -32,55l-44 0c-22,0 -33,-22 -33,-55l0 -44zm754 -54l0 -142 -22 0 0 142 22 0z"/>
  <path fill="#7D89B3" d="M3629 1653l346 0c30,0 54,34 54,76l0 240c0,42 -24,76 -54,76l-346 0c-30,0 -55,-34 -55,-76l0 -240c0,-42 25,-76 55,-76z"/>
  <path fill="#B5C2D8" d="M3651 1675l296 0c30,0 55,29 55,65l0 219c0,36 -25,66 -55,66l-296 0c-30,0 -55,-30 -55,-66l0 -219c0,-36 25,-65 55,-65z"/>
  <path fill="#2F3457" d="M3542 1991l0 -284c0,-32 -11,-54 -33,-54l-44 0c-22,0 -33,22 -33,54l0 284c0,33 11,55 33,55l44 0c22,0 33,-22 33,-55zm-175 33l0 -349c0,-11 11,-22 11,-22l22 0c11,0 11,11 11,22l0 349c0,11 0,22 -11,22l-22 0c0,0 -11,-11 -11,-22z"/>
  <rect fill="#2F3457" x="3400" y="1740" width="59.1785" height="51.2953"/>
  <rect fill="#2F3457" x="3400" y="1915" width="59.1785" height="51.2953"/>
  <path fill="#2F3457" d="M4055 1991l0 -284c0,-32 11,-54 33,-54l43 0c22,0 33,22 33,54l0 284c0,33 -11,55 -33,55l-43 0c-22,0 -33,-22 -33,-55zm175 33l0 -349c0,-11 -11,-22 -11,-22l-22 0c-11,0 -11,11 -11,22l0 349c0,11 0,22 11,22l22 0c0,0 11,-11 11,-22z"/>
  <rect fill="#2F3457" x="4142" y="1740" width="59.1785" height="51.2953"/>
  <rect fill="#2F3457" x="4142" y="1904" width="59.1785" height="51.2953"/>
  <path fill="#526A8F" d="M3044 2013l0 -327c0,-33 11,-66 33,-66l43 0c22,0 33,33 33,66l0 32 22 0 0 -65c0,-22 0,-33 11,-33l22 0c0,0 11,11 11,33l0 404c0,11 -11,22 -11,22l-22 0c-11,0 -11,-11 -11,-22l0 -77 -22 0 0 33c0,44 -11,66 -33,66l-43 0c-22,0 -33,-22 -33,-66l0 0zm-404 -393l295 0c43,0 76,44 76,87l0 284c0,55 -33,88 -76,88l-295 0c-44,0 -76,-33 -76,-88l0 -284c0,-43 32,-87 76,-87zm-240 306l22 0 0 -142 -22 0 0 142zm22 54l-22 0 0 77c0,11 0,22 -11,22l-22 0c0,0 -11,-11 -11,-22l0 -404c0,-22 11,-33 11,-33l22 0c11,0 11,11 11,33l0 65 22 0 0 -32c0,-33 11,-66 32,-66l44 0c22,0 33,33 33,66l0 338c0,33 -11,55 -33,55l-44 0c-21,0 -32,-22 -32,-55l0 -44zm753 -54l0 -142 -22 0 0 142 22 0z"/>
  <path fill="#7D89B3" d="M2585 1653l346 0c30,0 55,34 55,76l0 240c0,42 -25,76 -55,76l-346 0c-30,0 -54,-34 -54,-76l0 -240c0,-42 24,-76 54,-76z"/>
  <path fill="#B5C2D8" d="M2607 1675l297 0c30,0 54,29 54,65l0 219c0,36 -24,66 -54,66l-297 0c-30,0 -54,-30 -54,-66l0 -219c0,-36 24,-65 54,-65z"/>
  <path fill="#2F3457" d="M2498 1991l0 -284c0,-32 -11,-54 -33,-54l-43 0c-22,0 -33,22 -33,54l0 284c0,33 11,55 33,55l43 0c22,0 33,-22 33,-55zm-175 33l0 -349c0,-11 11,-22 11,-22l22 0c11,0 11,11 11,22l0 349c0,11 0,22 -11,22l-22 0c0,0 -11,-11 -11,-22z"/>
  <rect fill="#2F3457" x="2356" y="1740" width="59.1785" height="51.2953"/>
  <rect fill="#2F3457" x="2356" y="1915" width="59.1785" height="51.2953"/>
  <path fill="#2F3457" d="M3011 1991l0 -284c0,-32 11,-54 33,-54l44 0c22,0 32,22 32,54l0 284c0,33 -10,55 -32,55l-44 0c-22,0 -33,-22 -33,-55zm175 33l0 -349c0,-11 -11,-22 -11,-22l-22 0c-11,0 -11,11 -11,22l0 349c0,11 0,22 11,22l22 0c0,0 11,-11 11,-22z"/>
  <rect fill="#2F3457" x="3099" y="1740" width="59.1785" height="51.2953"/>
  <rect fill="#2F3457" x="3099" y="1904" width="59.1785" height="51.2953"/>
  <rect fill="#454E82" x="2647" y="545" width="248" height="185"/>
  <path fill="white" fill-rule="nonzero" d="M2790 688l-13 0 0 -79c-3,3 -7,5 -12,8 -4,3 -9,5 -13,7l0 -12c7,-4 13,-8 19,-12 5,-5 9,-9 11,-14l8 0 0 102z"/>
  <rect fill="#454E82" x="2647" y="1135" width="248" height="185"/>
  <path fill="white" fill-rule="nonzero" d="M2743 1251l12 -1c2,7 4,12 8,15 3,3 7,5 12,5 6,0 11,-2 15,-6 4,-4 6,-9 6,-15 0,-6 -2,-11 -5,-15 -4,-3 -9,-5 -15,-5 -2,0 -5,0 -8,1l1 -11c1,0 1,0 2,0 5,0 10,-1 14,-4 5,-3 7,-7 7,-13 0,-4 -2,-8 -5,-11 -3,-3 -7,-4 -12,-4 -5,0 -9,1 -12,4 -3,3 -5,8 -6,14l-13 -2c2,-9 5,-15 11,-20 5,-4 12,-7 20,-7 5,0 10,2 15,4 5,2 8,6 11,10 2,4 4,8 4,13 0,4 -2,8 -4,12 -2,3 -6,6 -10,8 6,2 10,5 14,9 3,4 4,10 4,16 0,9 -3,17 -9,23 -7,6 -15,9 -25,9 -9,0 -16,-3 -22,-8 -6,-5 -9,-12 -10,-21z"/>
  <rect fill="#454E82" x="3691" y="545" width="248" height="185"/>
  <path fill="white" fill-rule="nonzero" d="M3852 676l0 12 -67 0c0,-3 0,-6 1,-9 2,-4 5,-9 8,-13 4,-4 10,-10 17,-15 11,-9 18,-17 22,-22 4,-5 6,-10 6,-15 0,-5 -2,-9 -5,-12 -4,-4 -8,-5 -14,-5 -6,0 -11,1 -15,5 -3,3 -5,8 -5,15l-13 -1c1,-10 4,-17 10,-22 6,-5 13,-8 23,-8 10,0 18,3 23,8 6,6 9,12 9,20 0,4 -1,8 -3,12 -1,4 -4,8 -8,13 -4,4 -10,10 -19,18 -8,6 -13,10 -15,12 -2,3 -4,5 -5,7l50 0z"/>
  <rect fill="#454E82" x="3691" y="1135" width="248" height="185"/>
  <path fill="white" fill-rule="nonzero" d="M3826 1278l0 -24 -44 0 0 -11 47 -66 10 0 0 66 14 0 0 11 -14 0 0 24 -13 0zm0 -35l0 -46 -31 46 31 0z"/>
  <rect fill="#454E82" x="2647" y="1757" width="248" height="185"/>
  <path fill="white" fill-rule="nonzero" d="M2743 1874l13 -1c1,6 3,11 7,14 3,3 7,5 13,5 6,0 11,-2 15,-7 4,-4 6,-10 6,-18 0,-7 -2,-13 -6,-17 -4,-4 -9,-6 -16,-6 -4,0 -7,1 -10,3 -4,2 -6,4 -8,7l-12 -2 10 -52 50 0 0 12 -40 0 -5 27c6,-4 12,-6 19,-6 9,0 16,3 22,9 6,6 9,14 9,24 0,9 -2,17 -8,24 -6,8 -15,12 -26,12 -10,0 -17,-3 -23,-8 -6,-5 -9,-12 -10,-20z"/>
  <rect fill="#454E82" x="3691" y="1757" width="248" height="185"/>
  <path fill="white" fill-rule="nonzero" d="M3851 1824l-12 1c-1,-5 -3,-9 -5,-11 -3,-4 -7,-5 -12,-5 -4,0 -8,1 -11,3 -4,3 -7,7 -9,12 -2,6 -4,14 -4,24 3,-5 7,-8 11,-10 5,-3 9,-4 14,-4 8,0 15,3 21,10 6,6 9,14 9,23 0,7 -1,13 -4,18 -3,6 -7,10 -11,13 -5,3 -11,4 -17,4 -10,0 -19,-4 -25,-11 -7,-8 -10,-21 -10,-38 0,-20 4,-34 11,-43 6,-8 15,-12 25,-12 8,0 15,3 20,7 5,5 8,11 9,19zm-51 43c0,5 1,9 3,13 2,4 4,7 8,9 3,2 6,3 10,3 5,0 10,-2 14,-7 3,-4 5,-10 5,-17 0,-7 -2,-12 -5,-16 -4,-5 -9,-7 -14,-7 -6,0 -11,2 -15,7 -4,4 -6,9 -6,15z"/>
  <path fill="#2F3457" mask="url(#id4)" d="M951 1545l3 0c22,50 94,75 178,43 21,7 42,4 58,-10 91,47 169,21 191,-33l9 0c44,0 79,-21 78,-46l-8 -236c-1,-25 -37,-45 -80,-45l-7 0c-22,-69 -101,-85 -189,0l-47 0c-100,-85 -180,-69 -196,0l-1 0c-44,0 -78,20 -78,45l8 236c1,25 37,46 81,46z"/>
  <path fill="#745975" d="M915 1431l439 0c44,0 79,-20 79,-45l0 -237c0,-25 -35,-45 -79,-45l-439 0c-44,0 -79,20 -79,45l0 237c0,25 35,45 79,45z"/>
  <path fill="#6FB9FF" d="M1136 1455c160,98 294,-36 164,-164 130,-204 -4,-338 -164,-164 -172,-174 -306,-40 -164,164 -142,128 -8,262 164,164z"/>
  <path fill="#99E5FF" d="M1029 1394c33,116 156,111 149,-7 151,-40 145,-162 -7,-149 -6,-157 -128,-152 -149,7 -123,-1 -117,121 7,149z"/>
  <path fill="#99FFFF" d="M1060 1251c-46,68 11,128 68,74 87,60 148,3 74,-69 79,-72 23,-133 -68,-74 -54,-64 -114,-8 -74,69z"/>
 </g>
</svg>
