<?xml version="1.0" encoding="UTF-8"?>
<!DOCTYPE svg PUBLIC "-//W3C//DTD SVG 1.1//EN" "http://www.w3.org/Graphics/SVG/1.1/DTD/svg11.dtd">
<!-- Creator: CorelDRAW X8 -->
<svg xmlns="http://www.w3.org/2000/svg" xml:space="preserve" width="843px" height="431px" version="1.1" shape-rendering="geometricPrecision" text-rendering="geometricPrecision" image-rendering="optimizeQuality" fill-rule="evenodd" clip-rule="evenodd"
viewBox="0 0 4893 2501"
 xmlns:xlink="http://www.w3.org/1999/xlink">
 <defs>
      <linearGradient id="id0" gradientUnits="userSpaceOnUse" x1="3883.46" y1="2993.8" x2="3883.46" y2="360.752">
       <stop offset="0" stop-opacity="1" stop-color="white"/>
       <stop offset="0.521569" stop-opacity="0" stop-color="white"/>
       <stop offset="1" stop-opacity="0" stop-color="white"/>
      </linearGradient>
      <clipPath id="id1">
       <path d="M3354 1399l1467 0 0 -377 -1467 0 0 377z"/>
      </clipPath>
        <mask id="id2">
          <linearGradient id="id3" gradientUnits="userSpaceOnUse" x1="2.57023e+09" y1="4.94523e+08" x2="2.57023e+09" y2="5.95826e+07">
           <stop offset="0" stop-opacity="1" stop-color="white"/>
           <stop offset="0.521569" stop-opacity="0" stop-color="white"/>
           <stop offset="1" stop-opacity="0" stop-color="white"/>
          </linearGradient>
         <rect fill="url(#id3)" x="3352" y="1028" width="1460" height="368"/>
        </mask>
 </defs>
 <g id="Layer_x0020_1">
  <metadata id="CorelCorpID_0Corel-Layer"/>
  <g id="_407757029408">
   <g id="_275513313584">
    <rect fill="#6582B0" width="4893" height="2501"/>
    <path fill="#526A8F" d="M2657 2260l2056 0 0 -745c0,-12 12,-24 24,-24l132 0c12,0 24,12 24,24l0 769 0 133 0 0 0 0 0 0 0 0 0 0 0 0 0 0 0 0 0 0 0 0 0 12 0 0 0 0 0 0 0 0 0 0 0 0 0 0 0 0 0 0 0 0 0 0 0 0 0 0 0 0 0 0 0 0 0 0 0 0 0 0 0 0 0 0 0 0 0 0 0 0 0 0 0 0 0 0 0 0 0 0 0 0 0 0 0 0 0 0 0 0 0 0 0 0 0 0 0 12 -12 0 0 0 0 0 0 0 0 0 0 0 0 0 0 0 0 0 0 0 0 0 0 0 0 0 0 0 0 0 0 0 0 0 0 0 0 0 0 0 0 0 0 0 0 0 0 0 0 0 0 0 0 0 0 0 -12 0 0 0 0 0 0 0 0 0 0 0 0 0 -132 0 -2080 0c-12,0 -24,-12 -24,-24l0 -133c0,-12 12,-24 24,-24l0 0z"/>
    <rect fill="#526A8F" transform="matrix(8.27688E-15 -1 1 8.355E-14 0.00774586 166.114)" width="166" height="2699"/>
    <polygon fill="#526A8F" points="2729,1118 2621,950 4881,950 4881,1118 "/>
    <polygon fill="#EDD2CE" points="2633,1467 4352,1467 4352,1984 2633,1984 "/>
    <path fill="#526A8F" d="M2837 998l311 0c26,0 48,22 48,48l0 310c0,27 -22,49 -48,49l-311 0c-26,0 -48,-22 -48,-49l0 -310c0,-26 22,-48 48,-48z"/>
    <path fill="#526A8F" d="M252 0l1515 0 0 445c0,96 -84,180 -180,180l-1154 0c-96,0 -181,-84 -181,-180l0 -445 0 0z"/>
    <path fill="#59405A" d="M1563 192c0,0 0,12 0,12l0 529c0,61 -24,121 -72,121l-1082 0c-36,0 -72,-60 -72,-121l0 -529c0,0 0,-12 0,-12l72 0 0 385 1082 0 0 -385 72 0z"/>
    <path fill="#745975" d="M1539 192c0,0 0,12 0,12l0 493c0,61 -24,109 -72,109l-1034 0c-48,0 -72,-48 -72,-109l0 -493c0,0 0,-12 0,-12l72 0 0 433 1034 0 0 -433 72 0z"/>
    <path fill="#3EAA92" d="M192 0l1515 0 0 361c0,36 -24,60 -60,60l-1395 0c-36,0 -60,-24 -60,-60l0 -361z"/>
    <path fill="#92D8C8" d="M192 168l1515 0 0 60c0,13 -12,25 -24,25l-1467 0c-12,0 -24,-12 -24,-25l0 -60 0 0z"/>
    <polygon fill="#2F3457" points="2609,0 4893,0 4893,950 2609,950 "/>
    <g>
     <polygon fill="url(#id0)" points="3354,1399 4821,1399 4821,1022 3354,1022 "/>
     <g clip-path="url(#id1)">
      <g>
       <path id="1" fill="#262E57" mask="url(#id2)" d="M3354 1214l0 0c0,48 49,85 97,85l36 0c12,36 24,48 48,60 36,48 84,48 108,-12 84,24 132,0 132,-48l133 0c12,36 36,36 72,24 48,72 108,84 132,48 48,24 72,-12 72,-72l180 0c12,36 36,36 85,24 48,72 108,84 120,48 48,24 84,-12 84,-72l60 0c48,0 96,-37 96,-85l0 0c0,-12 0,-12 0,-12 0,-12 0,-24 0,-24l0 0c0,-60 -36,-96 -96,-96l-96 0c-12,-12 -24,-12 -48,-12 0,-48 -48,-48 -96,-24 -24,0 -49,12 -61,36l-252 0c-12,-12 -36,-12 -48,-12 -12,-48 -48,-48 -96,-24 -24,0 -48,12 -60,36l-193 0c-12,-12 -36,-24 -60,-12 -12,-48 -84,-48 -144,0 -24,-12 -36,-12 -60,12l-36 0c-60,0 -97,36 -97,96l0 0c0,0 0,0 0,0 -12,12 -12,24 -12,36l0 0z"/>
      </g>
     </g>
     <polygon fill="none" points="3354,1399 4821,1399 4821,1022 3354,1022 "/>
     <path fill="#53709F" d="M3356 1151l0 0c0,52 72,94 162,94l1126 0c89,0 161,-42 161,-94l0 0c0,-52 -72,-95 -161,-95l-1126 0c-90,0 -162,43 -162,95z"/>
     <path fill="#745975" d="M3361 1115l0 0c0,52 72,94 161,94l1126 0c90,0 162,-42 162,-94l0 0c0,-52 -72,-95 -162,-95l-1126 0c-89,0 -161,43 -161,95z"/>
     <path fill="#3EAA92" d="M3475 1166c-24,84 60,181 108,109 168,72 264,-25 108,-109 156,-132 60,-216 -108,-108 -48,-108 -132,-24 -108,108z"/>
     <path fill="#64C7B2" d="M3535 1034c-84,24 -120,144 -36,144 24,181 144,217 144,48 192,61 228,-60 36,-156 72,-96 -48,-132 -144,-36z"/>
     <path fill="#92D8C8" d="M3571 1082c-48,12 -72,84 -24,96 24,109 96,121 96,24 108,36 132,-36 24,-96 36,-60 -36,-72 -96,-24z"/>
     <path fill="#3EAA92" d="M3944 1058c-73,48 -73,168 12,156 72,169 204,157 144,-12 204,12 192,-108 0,-144 36,-120 -84,-108 -156,0z"/>
     <path fill="#64C7B2" d="M4076 1010c-72,-48 -181,12 -120,72 -109,156 -36,265 72,132 96,181 204,109 132,-84 120,-24 48,-120 -84,-120z"/>
     <path fill="#92D8C8" d="M4076 1070c-48,-36 -108,12 -84,48 -60,84 -24,157 48,72 60,109 120,72 84,-48 72,-12 24,-72 -48,-72z"/>
     <path fill="#3EAA92" d="M4412 1058c-84,48 -84,168 0,156 85,169 205,157 157,-12 192,12 192,-108 -12,-144 48,-120 -84,-108 -145,0z"/>
     <path fill="#64C7B2" d="M4545 1010c-84,-48 -193,12 -133,72 -96,156 -36,265 85,132 96,181 192,109 120,-84 120,-24 60,-120 -72,-120z"/>
     <path fill="#92D8C8" d="M4533 1070c-48,-36 -109,12 -72,48 -61,84 -24,157 48,72 48,109 120,72 72,-48 72,-12 36,-72 -48,-72z"/>
    </g>
    <path fill="#745975" d="M2837 986l267 0c27,0 48,21 48,48l0 252c0,27 -21,48 -48,48l-267 0c-26,0 -48,-21 -48,-48l0 -252c0,-27 22,-48 48,-48z"/>
    <path fill="#92D8C8" d="M192 0l1515 0 0 60c0,12 -12,24 -24,24l-1467 0c-12,0 -24,-12 -24,-24l0 -60 0 0z"/>
    <path fill="#92D8C8" d="M192 337l1515 0 0 60c0,12 -12,24 -24,24l-1467 0c-12,0 -24,-12 -24,-24l0 -60 0 0z"/>
    <path fill="#2F3457" d="M2633 0l0 0c12,0 12,12 12,12l0 902 2236 0c12,0 12,0 12,12l0 0c0,12 0,24 -12,24l-2248 0c-12,0 -24,-12 -24,-24l0 0c0,0 0,0 0,0 0,0 0,0 0,0l0 -914c0,0 12,-12 24,-12z"/>
    <path fill="#526A8F" d="M902 1611l0 -361c0,-36 12,-72 36,-72l48 0c24,0 36,36 36,72l0 37 24 0 0 -73c0,-24 0,-36 12,-36l24 0c0,0 12,12 12,36l0 445c0,12 -12,24 -12,24l-24 0c-12,0 -12,-12 -12,-24l0 -84 -24 0 0 36c0,48 -12,72 -36,72l-48 0c-24,0 -36,-24 -36,-72l0 0zm-445 -433l325 0c48,0 84,48 84,97l0 312c0,60 -36,96 -84,96l-325 0c-48,0 -84,-36 -84,-96l0 -312c0,-49 36,-97 84,-97zm-265 337l24 0 0 -156 -24 0 0 156zm24 60l-24 0 0 84c0,12 0,24 -12,24l-24 0c0,0 -12,-12 -12,-24l0 -445c0,-24 12,-36 12,-36l24 0c12,0 12,12 12,36l0 73 24 0 0 -37c0,-36 12,-72 36,-72l49 0c24,0 36,36 36,72l0 373c0,36 -12,60 -36,60l-49 0c-24,0 -36,-24 -36,-60l0 -48zm830 -60l0 -156 -24 0 0 156 24 0z"/>
    <path fill="#59405A" d="M397 1214l380 0c34,0 61,38 61,85l0 264c0,46 -27,84 -61,84l-380 0c-33,0 -60,-38 -60,-84l0 -264c0,-47 27,-85 60,-85z"/>
    <path fill="#745975" d="M421 1238l326 0c33,0 60,33 60,73l0 241c0,40 -27,72 -60,72l-326 0c-33,0 -60,-32 -60,-72l0 -241c0,-40 27,-73 60,-73z"/>
    <path fill="#2F3457" d="M301 1587l0 -312c0,-37 -12,-61 -36,-61l-49 0c-24,0 -36,24 -36,61l0 312c0,36 12,60 36,60l49 0c24,0 36,-24 36,-60zm-193 36l0 -385c0,-12 12,-24 12,-24l24 0c12,0 12,12 12,24l0 385c0,12 0,24 -12,24l-24 0c0,0 -12,-12 -12,-24z"/>
    <rect fill="#2F3457" x="144" y="1311" width="65.1628" height="56.4825"/>
    <rect fill="#2F3457" x="144" y="1503" width="65.1628" height="56.4825"/>
    <path fill="#2F3457" d="M866 1587l0 -312c0,-37 12,-61 36,-61l48 0c24,0 36,24 36,61l0 312c0,36 -12,60 -36,60l-48 0c-24,0 -36,-24 -36,-60zm192 36l0 -385c0,-12 -12,-24 -12,-24l-24 0c-12,0 -12,12 -12,24l0 385c0,12 0,24 12,24l24 0c0,0 12,-12 12,-24z"/>
    <rect fill="#2F3457" x="962" y="1311" width="65.1628" height="56.4825"/>
    <rect fill="#2F3457" x="962" y="1491" width="65.1628" height="56.4825"/>
    <path fill="#526A8F" d="M902 2260l0 -372c0,-36 12,-72 36,-72l48 0c24,0 36,36 36,72l0 36 24 0 0 -72c0,-24 0,-36 12,-36l24 0c0,0 12,12 12,36l0 444c0,12 -12,25 -12,25l-24 0c-12,0 -12,-13 -12,-25l0 -84 -24 0 0 48c0,36 -12,61 -36,61l-48 0c-24,0 -36,-25 -36,-61zm-445 -444l325 0c48,0 84,48 84,108l0 300c0,60 -36,97 -84,97l-325 0c-48,0 -84,-37 -84,-97l0 -300c0,-60 36,-108 84,-108zm-265 336l24 0 0 -156 -24 0 0 156zm24 60l-24 0 0 84c0,12 0,25 -12,25l-24 0c0,0 -12,-13 -12,-25l0 -444c0,-24 12,-36 12,-36l24 0c12,0 12,12 12,36l0 72 24 0 0 -36c0,-36 12,-72 36,-72l49 0c24,0 36,36 36,72l0 372c0,36 -12,61 -36,61l-49 0c-24,0 -36,-25 -36,-61l0 -48zm830 -60l0 -156 -24 0 0 156 24 0z"/>
    <path fill="#59405A" d="M397 1852l380 0c34,0 61,37 61,84l0 264c0,46 -27,84 -61,84l-380 0c-33,0 -60,-38 -60,-84l0 -264c0,-47 27,-84 60,-84z"/>
    <path fill="#745975" d="M421 1876l326 0c33,0 60,32 60,72l0 241c0,40 -27,72 -60,72l-326 0c-33,0 -60,-32 -60,-72l0 -241c0,-40 27,-72 60,-72z"/>
    <path fill="#2F3457" d="M301 2224l0 -312c0,-36 -12,-60 -36,-60l-49 0c-24,0 -36,24 -36,60l0 312c0,36 12,60 36,60l49 0c24,0 36,-24 36,-60zm-193 36l0 -384c0,-12 12,-24 12,-24l24 0c12,0 12,12 12,24l0 384c0,12 0,24 -12,24l-24 0c0,0 -12,-12 -12,-24z"/>
    <rect fill="#2F3457" x="144" y="1948" width="65.1628" height="56.4825"/>
    <rect fill="#2F3457" x="144" y="2140" width="65.1628" height="56.4825"/>
    <path fill="#2F3457" d="M866 2224l0 -312c0,-36 12,-60 36,-60l48 0c24,0 36,24 36,60l0 312c0,36 -12,60 -36,60l-48 0c-24,0 -36,-24 -36,-60zm192 36l0 -384c0,-12 -12,-24 -12,-24l-24 0c-12,0 -12,12 -12,24l0 384c0,12 0,24 12,24l24 0c0,0 12,-12 12,-24z"/>
    <rect fill="#2F3457" x="962" y="1948" width="65.1628" height="56.4825"/>
    <rect fill="#2F3457" x="962" y="2140" width="65.1628" height="56.4825"/>
    <path fill="#526A8F" d="M2116 1611l0 -361c0,-36 24,-72 48,-72l36 0c24,0 48,36 48,72l0 37 12 0 0 -73c0,-24 12,-36 24,-36l12 0c12,0 12,12 12,36l0 445c0,12 0,24 -12,24l-12 0c-12,0 -24,-12 -24,-24l0 -84 -12 0 0 36c0,48 -24,72 -48,72l-36 0c-24,0 -48,-24 -48,-72l0 0zm-445 -433l337 0c48,0 84,48 84,97l0 312c0,60 -36,96 -84,96l-337 0c-48,0 -84,-36 -84,-96l0 -312c0,-49 36,-97 84,-97zm-252 337l12 0 0 -156 -12 0 0 156zm12 60l-12 0 0 84c0,12 -12,24 -24,24l-12 0c-12,0 -12,-12 -12,-24l0 -445c0,-24 0,-36 12,-36l12 0c12,0 24,12 24,36l0 73 12 0 0 -37c0,-36 24,-72 48,-72l36 0c24,0 48,36 48,72l0 373c0,36 -24,60 -48,60l-36 0c-24,0 -48,-24 -48,-60l0 -48zm829 -60l0 -156 -12 0 0 156 12 0z"/>
    <path fill="#59405A" d="M1611 1214l381 0c33,0 60,38 60,85l0 264c0,46 -27,84 -60,84l-381 0c-33,0 -60,-38 -60,-84l0 -264c0,-47 27,-85 60,-85z"/>
    <path fill="#745975" d="M1635 1238l327 0c33,0 60,33 60,73l0 241c0,40 -27,72 -60,72l-327 0c-33,0 -60,-32 -60,-72l0 -241c0,-40 27,-73 60,-73z"/>
    <path fill="#2F3457" d="M1527 1587l0 -312c0,-37 -24,-61 -48,-61l-36 0c-24,0 -48,24 -48,61l0 312c0,36 24,60 48,60l36 0c24,0 48,-24 48,-60zm-204 36l0 -385c0,-12 12,-24 24,-24l12 0c12,0 24,12 24,24l0 385c0,12 -12,24 -24,24l-12 0c-12,0 -24,-12 -24,-24z"/>
    <rect fill="#2F3457" x="1359" y="1311" width="65.1628" height="56.4825"/>
    <rect fill="#2F3457" x="1359" y="1503" width="65.1628" height="56.4825"/>
    <path fill="#2F3457" d="M2080 1587l0 -312c0,-37 24,-61 48,-61l36 0c24,0 48,24 48,61l0 312c0,36 -24,60 -48,60l-36 0c-24,0 -48,-24 -48,-60zm192 36l0 -385c0,-12 0,-24 -12,-24l-12 0c-12,0 -24,12 -24,24l0 385c0,12 12,24 24,24l12 0c12,0 12,-12 12,-24z"/>
    <rect fill="#2F3457" x="2176" y="1311" width="65.1628" height="56.4825"/>
    <rect fill="#2F3457" x="2176" y="1491" width="65.1628" height="56.4825"/>
    <path fill="#526A8F" d="M2116 2260l0 -372c0,-36 24,-72 48,-72l36 0c24,0 48,36 48,72l0 36 12 0 0 -72c0,-24 12,-36 24,-36l12 0c12,0 12,12 12,36l0 444c0,12 0,25 -12,25l-12 0c-12,0 -24,-13 -24,-25l0 -84 -12 0 0 48c0,36 -24,61 -48,61l-36 0c-24,0 -48,-25 -48,-61zm-445 -444l337 0c48,0 84,48 84,108l0 300c0,60 -36,97 -84,97l-337 0c-48,0 -84,-37 -84,-97l0 -300c0,-60 36,-108 84,-108zm-252 336l12 0 0 -156 -12 0 0 156zm12 60l-12 0 0 84c0,12 -12,25 -24,25l-12 0c-12,0 -12,-13 -12,-25l0 -444c0,-24 0,-36 12,-36l12 0c12,0 24,12 24,36l0 72 12 0 0 -36c0,-36 24,-72 48,-72l36 0c24,0 48,36 48,72l0 372c0,36 -24,61 -48,61l-36 0c-24,0 -48,-25 -48,-61l0 -48zm829 -60l0 -156 -12 0 0 156 12 0z"/>
    <path fill="#59405A" d="M1611 1852l381 0c33,0 60,37 60,84l0 264c0,46 -27,84 -60,84l-381 0c-33,0 -60,-38 -60,-84l0 -264c0,-47 27,-84 60,-84z"/>
    <path fill="#745975" d="M1635 1876l327 0c33,0 60,32 60,72l0 241c0,40 -27,72 -60,72l-327 0c-33,0 -60,-32 -60,-72l0 -241c0,-40 27,-72 60,-72z"/>
    <path fill="#2F3457" d="M1527 2224l0 -312c0,-36 -24,-60 -48,-60l-36 0c-24,0 -48,24 -48,60l0 312c0,36 24,60 48,60l36 0c24,0 48,-24 48,-60zm-204 36l0 -384c0,-12 12,-24 24,-24l12 0c12,0 24,12 24,24l0 384c0,12 -12,24 -24,24l-12 0c-12,0 -24,-12 -24,-24z"/>
    <rect fill="#2F3457" x="1359" y="1948" width="65.1628" height="56.4825"/>
    <rect fill="#2F3457" x="1359" y="2140" width="65.1628" height="56.4825"/>
    <path fill="#2F3457" d="M2080 2224l0 -312c0,-36 24,-60 48,-60l36 0c24,0 48,24 48,60l0 312c0,36 -24,60 -48,60l-36 0c-24,0 -48,-24 -48,-60zm192 36l0 -384c0,-12 0,-24 -12,-24l-12 0c-12,0 -24,12 -24,24l0 384c0,12 12,24 24,24l12 0c12,0 12,-12 12,-24z"/>
    <rect fill="#2F3457" x="2176" y="1948" width="65.1628" height="56.4825"/>
    <rect fill="#2F3457" x="2176" y="2140" width="65.1628" height="56.4825"/>
    <path fill="#745975" d="M2657 2321l2056 0 0 -746c0,-12 12,-24 24,-24l132 0c12,0 24,12 24,24l0 770 0 132 0 0 0 0 0 0 0 0 0 0 0 0 0 0 0 0 0 0 0 0 0 0 0 0 0 0 0 0 0 0 0 12 0 0 0 0 0 0 0 0 0 0 0 0 0 0 0 0 0 0 0 0 0 0 0 0 0 0 0 0 0 0 0 0 0 0 0 0 0 0 0 0 0 0 0 0 0 0 0 0 0 0 0 0 0 0 0 0 0 0 0 0 0 0 0 0 0 0 -12 0 0 0 0 0 0 0 0 0 0 0 0 12 0 0 0 0 0 0 0 0 0 0 0 0 0 0 0 0 0 0 0 0 0 0 0 0 0 0 0 0 0 0 0 0 0 0 0 0 0 0 0 0 0 0 -12 0 0 0 0 0 0 0 0 0 0 0 0 0 -132 0 -2080 0c-12,0 -24,-12 -24,-24l0 -132c0,-12 12,-24 24,-24l0 0z"/>
    <path fill="#2F3457" d="M2825 2272l169 0c12,0 24,-12 24,-24l0 -36c0,-12 -12,-36 -24,-36l-169 0c-24,0 -36,24 -36,36l0 36c0,12 12,24 36,24zm-24 -144l205 0c12,0 12,12 12,12l0 12c0,12 0,12 -12,12l-205 0c0,0 -12,0 -12,-12l0 -12c0,0 12,-12 12,-12z"/>
    <path fill="#2F3457" d="M3282 2272l169 0c24,0 36,-12 36,-24l0 -36c0,-12 -12,-36 -36,-36l-169 0c-12,0 -24,24 -24,36l0 36c0,12 12,24 24,24zm-12 -144l205 0c12,0 12,12 12,12l0 12c0,12 0,12 -12,12l-205 0c-12,0 -12,0 -12,-12l0 -12c0,0 0,-12 12,-12z"/>
    <path fill="#2F3457" d="M3787 2272l169 0c12,0 24,-12 24,-24l0 -36c0,-12 -12,-36 -24,-36l-169 0c-24,0 -36,24 -36,36l0 36c0,12 12,24 36,24zm-24 -144l205 0c12,0 12,12 12,12l0 12c0,12 0,12 -12,12l-205 0c-12,0 -12,0 -12,-12l0 -12c0,0 0,-12 12,-12z"/>
    <path fill="#2F3457" d="M4280 2272l169 0c12,0 24,-12 24,-24l0 -36c0,-12 -12,-36 -24,-36l-169 0c-24,0 -36,24 -36,36l0 36c0,12 12,24 36,24zm-24 -144l205 0c12,0 12,12 12,12l0 12c0,12 0,12 -12,12l-205 0c-12,0 -12,0 -12,-12l0 -12c0,0 0,-12 12,-12z"/>
    <path fill="#2F3457" d="M4641 1912l0 -169c0,-24 -24,-36 -36,-36l-36 0c-12,0 -24,12 -24,36l0 169c0,12 12,24 24,24l36 0c12,0 36,-12 36,-24zm-156 12l0 -205c0,0 12,-12 12,-12l24 0c0,0 12,12 12,12l0 205c0,12 -12,12 -12,12l-24 0c0,0 -12,0 -12,-12z"/>
    <polygon fill="#FFEADD" points="2693,1503 4292,1503 4292,1948 2693,1948 "/>
    <rect fill="#526A8F" width="109" height="2498"/>
    <g>
     <path fill="#9F86B6" d="M2849 1058l96 0c6,0 12,11 12,24l0 154c0,13 -6,24 -12,24l-96 0c-6,0 -12,-11 -12,-24l0 -154c0,-13 6,-24 12,-24z"/>
     <path fill="#9F86B6" d="M3006 1058l95 0c7,0 12,5 12,12l0 31c0,7 -5,12 -12,12l-95 0c-7,0 -12,-5 -12,-12l0 -31c0,-7 5,-12 12,-12z"/>
     <path fill="#9F86B6" d="M3006 1142l95 0c7,0 12,6 12,12l0 84c0,6 -5,12 -12,12l-95 0c-7,0 -12,-6 -12,-12l0 -84c0,-6 5,-12 12,-12z"/>
    </g>
    <rect fill="#EDD2CE" x="2849" y="1082" width="78.9604" height="56.2715"/>
   </g>
  </g>
 </g>
 <g id="Layer_x0020_1_0">
  <metadata id="CorelCorpID_1Corel-Layer"/>
  <rect fill="#454E82" x="449" y="1329" width="273" height="203"/>
  <path fill="white" fill-rule="nonzero" d="M608 1487l-14 0 0 -88c-3,3 -8,7 -13,10 -5,3 -10,5 -15,7l0 -14c8,-3 15,-7 21,-13 5,-5 9,-10 12,-15l9 0 0 113z"/>
  <rect fill="#454E82" x="449" y="1955" width="273" height="203"/>
  <path fill="white" fill-rule="nonzero" d="M539 2105l14 -2c1,8 4,13 8,17 3,3 8,5 14,5 6,0 12,-2 16,-7 4,-4 7,-10 7,-16 0,-7 -2,-12 -7,-16 -4,-4 -9,-6 -15,-6 -3,0 -6,0 -10,1l2 -12c0,0 1,0 2,0 6,0 11,-1 16,-4 4,-3 7,-8 7,-14 0,-5 -2,-9 -6,-13 -3,-3 -7,-5 -13,-5 -5,0 -10,2 -13,5 -4,4 -6,9 -7,16l-14 -3c2,-9 6,-16 12,-21 6,-5 13,-8 22,-8 6,0 12,1 17,4 5,3 9,6 12,11 2,4 4,9 4,14 0,5 -2,9 -4,13 -3,4 -7,7 -12,10 7,1 12,4 16,9 3,5 5,11 5,18 0,10 -3,18 -11,25 -7,7 -16,10 -27,10 -9,0 -18,-3 -24,-8 -7,-6 -10,-14 -11,-23z"/>
  <rect fill="#454E82" x="1656" y="1955" width="273" height="203"/>
  <path fill="white" fill-rule="nonzero" d="M1807 2114l0 -27 -48 0 0 -13 51 -72 11 0 0 72 15 0 0 13 -15 0 0 27 -14 0zm0 -40l0 -50 -35 50 35 0z"/>
  <rect fill="#454E82" x="1656" y="1317" width="273" height="203"/>
  <path fill="white" fill-rule="nonzero" d="M1835 1462l0 13 -74 0c0,-3 1,-6 2,-9 2,-5 5,-10 9,-15 4,-5 10,-11 18,-17 12,-10 20,-18 25,-24 4,-6 6,-11 6,-16 0,-6 -2,-10 -6,-14 -4,-4 -9,-6 -15,-6 -7,0 -12,2 -16,6 -4,4 -6,10 -6,17l-14 -2c1,-10 5,-18 11,-24 6,-5 15,-8 25,-8 11,0 20,3 26,9 6,6 9,13 9,22 0,4 -1,9 -3,13 -1,4 -4,9 -9,14 -4,5 -11,11 -21,19 -8,7 -13,12 -16,15 -2,2 -4,5 -6,7l55 0z"/>
  <rect fill="#454E82" x="3026" y="2264" width="273" height="203"/>
  <path fill="white" fill-rule="nonzero" d="M3133 2393l14 -2c1,7 4,13 8,16 3,4 8,6 14,6 6,0 12,-3 17,-8 4,-5 6,-12 6,-20 0,-8 -2,-14 -6,-18 -5,-5 -10,-7 -17,-7 -5,0 -9,1 -12,3 -4,2 -7,5 -9,8l-13 -2 11 -58 56 0 0 14 -45 0 -6 30c7,-5 14,-7 21,-7 10,0 18,3 25,10 6,7 10,15 10,26 0,10 -3,19 -9,26 -7,9 -17,14 -29,14 -10,0 -19,-3 -25,-9 -7,-5 -10,-13 -11,-22z"/>
  <rect fill="#454E82" x="3984" y="2264" width="273" height="203"/>
  <path fill="white" fill-rule="nonzero" d="M4163 2337l-14 2c-1,-6 -3,-10 -5,-12 -4,-4 -9,-6 -14,-6 -4,0 -8,1 -12,4 -4,3 -7,7 -10,13 -2,6 -4,15 -4,26 4,-5 8,-9 12,-11 5,-2 10,-4 15,-4 10,0 17,4 24,10 6,7 10,16 10,27 0,7 -2,13 -5,19 -3,6 -7,11 -13,14 -5,3 -11,5 -18,5 -11,0 -20,-4 -28,-13 -7,-8 -10,-22 -10,-41 0,-22 4,-38 12,-48 7,-8 16,-12 28,-12 9,0 16,2 22,7 5,5 9,12 10,20zm-57 49c0,4 1,9 3,13 2,5 5,8 9,10 3,2 7,4 11,4 6,0 11,-3 15,-7 4,-5 6,-12 6,-20 0,-7 -2,-13 -6,-18 -4,-4 -9,-7 -15,-7 -7,0 -12,3 -16,7 -4,5 -7,10 -7,18z"/>
 </g>
</svg>
