<?xml version="1.0" encoding="UTF-8"?>
<!DOCTYPE svg PUBLIC "-//W3C//DTD SVG 1.1//EN" "http://www.w3.org/Graphics/SVG/1.1/DTD/svg11.dtd">
<!-- Creator: CorelDRAW X8 -->
<svg xmlns="http://www.w3.org/2000/svg" xml:space="preserve" width="843px" height="430px" version="1.1" shape-rendering="geometricPrecision" text-rendering="geometricPrecision" image-rendering="optimizeQuality" fill-rule="evenodd" clip-rule="evenodd"
viewBox="0 0 1940 989"
 xmlns:xlink="http://www.w3.org/1999/xlink">
 <defs>
   <linearGradient id="id0" gradientUnits="userSpaceOnUse" x1="950.311" y1="6.22386" x2="950.313" y2="995.597">
    <stop offset="0" stop-opacity="1" stop-color="#262E57"/>
    <stop offset="1" stop-opacity="1" stop-color="#9274AB"/>
   </linearGradient>
   <mask id="id1">
     <linearGradient id="id2" gradientUnits="userSpaceOnUse" x1="1030.5" y1="598.876" x2="2074.64" y2="598.876">
      <stop offset="0" stop-opacity="1" stop-color="white"/>
      <stop offset="0.521569" stop-opacity="0.501961" stop-color="white"/>
      <stop offset="1" stop-opacity="0" stop-color="white"/>
     </linearGradient>
    <rect fill="url(#id2)" x="1664" y="388" width="149" height="581"/>
   </mask>
   <mask id="id3">
     <linearGradient id="id4" gradientUnits="userSpaceOnUse" x1="893.344" y1="598.876" x2="-150.792" y2="598.876">
      <stop offset="0" stop-opacity="1" stop-color="white"/>
      <stop offset="0.521569" stop-opacity="0.501961" stop-color="white"/>
      <stop offset="1" stop-opacity="0" stop-color="white"/>
     </linearGradient>
    <rect fill="url(#id4)" x="111" y="388" width="149" height="581"/>
   </mask>
   <mask id="id5">
     <linearGradient id="id6" gradientUnits="userSpaceOnUse" x1="319.73" y1="341.097" x2="319.733" y2="429.802">
      <stop offset="0" stop-opacity="1" stop-color="white"/>
      <stop offset="1" stop-opacity="0" stop-color="white"/>
     </linearGradient>
    <rect fill="url(#id6)" x="249" y="370" width="129.636" height="77.3296"/>
   </mask>
   <mask id="id7">
     <linearGradient id="id8" gradientUnits="userSpaceOnUse" x1="1628.19" y1="341.097" x2="1628.19" y2="429.802">
      <stop offset="0" stop-opacity="1" stop-color="white"/>
      <stop offset="1" stop-opacity="0" stop-color="white"/>
     </linearGradient>
    <rect fill="url(#id8)" x="1558" y="370" width="129.639" height="77.3296"/>
   </mask>
   <mask id="id9">
     <linearGradient id="id10" gradientUnits="userSpaceOnUse" x1="319.73" y1="1020.29" x2="319.733" y2="931.585">
      <stop offset="0" stop-opacity="1" stop-color="white"/>
      <stop offset="1" stop-opacity="0" stop-color="white"/>
     </linearGradient>
    <rect fill="url(#id10)" x="249" y="914" width="129.636" height="77.3296"/>
   </mask>
   <mask id="id11">
     <linearGradient id="id12" gradientUnits="userSpaceOnUse" x1="1628.19" y1="1020.29" x2="1628.19" y2="931.585">
      <stop offset="0" stop-opacity="1" stop-color="white"/>
      <stop offset="1" stop-opacity="0" stop-color="white"/>
     </linearGradient>
    <rect fill="url(#id12)" x="1558" y="914" width="129.639" height="77.3296"/>
   </mask>
 </defs>
 <g id="Layer_x0020_1">
  <metadata id="CorelCorpID_0Corel-Layer"/>
  <polygon fill="url(#id0)" points="72,989 0,989 0,314 0,0 1940,0 1940,314 1940,989 1868,989 "/>
  <polygon fill="#6582B0" points="394,0 1546,0 1546,989 394,989 "/>
  <polygon fill="#6582B0" points="72,372 1862,372 1862,989 72,989 "/>
  <rect fill="#53709F" x="447" y="24" width="1066" height="354"/>
  <path fill="#1A1A1A" d="M1293 0c0,2 0,5 0,7l0 209c0,25 -17,45 -38,45l-570 0c-21,0 -38,-20 -38,-45l0 -209c0,-2 0,-5 0,-7l38 0 0 154 570 0 0 -154 38 0z"/>
  <rect fill="#53709F" x="1427" y="439" width="388" height="495"/>
  <path fill="#262E57" mask="url(#id1)" d="M1740 390l0 0c-21,0 -38,17 -38,37l0 12c-11,5 -19,13 -20,22 -21,15 -22,33 2,40 -8,34 2,56 18,53l0 53c-11,4 -14,15 -6,30 -31,20 -37,44 -19,52 -9,16 1,29 25,29l0 72c-11,4 -14,15 -6,30 -31,20 -37,44 -19,52 -9,16 1,29 25,29l0 26c0,20 17,37 38,37l0 0c0,0 1,0 2,0 4,1 8,2 12,2l0 0c20,0 37,-17 37,-38l0 -38c3,-5 4,-12 5,-20 16,-2 19,-19 7,-37 -1,-11 -5,-20 -12,-26l0 -99c3,-6 4,-13 5,-21 16,-2 19,-19 7,-37 -1,-11 -5,-20 -12,-26l0 -74c5,-4 7,-12 6,-22 14,-6 15,-33 -4,-58 7,-8 5,-17 -2,-23l0 -18c0,-20 -17,-37 -37,-37l0 0c-1,0 -2,0 -3,0 -3,-1 -7,-2 -11,-2z"/>
  <rect fill="#53709F" x="109" y="439" width="388" height="495"/>
  <path fill="#262E57" mask="url(#id3)" d="M184 390l0 0c21,0 38,17 38,37l0 12c11,5 19,13 20,22 21,15 22,33 -2,40 8,34 -2,56 -18,53l0 53c11,4 14,15 6,30 30,20 37,44 19,52 9,16 -1,29 -25,29l0 72c11,4 14,15 6,30 30,20 37,44 19,52 9,16 -1,29 -25,29l0 26c0,20 -17,37 -38,37l0 0c-1,0 -1,0 -2,0 -4,1 -8,2 -12,2l0 0c-21,0 -37,-17 -37,-38l0 -38c-3,-5 -5,-12 -6,-20 -16,-2 -18,-19 -6,-37 1,-11 5,-20 12,-26l0 -99c-3,-6 -5,-13 -6,-21 -16,-2 -18,-19 -6,-37 1,-11 5,-20 12,-26l0 -74c-5,-4 -7,-12 -6,-22 -14,-6 -15,-33 4,-58 -7,-8 -5,-17 2,-23l0 -18c0,-20 16,-37 37,-37l0 0c1,0 2,0 2,0 4,-1 8,-2 12,-2z"/>
  <rect fill="#53709F" x="1718" y="391" width="74.8451" height="573.997" rx="37" ry="63"/>
  <rect fill="#745975" x="1740" y="391" width="74.8451" height="573.997" rx="37" ry="63"/>
  <path fill="#3EAA92" d="M1781 436c35,-11 70,24 43,44 27,67 -8,102 -43,43 -52,59 -87,24 -43,-43 -44,-20 -9,-55 43,-44z"/>
  <path fill="#64C7B2" d="M1729 460c8,-36 56,-48 59,-15 72,11 84,59 16,59 24,75 -24,88 -60,15 -39,29 -51,-20 -15,-59z"/>
  <path fill="#92D8C8" d="M1749 475c4,-22 33,-29 35,-10 43,7 51,36 10,36 14,45 -15,53 -36,9 -24,17 -31,-12 -9,-35z"/>
  <path fill="#3EAA92" d="M1740 623c17,-31 66,-30 60,2 65,31 63,80 -2,61 2,78 -47,76 -60,-2 -45,15 -44,-34 2,-61z"/>
  <path fill="#64C7B2" d="M1718 675c-18,-31 8,-72 32,-51 60,-40 101,-14 52,33 68,37 42,79 -33,51 -9,47 -51,20 -51,-33z"/>
  <path fill="#92D8C8" d="M1742 673c-11,-19 5,-44 20,-31 35,-24 60,-8 30,19 42,23 26,48 -19,31 -6,28 -31,12 -31,-19z"/>
  <path fill="#3EAA92" d="M1740 806c17,-31 66,-30 60,2 65,31 63,80 -2,61 2,78 -47,76 -60,-2 -45,15 -44,-34 2,-61z"/>
  <path fill="#64C7B2" d="M1718 858c-18,-31 8,-72 32,-51 60,-40 101,-14 52,33 68,37 42,79 -33,51 -9,47 -51,20 -51,-33z"/>
  <path fill="#92D8C8" d="M1742 856c-11,-19 5,-44 20,-31 35,-24 60,-8 30,19 42,23 26,48 -19,31 -6,28 -31,12 -31,-19z"/>
  <rect fill="#53709F" x="124" y="389" width="74.8451" height="573.997" rx="37" ry="63"/>
  <path fill="#2F3457" d="M717 271l66 0c7,0 13,5 13,12l0 13c0,7 -6,12 -13,12l-66 0c-7,0 -13,-5 -13,-12l0 -13c0,-7 6,-12 13,-12zm-8 58l81 0c3,0 6,-2 6,-5l0 -5c0,-3 -3,-5 -6,-5l-81 0c-3,0 -5,2 -5,5l0 5c0,3 2,5 5,5z"/>
  <path fill="#2F3457" d="M861 271l66 0c7,0 13,5 13,12l0 13c0,7 -6,12 -13,12l-66 0c-7,0 -13,-5 -13,-12l0 -13c0,-7 6,-12 13,-12zm-8 58l82 0c2,0 5,-2 5,-5l0 -5c0,-3 -3,-5 -5,-5l-82 0c-2,0 -5,2 -5,5l0 5c0,3 3,5 5,5z"/>
  <path fill="#2F3457" d="M1022 271l66 0c7,0 13,5 13,12l0 13c0,7 -6,12 -13,12l-66 0c-7,0 -13,-5 -13,-12l0 -13c0,-7 6,-12 13,-12zm-8 58l81 0c3,0 6,-2 6,-5l0 -5c0,-3 -3,-5 -6,-5l-81 0c-3,0 -5,2 -5,5l0 5c0,3 2,5 5,5z"/>
  <path fill="#2F3457" d="M1160 271l67 0c7,0 12,5 12,12l0 13c0,7 -5,12 -12,12l-67 0c-7,0 -12,-5 -12,-12l0 -13c0,-7 5,-12 12,-12zm-7 58l81 0c3,0 5,-2 5,-5l0 -5c0,-3 -2,-5 -5,-5l-81 0c-3,0 -5,2 -5,5l0 5c0,3 2,5 5,5z"/>
  <path fill="#454E82" d="M1280 0c1,2 1,5 1,7l0 196c0,23 -17,42 -37,42l-548 0c-20,0 -37,-19 -37,-42l0 -196c0,-2 0,-5 1,-7l36 0 0 145 548 0 0 -145 36 0z"/>
  <path fill="#282F58" d="M572 0l796 0 0 68c0,16 -12,28 -28,28l-740 0c-15,0 -28,-12 -28,-28l0 -68z"/>
  <rect fill="#745975" x="109" y="391" width="74.8451" height="573.997" rx="37" ry="63"/>
  <rect fill="#FFBF95" x="394" y="4" width="14.1931" height="372.014" rx="7" ry="41"/>
  <rect fill="#FFBF95" x="1532" y="4" width="14.1931" height="372.014" rx="7" ry="41"/>
  <path fill="#3EAA92" d="M167 436c34,-11 70,24 43,44 27,67 -9,102 -43,43 -52,59 -88,24 -43,-43 -45,-20 -9,-55 43,-44z"/>
  <path fill="#64C7B2" d="M115 460c8,-36 56,-48 59,-15 72,11 84,59 15,59 25,75 -23,88 -59,15 -39,29 -51,-20 -15,-59z"/>
  <path fill="#92D8C8" d="M134 475c5,-22 34,-29 36,-10 43,7 51,36 9,36 15,45 -14,53 -35,9 -24,17 -31,-12 -10,-35z"/>
  <path fill="#3EAA92" d="M125 623c18,-31 67,-30 61,2 65,31 63,80 -2,61 2,78 -47,76 -61,-2 -45,15 -43,-34 2,-61z"/>
  <path fill="#64C7B2" d="M104 675c-19,-31 8,-72 32,-51 60,-40 101,-14 51,33 69,37 43,79 -32,51 -9,47 -51,20 -51,-33z"/>
  <path fill="#92D8C8" d="M128 673c-11,-19 5,-44 19,-31 36,-24 61,-8 31,19 41,23 25,48 -20,31 -5,28 -30,12 -30,-19z"/>
  <path fill="#3EAA92" d="M125 806c18,-31 67,-30 61,2 65,31 63,80 -2,61 2,78 -47,76 -61,-2 -45,15 -43,-34 2,-61z"/>
  <path fill="#64C7B2" d="M104 858c-19,-31 8,-72 32,-51 60,-40 101,-14 51,33 69,37 43,79 -32,51 -9,47 -51,20 -51,-33z"/>
  <path fill="#92D8C8" d="M128 856c-11,-19 5,-44 19,-31 36,-24 61,-8 31,19 41,23 25,48 -20,31 -5,28 -30,12 -30,-19z"/>
  <path fill="#3EAA92" d="M1770 916c35,11 70,-24 43,-44 27,-67 -8,-102 -43,-43 -52,-59 -88,-24 -43,43 -45,20 -9,55 43,44z"/>
  <path fill="#64C7B2" d="M1718 892c8,36 56,48 59,15 72,-11 84,-59 16,-59 24,-75 -24,-88 -60,-15 -39,-29 -51,20 -15,59z"/>
  <path fill="#92D8C8" d="M1738 877c4,22 33,29 35,10 43,-7 51,-36 9,-36 15,-45 -14,-53 -35,-9 -24,-17 -31,12 -9,35z"/>
  <path fill="#3EAA92" d="M1729 729c17,31 66,30 60,-2 65,-31 63,-80 -2,-61 2,-78 -47,-76 -60,2 -45,-15 -44,34 2,61z"/>
  <path fill="#64C7B2" d="M1707 677c-18,31 8,72 32,51 60,40 101,14 51,-33 69,-37 43,-79 -32,-51 -9,-47 -51,-20 -51,33z"/>
  <path fill="#92D8C8" d="M1731 679c-11,19 5,44 19,31 36,24 61,8 31,-19 41,-23 26,-48 -19,-31 -6,-28 -31,-12 -31,19z"/>
  <path fill="#3EAA92" d="M1729 546c17,31 66,30 60,-2 65,-31 63,-80 -2,-61 2,-78 -47,-76 -60,3 -45,-16 -44,33 2,60z"/>
  <path fill="#64C7B2" d="M1707 494c-18,31 8,72 32,51 60,40 101,14 51,-33 69,-37 43,-79 -32,-51 -9,-47 -51,-20 -51,33z"/>
  <path fill="#92D8C8" d="M1731 496c-11,19 5,44 19,31 36,24 61,9 31,-19 41,-23 26,-48 -19,-31 -6,-28 -31,-12 -31,19z"/>
  <path fill="#1D203D" d="M572 0l796 0 0 28c0,6 -5,11 -11,11l-773 0c-7,0 -12,-5 -12,-11l0 -28z"/>
  <rect fill="#745975" x="426" y="17" width="58.5272" height="372.014" rx="29" ry="41"/>
  <rect fill="#53709F" x="1438" y="17" width="74.8451" height="372.014" rx="37" ry="41"/>
  <rect fill="#745975" x="1455" y="17" width="58.5272" height="372.014" rx="29" ry="41"/>
  <rect fill="#262E57" x="72" y="342" width="14.1931" height="647.579" rx="7" ry="71"/>
  <rect fill="#262E57" x="1848" y="342" width="14.1931" height="647.579" rx="7" ry="71"/>
  <path fill="#FAF8F9" d="M348 372c0,18 -15,33 -34,33 -18,0 -33,-15 -33,-33l67 0z"/>
  <path fill="#FAF8F9" mask="url(#id5)" d="M376 372c1,2 1,5 1,7 0,36 -28,66 -63,66 -34,0 -62,-30 -62,-66 0,-2 0,-5 0,-7l124 0z"/>
  <path fill="#FAF8F9" d="M1656 372c0,18 -15,33 -33,33 -19,0 -34,-15 -34,-33l67 0z"/>
  <path fill="#FAF8F9" mask="url(#id7)" d="M1685 372c0,2 0,5 0,7 0,36 -28,66 -62,66 -35,0 -63,-30 -63,-66 0,-2 0,-5 1,-7l124 0z"/>
  <path fill="#FAF8F9" d="M348 989c0,-18 -15,-33 -34,-33 -18,0 -33,15 -33,33l67 0z"/>
  <path fill="#FAF8F9" mask="url(#id9)" d="M376 989c1,-2 1,-4 1,-7 0,-36 -28,-65 -63,-65 -34,0 -62,29 -62,65 0,3 0,5 0,7l124 0z"/>
  <path fill="#FAF8F9" d="M1656 989c0,-18 -15,-33 -33,-33 -19,0 -34,15 -34,33l67 0z"/>
  <path fill="#FAF8F9" mask="url(#id11)" d="M1685 989c0,-2 0,-4 0,-7 0,-36 -28,-65 -62,-65 -35,0 -63,29 -63,65 0,3 0,5 1,7l124 0z"/>
 </g>
 <g id="Layer_x0020_1_0">
  <metadata id="CorelCorpID_1Corel-Layer"/>
  <path fill="#526A8F" d="M590 623l0 -143c0,-14 5,-29 15,-29l19 0c9,0 14,15 14,29l0 14 10 0 0 -28c0,-10 0,-15 4,-15l10 0c0,0 5,5 5,15l0 176c0,5 -5,9 -5,9l-10 0c-4,0 -4,-4 -4,-9l0 -33 -10 0 0 14c0,19 -5,28 -14,28l-19 0c-10,0 -15,-9 -15,-28l0 0zm-176 -172l129 0c19,0 33,19 33,39l0 123c0,24 -14,38 -33,38l-129 0c-19,0 -33,-14 -33,-38l0 -123c0,-20 14,-39 33,-39zm-105 134l10 0 0 -62 -10 0 0 62zm10 24l-10 0 0 33c0,5 0,9 -4,9l-10 0c0,0 -5,-4 -5,-9l0 -176c0,-10 5,-15 5,-15l10 0c4,0 4,5 4,15l0 28 10 0 0 -14c0,-14 5,-29 14,-29l19 0c10,0 15,15 15,29l0 148c0,14 -5,23 -15,23l-19 0c-9,0 -14,-9 -14,-23l0 -19zm329 -24l0 -62 -10 0 0 62 10 0z"/>
  <path fill="#59405A" d="M390 466l151 0c13,0 24,15 24,33l0 105c0,18 -11,33 -24,33l-151 0c-13,0 -23,-15 -23,-33l0 -105c0,-18 10,-33 23,-33z"/>
  <path fill="#745975" d="M400 475l129 0c13,0 24,13 24,29l0 95c0,16 -11,29 -24,29l-129 0c-13,0 -24,-13 -24,-29l0 -95c0,-16 11,-29 24,-29z"/>
  <path fill="#2F3457" d="M352 613l0 -123c0,-15 -4,-24 -14,-24l-19 0c-10,0 -14,9 -14,24l0 123c0,15 4,24 14,24l19 0c10,0 14,-9 14,-24zm-76 15l0 -153c0,-5 5,-9 5,-9l9 0c5,0 5,4 5,9l0 153c0,4 0,9 -5,9l-9 0c0,0 -5,-5 -5,-9z"/>
  <rect fill="#2F3457" x="290" y="504" width="25.8205" height="22.3809"/>
  <rect fill="#2F3457" x="290" y="580" width="25.8205" height="22.3809"/>
  <path fill="#2F3457" d="M576 613l0 -123c0,-15 5,-24 14,-24l20 0c9,0 14,9 14,24l0 123c0,15 -5,24 -14,24l-20 0c-9,0 -14,-9 -14,-24zm76 15l0 -153c0,-5 -4,-9 -4,-9l-10 0c-5,0 -5,4 -5,9l0 153c0,4 0,9 5,9l10 0c0,0 4,-5 4,-9z"/>
  <rect fill="#2F3457" x="614" y="504" width="25.8205" height="22.3809"/>
  <rect fill="#2F3457" x="614" y="575" width="25.8205" height="22.3809"/>
  <path fill="#526A8F" d="M590 880l0 -148c0,-14 5,-28 15,-28l19 0c9,0 14,14 14,28l0 15 10 0 0 -29c0,-9 0,-14 4,-14l10 0c0,0 5,5 5,14l0 176c0,5 -5,10 -5,10l-10 0c-4,0 -4,-5 -4,-10l0 -33 -10 0 0 19c0,14 -5,24 -14,24l-19 0c-10,0 -15,-10 -15,-24zm-176 -176l129 0c19,0 33,19 33,43l0 119c0,24 -14,38 -33,38l-129 0c-19,0 -33,-14 -33,-38l0 -119c0,-24 14,-43 33,-43zm-105 133l10 0 0 -62 -10 0 0 62zm10 24l-10 0 0 33c0,5 0,10 -4,10l-10 0c0,0 -5,-5 -5,-10l0 -176c0,-9 5,-14 5,-14l10 0c4,0 4,5 4,14l0 29 10 0 0 -15c0,-14 5,-28 14,-28l19 0c10,0 15,14 15,28l0 148c0,14 -5,24 -15,24l-19 0c-9,0 -14,-10 -14,-24l0 -19zm329 -24l0 -62 -10 0 0 62 10 0z"/>
  <path fill="#59405A" d="M390 718l151 0c13,0 24,15 24,34l0 104c0,19 -11,34 -24,34l-151 0c-13,0 -23,-15 -23,-34l0 -104c0,-19 10,-34 23,-34z"/>
  <path fill="#745975" d="M400 728l129 0c13,0 24,13 24,28l0 96c0,16 -11,28 -24,28l-129 0c-13,0 -24,-12 -24,-28l0 -96c0,-15 11,-28 24,-28z"/>
  <path fill="#2F3457" d="M352 866l0 -124c0,-14 -4,-24 -14,-24l-19 0c-10,0 -14,10 -14,24l0 124c0,14 4,24 14,24l19 0c10,0 14,-10 14,-24zm-76 14l0 -152c0,-5 5,-10 5,-10l9 0c5,0 5,5 5,10l0 152c0,5 0,10 -5,10l-9 0c0,0 -5,-5 -5,-10z"/>
  <rect fill="#2F3457" x="290" y="756" width="25.8205" height="22.3809"/>
  <rect fill="#2F3457" x="290" y="833" width="25.8205" height="22.3809"/>
  <path fill="#2F3457" d="M576 866l0 -124c0,-14 5,-24 14,-24l20 0c9,0 14,10 14,24l0 124c0,14 -5,24 -14,24l-20 0c-9,0 -14,-10 -14,-24zm76 14l0 -152c0,-5 -4,-10 -4,-10l-10 0c-5,0 -5,5 -5,10l0 152c0,5 0,10 5,10l10 0c0,0 4,-5 4,-10z"/>
  <rect fill="#2F3457" x="614" y="756" width="25.8205" height="22.3809"/>
  <rect fill="#2F3457" x="614" y="833" width="25.8205" height="22.3809"/>
  <path fill="#526A8F" d="M1072 623l0 -143c0,-14 9,-29 19,-29l14 0c10,0 19,15 19,29l0 14 5 0 0 -28c0,-10 5,-15 9,-15l5 0c5,0 5,5 5,15l0 176c0,5 0,9 -5,9l-5 0c-4,0 -9,-4 -9,-9l0 -33 -5 0 0 14c0,19 -9,28 -19,28l-14 0c-10,0 -19,-9 -19,-28l0 0zm-177 -172l134 0c19,0 33,19 33,39l0 123c0,24 -14,38 -33,38l-134 0c-19,0 -33,-14 -33,-38l0 -123c0,-20 14,-39 33,-39zm-100 134l5 0 0 -62 -5 0 0 62zm5 24l-5 0 0 33c0,5 -4,9 -9,9l-5 0c-5,0 -5,-4 -5,-9l0 -176c0,-10 0,-15 5,-15l5 0c5,0 9,5 9,15l0 28 5 0 0 -14c0,-14 10,-29 19,-29l14 0c10,0 20,15 20,29l0 148c0,14 -10,23 -20,23l-14 0c-9,0 -19,-9 -19,-23l0 -19zm329 -24l0 -62 -5 0 0 62 5 0z"/>
  <path fill="#59405A" d="M872 466l150 0c14,0 24,15 24,33l0 105c0,18 -10,33 -24,33l-150 0c-14,0 -24,-15 -24,-33l0 -105c0,-18 10,-33 24,-33z"/>
  <path fill="#745975" d="M881 475l129 0c14,0 24,13 24,29l0 95c0,16 -10,29 -24,29l-129 0c-13,0 -24,-13 -24,-29l0 -95c0,-16 11,-29 24,-29z"/>
  <path fill="#2F3457" d="M838 613l0 -123c0,-15 -9,-24 -19,-24l-14 0c-10,0 -19,9 -19,24l0 123c0,15 9,24 19,24l14 0c10,0 19,-9 19,-24zm-81 15l0 -153c0,-5 5,-9 10,-9l5 0c4,0 9,4 9,9l0 153c0,4 -5,9 -9,9l-5 0c-5,0 -10,-5 -10,-9z"/>
  <rect fill="#2F3457" x="772" y="504" width="25.8205" height="22.3809"/>
  <rect fill="#2F3457" x="772" y="580" width="25.8205" height="22.3809"/>
  <path fill="#2F3457" d="M1057 613l0 -123c0,-15 10,-24 19,-24l15 0c9,0 19,9 19,24l0 123c0,15 -10,24 -19,24l-15 0c-9,0 -19,-9 -19,-24zm77 15l0 -153c0,-5 0,-9 -5,-9l-5 0c-5,0 -9,4 -9,9l0 153c0,4 4,9 9,9l5 0c5,0 5,-5 5,-9z"/>
  <rect fill="#2F3457" x="1095" y="504" width="25.8205" height="22.3809"/>
  <rect fill="#2F3457" x="1095" y="575" width="25.8205" height="22.3809"/>
  <path fill="#526A8F" d="M1072 880l0 -148c0,-14 9,-28 19,-28l14 0c10,0 19,14 19,28l0 15 5 0 0 -29c0,-9 5,-14 9,-14l5 0c5,0 5,5 5,14l0 176c0,5 0,10 -5,10l-5 0c-4,0 -9,-5 -9,-10l0 -33 -5 0 0 19c0,14 -9,24 -19,24l-14 0c-10,0 -19,-10 -19,-24zm-177 -176l134 0c19,0 33,19 33,43l0 119c0,24 -14,38 -33,38l-134 0c-19,0 -33,-14 -33,-38l0 -119c0,-24 14,-43 33,-43zm-100 133l5 0 0 -62 -5 0 0 62zm5 24l-5 0 0 33c0,5 -4,10 -9,10l-5 0c-5,0 -5,-5 -5,-10l0 -176c0,-9 0,-14 5,-14l5 0c5,0 9,5 9,14l0 29 5 0 0 -15c0,-14 10,-28 19,-28l14 0c10,0 20,14 20,28l0 148c0,14 -10,24 -20,24l-14 0c-9,0 -19,-10 -19,-24l0 -19zm329 -24l0 -62 -5 0 0 62 5 0z"/>
  <path fill="#59405A" d="M872 718l150 0c14,0 24,15 24,34l0 104c0,19 -10,34 -24,34l-150 0c-14,0 -24,-15 -24,-34l0 -104c0,-19 10,-34 24,-34z"/>
  <path fill="#745975" d="M881 728l129 0c14,0 24,13 24,28l0 96c0,16 -10,28 -24,28l-129 0c-13,0 -24,-12 -24,-28l0 -96c0,-15 11,-28 24,-28z"/>
  <path fill="#2F3457" d="M838 866l0 -124c0,-14 -9,-24 -19,-24l-14 0c-10,0 -19,10 -19,24l0 124c0,14 9,24 19,24l14 0c10,0 19,-10 19,-24zm-81 14l0 -152c0,-5 5,-10 10,-10l5 0c4,0 9,5 9,10l0 152c0,5 -5,10 -9,10l-5 0c-5,0 -10,-5 -10,-10z"/>
  <rect fill="#2F3457" x="772" y="756" width="25.8205" height="22.3809"/>
  <rect fill="#2F3457" x="772" y="833" width="25.8205" height="22.3809"/>
  <path fill="#2F3457" d="M1057 866l0 -124c0,-14 10,-24 19,-24l15 0c9,0 19,10 19,24l0 124c0,14 -10,24 -19,24l-15 0c-9,0 -19,-10 -19,-24zm77 14l0 -152c0,-5 0,-10 -5,-10l-5 0c-5,0 -9,5 -9,10l0 152c0,5 4,10 9,10l5 0c5,0 5,-5 5,-10z"/>
  <rect fill="#2F3457" x="1095" y="756" width="25.8205" height="22.3809"/>
  <rect fill="#2F3457" x="1095" y="833" width="25.8205" height="22.3809"/>
  <rect fill="#454E82" x="411" y="511" width="108.105" height="80.5054"/>
  <path fill="white" fill-rule="nonzero" d="M474 574l-5 0 0 -35c-2,1 -3,2 -6,4 -2,1 -4,2 -5,2l0 -5c3,-1 5,-3 8,-5 2,-2 4,-4 4,-6l4 0 0 45z"/>
  <rect fill="#454E82" x="411" y="759" width="108.105" height="80.5054"/>
  <path fill="white" fill-rule="nonzero" d="M468 821l0 -10 -19 0 0 -5 20 -29 5 0 0 29 6 0 0 5 -6 0 0 10 -6 0zm0 -15l0 -20 -14 20 14 0z"/>
  <rect fill="#454E82" x="890" y="759" width="108.105" height="80.5054"/>
  <path fill="white" fill-rule="nonzero" d="M932 810l6 0c0,3 1,5 3,6 1,2 3,2 5,2 3,0 5,-1 7,-3 2,-2 2,-4 2,-8 0,-3 0,-5 -2,-7 -2,-2 -4,-3 -7,-3 -2,0 -3,1 -5,2 -1,0 -2,1 -3,3l-5 -1 4 -23 22 0 0 5 -18 0 -2 12c3,-1 6,-2 8,-2 4,0 8,1 10,4 3,2 4,6 4,10 0,4 -1,7 -3,10 -3,4 -7,6 -12,6 -4,0 -7,-1 -10,-4 -2,-2 -4,-5 -4,-9z"/>
  <rect fill="#454E82" x="890" y="506" width="108.105" height="80.5054"/>
  <path fill="white" fill-rule="nonzero" d="M960 564l0 5 -29 0c0,-1 0,-3 1,-4 0,-2 2,-4 3,-6 2,-2 4,-4 7,-6 5,-4 9,-7 10,-10 2,-2 3,-4 3,-6 0,-2 -1,-4 -3,-6 -1,-1 -3,-2 -6,-2 -2,0 -4,1 -6,2 -1,2 -2,4 -2,7l-6 -1c1,-4 2,-7 4,-9 3,-2 6,-3 11,-3 4,0 7,1 10,3 2,2 3,5 3,9 0,2 0,3 -1,5 0,2 -2,4 -3,5 -2,2 -5,5 -9,8 -3,3 -5,5 -6,6 -1,1 -2,2 -2,3l21 0z"/>
  <path fill="#526A8F" d="M1555 623l0 -143c0,-14 9,-29 19,-29l14 0c10,0 19,15 19,29l0 14 5 0 0 -28c0,-10 5,-15 9,-15l5 0c5,0 5,5 5,15l0 176c0,5 0,9 -5,9l-5 0c-4,0 -9,-4 -9,-9l0 -33 -5 0 0 14c0,19 -9,28 -19,28l-14 0c-10,0 -19,-9 -19,-28l0 0zm-177 -172l134 0c19,0 33,19 33,39l0 123c0,24 -14,38 -33,38l-134 0c-19,0 -33,-14 -33,-38l0 -123c0,-20 14,-39 33,-39zm-100 134l5 0 0 -62 -5 0 0 62zm5 24l-5 0 0 33c0,5 -4,9 -9,9l-5 0c-5,0 -5,-4 -5,-9l0 -176c0,-10 0,-15 5,-15l5 0c5,0 9,5 9,15l0 28 5 0 0 -14c0,-14 10,-29 19,-29l14 0c10,0 20,15 20,29l0 148c0,14 -10,23 -20,23l-14 0c-9,0 -19,-9 -19,-23l0 -19zm329 -24l0 -62 -5 0 0 62 5 0z"/>
  <path fill="#59405A" d="M1355 466l150 0c14,0 24,15 24,33l0 105c0,18 -10,33 -24,33l-150 0c-14,0 -24,-15 -24,-33l0 -105c0,-18 10,-33 24,-33z"/>
  <path fill="#745975" d="M1364 475l129 0c14,0 24,13 24,29l0 95c0,16 -10,29 -24,29l-129 0c-13,0 -24,-13 -24,-29l0 -95c0,-16 11,-29 24,-29z"/>
  <path fill="#2F3457" d="M1321 613l0 -123c0,-15 -9,-24 -19,-24l-14 0c-10,0 -19,9 -19,24l0 123c0,15 9,24 19,24l14 0c10,0 19,-9 19,-24zm-81 15l0 -153c0,-5 5,-9 10,-9l5 0c4,0 9,4 9,9l0 153c0,4 -5,9 -9,9l-5 0c-5,0 -10,-5 -10,-9z"/>
  <rect fill="#2F3457" x="1255" y="504" width="25.8205" height="22.3809"/>
  <rect fill="#2F3457" x="1255" y="580" width="25.8205" height="22.3809"/>
  <path fill="#2F3457" d="M1540 613l0 -123c0,-15 10,-24 19,-24l15 0c9,0 19,9 19,24l0 123c0,15 -10,24 -19,24l-15 0c-9,0 -19,-9 -19,-24zm77 15l0 -153c0,-5 0,-9 -5,-9l-5 0c-5,0 -9,4 -9,9l0 153c0,4 4,9 9,9l5 0c5,0 5,-5 5,-9z"/>
  <rect fill="#2F3457" x="1579" y="504" width="25.8205" height="22.3809"/>
  <rect fill="#2F3457" x="1579" y="575" width="25.8205" height="22.3809"/>
  <path fill="#526A8F" d="M1555 880l0 -148c0,-14 9,-28 19,-28l14 0c10,0 19,14 19,28l0 15 5 0 0 -29c0,-9 5,-14 9,-14l5 0c5,0 5,5 5,14l0 176c0,5 0,10 -5,10l-5 0c-4,0 -9,-5 -9,-10l0 -33 -5 0 0 19c0,14 -9,24 -19,24l-14 0c-10,0 -19,-10 -19,-24zm-177 -176l134 0c19,0 33,19 33,43l0 119c0,24 -14,38 -33,38l-134 0c-19,0 -33,-14 -33,-38l0 -119c0,-24 14,-43 33,-43zm-100 133l5 0 0 -62 -5 0 0 62zm5 24l-5 0 0 33c0,5 -4,10 -9,10l-5 0c-5,0 -5,-5 -5,-10l0 -176c0,-9 0,-14 5,-14l5 0c5,0 9,5 9,14l0 29 5 0 0 -15c0,-14 10,-28 19,-28l14 0c10,0 20,14 20,28l0 148c0,14 -10,24 -20,24l-14 0c-9,0 -19,-10 -19,-24l0 -19zm329 -24l0 -62 -5 0 0 62 5 0z"/>
  <path fill="#59405A" d="M1355 718l150 0c14,0 24,15 24,34l0 104c0,19 -10,34 -24,34l-150 0c-14,0 -24,-15 -24,-34l0 -104c0,-19 10,-34 24,-34z"/>
  <path fill="#745975" d="M1364 728l129 0c14,0 24,13 24,28l0 96c0,16 -10,28 -24,28l-129 0c-13,0 -24,-12 -24,-28l0 -96c0,-15 11,-28 24,-28z"/>
  <path fill="#2F3457" d="M1321 866l0 -124c0,-14 -9,-24 -19,-24l-14 0c-10,0 -19,10 -19,24l0 124c0,14 9,24 19,24l14 0c10,0 19,-10 19,-24zm-81 14l0 -152c0,-5 5,-10 10,-10l5 0c4,0 9,5 9,10l0 152c0,5 -5,10 -9,10l-5 0c-5,0 -10,-5 -10,-10z"/>
  <rect fill="#2F3457" x="1255" y="756" width="25.8205" height="22.3809"/>
  <rect fill="#2F3457" x="1255" y="833" width="25.8205" height="22.3809"/>
  <path fill="#2F3457" d="M1540 866l0 -124c0,-14 10,-24 19,-24l15 0c9,0 19,10 19,24l0 124c0,14 -10,24 -19,24l-15 0c-9,0 -19,-10 -19,-24zm77 14l0 -152c0,-5 0,-10 -5,-10l-5 0c-5,0 -9,5 -9,10l0 152c0,5 4,10 9,10l5 0c5,0 5,-5 5,-10z"/>
  <rect fill="#2F3457" x="1579" y="756" width="25.8205" height="22.3809"/>
  <rect fill="#2F3457" x="1579" y="833" width="25.8205" height="22.3809"/>
  <rect fill="#454E82" x="1373" y="759" width="108.105" height="80.5054"/>
  <path fill="white" fill-rule="nonzero" d="M1443 788l-5 1c-1,-2 -1,-4 -2,-5 -2,-1 -4,-2 -6,-2 -1,0 -3,0 -4,1 -2,2 -3,3 -4,6 -1,2 -2,6 -2,10 1,-2 3,-3 5,-4 2,-1 4,-2 6,-2 3,0 7,2 9,4 3,3 4,6 4,11 0,2 -1,5 -2,7 -1,3 -3,5 -5,6 -2,1 -4,2 -7,2 -4,0 -8,-2 -11,-5 -3,-4 -4,-9 -4,-17 0,-8 1,-15 4,-18 3,-4 7,-6 12,-6 3,0 6,1 8,3 2,2 4,5 4,8zm-22 20c0,1 0,3 1,5 1,2 2,3 3,4 2,1 3,1 5,1 2,0 4,-1 6,-3 2,-1 2,-4 2,-7 0,-3 0,-6 -2,-7 -2,-2 -4,-3 -6,-3 -3,0 -5,1 -7,3 -1,1 -2,4 -2,7z"/>
  <rect fill="#454E82" x="1373" y="506" width="108.105" height="80.5054"/>
  <path fill="white" fill-rule="nonzero" d="M1415 557l5 0c1,3 2,5 4,6 1,2 3,2 5,2 3,0 5,-1 7,-2 1,-2 2,-4 2,-7 0,-3 -1,-5 -2,-6 -2,-2 -4,-3 -6,-3 -2,0 -3,1 -4,1l0 -5c1,0 1,0 1,0 2,0 5,0 6,-2 2,-1 3,-3 3,-5 0,-2 0,-4 -2,-5 -1,-1 -3,-2 -5,-2 -2,0 -4,1 -5,2 -2,1 -3,3 -3,6l-6 -1c1,-4 3,-6 5,-8 2,-2 5,-3 9,-3 2,0 4,0 6,1 3,1 4,3 5,4 1,2 2,4 2,6 0,2 -1,4 -2,5 -1,2 -2,3 -4,4 2,1 4,2 6,4 1,2 2,4 2,7 0,4 -1,7 -4,10 -3,2 -7,4 -11,4 -4,0 -7,-1 -10,-4 -2,-2 -4,-5 -4,-9z"/>
 </g>
</svg>
