<?xml version="1.0" encoding="UTF-8"?>
<!DOCTYPE svg PUBLIC "-//W3C//DTD SVG 1.1//EN" "http://www.w3.org/Graphics/SVG/1.1/DTD/svg11.dtd">
<!-- Creator: CorelDRAW X8 -->
<svg xmlns="http://www.w3.org/2000/svg" xml:space="preserve" width="843px" height="430px" version="1.1" shape-rendering="geometricPrecision" text-rendering="geometricPrecision" image-rendering="optimizeQuality" fill-rule="evenodd" clip-rule="evenodd"
viewBox="0 0 406 207"
 xmlns:xlink="http://www.w3.org/1999/xlink">
 <defs>
   <linearGradient id="id0" gradientUnits="userSpaceOnUse" x1="198.907" y1="1.3027" x2="198.907" y2="208.386">
    <stop offset="0" stop-opacity="1" stop-color="#262E57"/>
    <stop offset="1" stop-opacity="1" stop-color="#9274AB"/>
   </linearGradient>
   <mask id="id1">
     <linearGradient id="id2" gradientUnits="userSpaceOnUse" x1="215.692" y1="125.349" x2="434.237" y2="125.349">
      <stop offset="0" stop-opacity="1" stop-color="white"/>
      <stop offset="0.521569" stop-opacity="-95.8784" stop-color="white"/>
      <stop offset="1" stop-opacity="0" stop-color="white"/>
     </linearGradient>
    <rect fill="url(#id2)" x="348" y="81" width="31.2193" height="121.531"/>
   </mask>
   <mask id="id3">
     <linearGradient id="id4" gradientUnits="userSpaceOnUse" x1="186.983" y1="125.349" x2="-31.5618" y2="125.349">
      <stop offset="0" stop-opacity="1" stop-color="white"/>
      <stop offset="0.521569" stop-opacity="-95.8784" stop-color="white"/>
      <stop offset="1" stop-opacity="0" stop-color="white"/>
     </linearGradient>
    <rect fill="url(#id4)" x="23" y="81" width="31.2193" height="121.531"/>
   </mask>
   <mask id="id5">
     <linearGradient id="id6" gradientUnits="userSpaceOnUse" x1="66.9219" y1="71.3941" x2="66.9224" y2="89.9607">
      <stop offset="0" stop-opacity="1" stop-color="white"/>
      <stop offset="1" stop-opacity="0" stop-color="white"/>
     </linearGradient>
    <rect fill="url(#id6)" x="52" y="77" width="27.1338" height="16.1856"/>
   </mask>
   <mask id="id7">
     <linearGradient id="id8" gradientUnits="userSpaceOnUse" x1="340.791" y1="71.3941" x2="340.792" y2="89.9607">
      <stop offset="0" stop-opacity="1" stop-color="white"/>
      <stop offset="1" stop-opacity="0" stop-color="white"/>
     </linearGradient>
    <rect fill="url(#id8)" x="326" y="77" width="27.1343" height="16.1856"/>
   </mask>
   <mask id="id9">
     <linearGradient id="id10" gradientUnits="userSpaceOnUse" x1="66.9219" y1="213.554" x2="66.9224" y2="194.988">
      <stop offset="0" stop-opacity="1" stop-color="white"/>
      <stop offset="1" stop-opacity="0" stop-color="white"/>
     </linearGradient>
    <rect fill="url(#id10)" x="52" y="191" width="27.1338" height="16.1856"/>
   </mask>
   <mask id="id11">
     <linearGradient id="id12" gradientUnits="userSpaceOnUse" x1="340.791" y1="213.554" x2="340.792" y2="194.988">
      <stop offset="0" stop-opacity="1" stop-color="white"/>
      <stop offset="1" stop-opacity="0" stop-color="white"/>
     </linearGradient>
    <rect fill="url(#id12)" x="326" y="191" width="27.1343" height="16.1856"/>
   </mask>
 </defs>
 <g id="Layer_x0020_1">
  <metadata id="CorelCorpID_0Corel-Layer"/>
  <polygon fill="url(#id0)" points="15,207 0,207 0,66 0,0 406,0 406,66 406,207 391,207 "/>
  <polygon fill="#6582B0" points="82,0 324,0 324,207 82,207 "/>
  <polygon fill="#6582B0" points="15,78 390,78 390,207 15,207 "/>
  <rect fill="#53709F" x="93" y="5" width="223.22" height="74.0669"/>
  <path fill="#1A1A1A" d="M271 0c0,0 0,1 0,2l0 43c0,5 -4,10 -8,10l-120 0c-4,0 -8,-5 -8,-10l0 -43c0,-1 0,-2 0,-2l8 0 0 32 120 0 0 -32 8 0z"/>
  <rect fill="#53709F" x="299" y="92" width="81.1437" height="103.542"/>
  <path fill="#262E57" mask="url(#id1)" d="M364 82l0 0c-4,0 -8,3 -8,7l0 3c-2,1 -4,3 -4,5 -4,3 -5,6 0,8 -1,7 1,11 4,11l0 11c-2,1 -3,3 -1,6 -6,5 -8,10 -4,11 -2,4 0,6 5,6l0 15c-2,1 -3,3 -1,7 -6,4 -8,9 -4,10 -2,4 0,7 5,7l0 5c0,4 4,8 8,8l0 0c0,0 0,0 1,0 0,0 1,0 2,0l0 0c4,0 8,-3 8,-8l0 -8c0,-1 1,-2 1,-4 3,0 4,-4 1,-8 0,-2 -1,-4 -2,-5l0 -21c0,-1 1,-3 1,-4 3,-1 4,-4 1,-8 0,-2 -1,-4 -2,-5l0 -16c1,-1 1,-2 1,-5 3,-1 3,-6 -1,-12 2,-1 1,-3 0,-4l0 -4c0,-4 -4,-8 -8,-8l0 0c0,0 0,0 0,0 -1,0 -2,0 -3,0z"/>
  <rect fill="#53709F" x="23" y="92" width="81.1437" height="103.542"/>
  <path fill="#262E57" mask="url(#id3)" d="M39 82l0 0c4,0 7,3 7,7l0 3c3,1 4,3 5,5 4,3 4,6 -1,8 2,7 0,11 -4,11l0 11c3,1 3,3 2,6 6,5 7,10 4,11 2,4 -1,6 -6,6l0 15c3,1 3,3 2,7 6,4 7,9 4,10 2,4 -1,7 -6,7l0 5c0,4 -3,8 -7,8l0 0c-1,0 -1,0 -1,0 -1,0 -2,0 -2,0l0 0c-5,0 -8,-3 -8,-8l0 -8c-1,-1 -1,-2 -1,-4 -4,0 -4,-4 -2,-8 0,-2 1,-4 3,-5l0 -21c-1,-1 -1,-3 -1,-4 -4,-1 -4,-4 -2,-8 0,-2 1,-4 3,-5l0 -16c-1,-1 -2,-2 -1,-5 -3,-1 -4,-6 0,-12 -1,-1 -1,-3 1,-4l0 -4c0,-4 3,-8 8,-8l0 0c0,0 0,0 0,0 1,0 2,0 3,0z"/>
  <rect fill="#53709F" x="360" y="82" width="15.6656" height="120.142" rx="8" ry="13"/>
  <rect fill="#745975" x="364" y="82" width="15.6656" height="120.142" rx="8" ry="13"/>
  <path fill="#3EAA92" d="M373 91c7,-2 14,5 9,9 5,15 -2,22 -9,9 -11,13 -19,6 -9,-9 -10,-4 -2,-11 9,-9z"/>
  <path fill="#64C7B2" d="M362 96c2,-7 12,-10 12,-3 15,2 18,13 4,12 5,16 -5,19 -13,4 -8,6 -11,-4 -3,-13z"/>
  <path fill="#92D8C8" d="M366 99c1,-4 7,-6 7,-2 9,2 11,8 2,8 4,9 -3,11 -7,2 -5,3 -7,-3 -2,-8z"/>
  <path fill="#3EAA92" d="M364 130c4,-6 14,-6 13,1 13,6 13,17 -1,13 1,16 -9,16 -12,-1 -10,3 -9,-7 0,-13z"/>
  <path fill="#64C7B2" d="M360 141c-4,-6 1,-15 6,-10 13,-9 22,-3 11,6 14,8 9,17 -7,11 -2,10 -10,4 -10,-7z"/>
  <path fill="#92D8C8" d="M365 141c-3,-4 1,-9 4,-7 7,-5 12,-1 6,4 9,5 5,10 -4,7 -1,6 -6,2 -6,-4z"/>
  <path fill="#3EAA92" d="M364 169c4,-7 14,-7 13,0 13,7 13,17 -1,13 1,16 -9,16 -12,-1 -10,4 -9,-7 0,-12z"/>
  <path fill="#64C7B2" d="M360 180c-4,-7 1,-16 6,-11 13,-8 22,-3 11,7 14,8 9,16 -7,10 -2,10 -10,5 -10,-6z"/>
  <path fill="#92D8C8" d="M365 179c-3,-4 1,-9 4,-6 7,-5 12,-2 6,4 9,4 5,10 -4,6 -1,6 -6,3 -6,-4z"/>
  <rect fill="#53709F" x="26" y="81" width="15.6656" height="120.142" rx="8" ry="13"/>
  <path fill="#2F3457" d="M150 57l14 0c1,0 3,1 3,2l0 3c0,1 -2,3 -3,3l-14 0c-1,0 -3,-2 -3,-3l0 -3c0,-1 2,-2 3,-2zm-2 12l17 0c1,0 2,-1 2,-1l0 -1c0,-1 -1,-1 -2,-1l-17 0c0,0 -1,0 -1,1l0 1c0,0 1,1 1,1z"/>
  <path fill="#2F3457" d="M180 57l14 0c2,0 3,1 3,2l0 3c0,1 -1,3 -3,3l-14 0c-1,0 -2,-2 -2,-3l0 -3c0,-1 1,-2 2,-2zm-1 12l17 0c0,0 1,-1 1,-1l0 -1c0,-1 -1,-1 -1,-1l-17 0c-1,0 -1,0 -1,1l0 1c0,0 0,1 1,1z"/>
  <path fill="#2F3457" d="M214 57l14 0c1,0 2,1 2,2l0 3c0,1 -1,3 -2,3l-14 0c-2,0 -3,-2 -3,-3l0 -3c0,-1 1,-2 3,-2zm-2 12l17 0c1,0 1,-1 1,-1l0 -1c0,-1 0,-1 -1,-1l-17 0c0,0 -1,0 -1,1l0 1c0,0 1,1 1,1z"/>
  <path fill="#2F3457" d="M243 57l14 0c1,0 2,1 2,2l0 3c0,1 -1,3 -2,3l-14 0c-2,0 -3,-2 -3,-3l0 -3c0,-1 1,-2 3,-2zm-2 12l17 0c1,0 1,-1 1,-1l0 -1c0,-1 0,-1 -1,-1l-17 0c0,0 -1,0 -1,1l0 1c0,0 1,1 1,1z"/>
  <path fill="#454E82" d="M268 0c0,0 0,1 0,1l0 41c0,5 -3,9 -8,9l-114 0c-5,0 -8,-4 -8,-9l0 -41c0,0 0,-1 0,-1l8 0 0 30 114 0 0 -30 8 0z"/>
  <path fill="#282F58" d="M120 0l166 0 0 14c0,4 -2,6 -5,6l-155 0c-4,0 -6,-2 -6,-6l0 -14z"/>
  <rect fill="#745975" x="23" y="82" width="15.6656" height="120.142" rx="8" ry="13"/>
  <rect fill="#FFBF95" x="82" y="1" width="2.97071" height="77.8653" rx="1" ry="9"/>
  <rect fill="#FFBF95" x="321" y="1" width="2.97071" height="77.8653" rx="1" ry="9"/>
  <path fill="#3EAA92" d="M35 91c7,-2 15,5 9,9 6,15 -2,22 -9,9 -11,13 -18,6 -9,-9 -9,-4 -2,-11 9,-9z"/>
  <path fill="#64C7B2" d="M24 96c2,-7 12,-10 12,-3 15,2 18,13 4,12 5,16 -5,19 -13,4 -8,6 -11,-4 -3,-13z"/>
  <path fill="#92D8C8" d="M28 99c1,-4 7,-6 8,-2 9,2 10,8 2,8 3,9 -3,11 -8,2 -5,3 -6,-3 -2,-8z"/>
  <path fill="#3EAA92" d="M26 130c4,-6 14,-6 13,1 13,6 13,17 -1,13 1,16 -9,16 -12,-1 -10,3 -9,-7 0,-13z"/>
  <path fill="#64C7B2" d="M22 141c-4,-6 1,-15 6,-10 13,-9 22,-3 11,6 15,8 9,17 -7,11 -1,10 -10,4 -10,-7z"/>
  <path fill="#92D8C8" d="M27 141c-3,-4 1,-9 4,-7 7,-5 13,-1 6,4 9,5 6,10 -4,7 -1,6 -6,2 -6,-4z"/>
  <path fill="#3EAA92" d="M26 169c4,-7 14,-7 13,0 13,7 13,17 -1,13 1,16 -9,16 -12,-1 -10,4 -9,-7 0,-12z"/>
  <path fill="#64C7B2" d="M22 180c-4,-7 1,-16 6,-11 13,-8 22,-3 11,7 15,8 9,16 -7,10 -1,10 -10,5 -10,-6z"/>
  <path fill="#92D8C8" d="M27 179c-3,-4 1,-9 4,-6 7,-5 13,-2 6,4 9,4 6,10 -4,6 -1,6 -6,3 -6,-4z"/>
  <path fill="#3EAA92" d="M370 192c8,2 15,-5 10,-9 5,-15 -2,-22 -10,-9 -10,-13 -18,-6 -9,9 -9,4 -1,11 9,9z"/>
  <path fill="#64C7B2" d="M360 187c1,7 11,10 12,3 15,-2 18,-13 3,-12 5,-16 -5,-19 -12,-4 -8,-6 -11,4 -3,13z"/>
  <path fill="#92D8C8" d="M364 184c1,4 7,6 7,2 9,-2 11,-8 2,-8 3,-9 -3,-11 -7,-2 -5,-3 -7,3 -2,8z"/>
  <path fill="#3EAA92" d="M362 153c3,6 14,6 12,-1 14,-6 14,-17 0,-13 1,-16 -10,-16 -13,1 -9,-3 -9,7 1,13z"/>
  <path fill="#64C7B2" d="M357 142c-4,6 2,15 7,10 12,9 21,3 11,-6 14,-8 9,-17 -7,-11 -2,-10 -11,-4 -11,7z"/>
  <path fill="#92D8C8" d="M362 142c-2,4 1,9 4,7 8,5 13,1 7,-4 8,-5 5,-10 -4,-7 -1,-6 -7,-2 -7,4z"/>
  <path fill="#3EAA92" d="M362 114c3,7 14,7 12,0 14,-7 14,-17 0,-13 1,-16 -10,-16 -13,1 -9,-4 -9,7 1,12z"/>
  <path fill="#64C7B2" d="M357 103c-4,7 2,16 7,11 12,8 21,3 11,-7 14,-8 9,-16 -7,-10 -2,-10 -11,-5 -11,6z"/>
  <path fill="#92D8C8" d="M362 104c-2,4 1,9 4,6 8,5 13,2 7,-4 8,-4 5,-10 -4,-6 -1,-6 -7,-3 -7,4z"/>
  <path fill="#1D203D" d="M120 0l166 0 0 6c0,1 -1,2 -2,2l-162 0c-1,0 -2,-1 -2,-2l0 -6z"/>
  <rect fill="#745975" x="89" y="3" width="12.2502" height="77.8653" rx="6" ry="9"/>
  <rect fill="#53709F" x="301" y="3" width="15.6656" height="77.8653" rx="8" ry="9"/>
  <rect fill="#745975" x="304" y="3" width="12.2502" height="77.8653" rx="6" ry="9"/>
  <rect fill="#262E57" x="15" y="72" width="2.97071" height="135.543" rx="1" ry="15"/>
  <rect fill="#262E57" x="387" y="72" width="2.97071" height="135.543" rx="1" ry="15"/>
  <path fill="#FAF8F9" d="M73 78c0,4 -3,7 -7,7 -4,0 -7,-3 -7,-7l14 0z"/>
  <path fill="#FAF8F9" mask="url(#id5)" d="M79 78c0,0 0,1 0,1 0,8 -6,14 -13,14 -7,0 -13,-6 -13,-14 0,0 0,-1 0,-1l26 0z"/>
  <path fill="#FAF8F9" d="M347 78c0,4 -4,7 -7,7 -4,0 -7,-3 -7,-7l14 0z"/>
  <path fill="#FAF8F9" mask="url(#id7)" d="M353 78c0,0 0,1 0,1 0,8 -6,14 -13,14 -8,0 -13,-6 -13,-14 0,0 0,-1 0,-1l26 0z"/>
  <path fill="#FAF8F9" d="M73 207c0,-4 -3,-7 -7,-7 -4,0 -7,3 -7,7l14 0z"/>
  <path fill="#FAF8F9" mask="url(#id9)" d="M79 207c0,0 0,-1 0,-1 0,-8 -6,-14 -13,-14 -7,0 -13,6 -13,14 0,0 0,1 0,1l26 0z"/>
  <path fill="#FAF8F9" d="M347 207c0,-4 -4,-7 -7,-7 -4,0 -7,3 -7,7l14 0z"/>
  <path fill="#FAF8F9" mask="url(#id11)" d="M353 207c0,0 0,-1 0,-1 0,-8 -6,-14 -13,-14 -8,0 -13,6 -13,14 0,0 0,1 0,1l26 0z"/>
  <g id="_275377222096">
   <path fill="#2F3457" d="M85 128l9 0c1,0 2,1 2,3l0 2c0,1 -1,2 -2,2l-9 0c0,0 -1,-1 -1,-2l0 -2c0,-2 1,-3 1,-3zm-1 10l11 0c1,0 1,0 1,0l0 -1c0,-1 0,-1 -1,-1l-11 0c0,0 0,0 0,1l0 1c0,0 0,0 0,0z"/>
   <g>
    <rect fill="#7D89B3" x="76" y="105" width="26.019" height="22.4598" rx="3" ry="4"/>
    <rect fill="#B5C2D8" x="78" y="106" width="23.199" height="20.0256" rx="3" ry="4"/>
   </g>
   <path fill="#2F3457" d="M86 103l8 0c1,0 2,-1 2,-2l0 -2c0,-1 -1,-2 -2,-2l-8 0c-1,0 -2,1 -2,2l0 2c0,1 1,2 2,2zm-1 -10l10 0c1,0 1,1 1,1l0 1c0,0 0,1 -1,1l-10 0c-1,0 -1,-1 -1,-1l0 -1c0,0 0,-1 1,-1z"/>
   <path fill="#2F3457" d="M104 120l0 -9c0,0 1,-1 2,-1l2 0c1,0 2,1 2,1l0 9c0,1 -1,2 -2,2l-2 0c-1,0 -2,-1 -2,-2zm10 1l0 -11c0,0 0,0 -1,0l-1 0c0,0 -1,0 -1,0l0 11c0,1 1,1 1,1l1 0c1,0 1,0 1,-1z"/>
   <path fill="#2F3457" d="M75 120l0 -9c0,0 -1,-1 -2,-1l-2 0c-2,0 -3,1 -3,1l0 9c0,1 1,2 3,2l2 0c1,0 2,-1 2,-2zm-10 1l0 -11c0,0 0,0 1,0l1 0c0,0 0,0 0,0l0 11c0,1 0,1 0,1l-1 0c-1,0 -1,0 -1,-1z"/>
  </g>
  <g id="_275377225488">
   <path fill="#2F3457" d="M85 187l9 0c1,0 2,1 2,2l0 2c0,1 -1,2 -2,2l-9 0c0,0 -1,-1 -1,-2l0 -2c0,-1 1,-2 1,-2zm-1 10l11 0c1,0 1,-1 1,-1l0 -1c0,0 0,-1 -1,-1l-11 0c0,0 0,1 0,1l0 1c0,0 0,1 0,1z"/>
   <g>
    <rect fill="#7D89B3" x="76" y="163" width="26.019" height="22.4598" rx="3" ry="4"/>
    <rect fill="#B5C2D8" x="78" y="164" width="23.199" height="20.0256" rx="3" ry="4"/>
   </g>
   <path fill="#2F3457" d="M86 162l8 0c1,0 2,-1 2,-2l0 -3c0,-1 -1,-2 -2,-2l-8 0c-1,0 -2,1 -2,2l0 3c0,1 1,2 2,2zm-1 -10l10 0c1,0 1,0 1,0l0 1c0,1 0,1 -1,1l-10 0c-1,0 -1,0 -1,-1l0 -1c0,0 0,0 1,0z"/>
   <path fill="#2F3457" d="M104 179l0 -9c0,-1 1,-2 2,-2l2 0c1,0 2,1 2,2l0 9c0,1 -1,1 -2,1l-2 0c-1,0 -2,0 -2,-1zm10 1l0 -11c0,-1 0,-1 -1,-1l-1 0c0,0 -1,0 -1,1l0 11c0,0 1,0 1,0l1 0c1,0 1,0 1,0z"/>
   <path fill="#2F3457" d="M75 179l0 -9c0,-1 -1,-2 -2,-2l-2 0c-2,0 -3,1 -3,2l0 9c0,1 1,1 3,1l2 0c1,0 2,0 2,-1zm-10 1l0 -11c0,-1 0,-1 1,-1l1 0c0,0 0,0 0,1l0 11c0,0 0,0 0,0l-1 0c-1,0 -1,0 -1,0z"/>
  </g>
  <g id="_275377227632">
   <path fill="#2F3457" d="M134 128l9 0c1,0 2,1 2,3l0 2c0,1 -1,2 -2,2l-9 0c-1,0 -2,-1 -2,-2l0 -2c0,-2 1,-3 2,-3zm-1 10l11 0c0,0 1,0 1,0l0 -1c0,-1 -1,-1 -1,-1l-11 0c0,0 -1,0 -1,1l0 1c0,0 1,0 1,0z"/>
   <g>
    <rect fill="#7D89B3" x="125" y="105" width="26.019" height="22.4598" rx="3" ry="4"/>
    <rect fill="#B5C2D8" x="126" y="106" width="23.199" height="20.0256" rx="3" ry="4"/>
   </g>
   <path fill="#2F3457" d="M134 103l9 0c1,0 2,-1 2,-2l0 -2c0,-1 -1,-2 -2,-2l-9 0c-1,0 -2,1 -2,2l0 2c0,1 1,2 2,2zm-1 -10l11 0c0,0 1,1 1,1l0 1c0,0 -1,1 -1,1l-11 0c0,0 -1,-1 -1,-1l0 -1c0,0 1,-1 1,-1z"/>
  </g>
  <g id="_275377227472">
   <path fill="#2F3457" d="M314 128l9 0c1,0 2,1 2,3l0 2c0,1 -1,2 -2,2l-9 0c-1,0 -2,-1 -2,-2l0 -2c0,-2 1,-3 2,-3zm-1 10l11 0c0,0 1,0 1,0l0 -1c0,-1 -1,-1 -1,-1l-11 0c0,0 -1,0 -1,1l0 1c0,0 1,0 1,0z"/>
   <g>
    <rect fill="#7D89B3" x="305" y="105" width="26.019" height="22.4598" rx="3" ry="4"/>
    <rect fill="#B5C2D8" x="307" y="106" width="23.199" height="20.0256" rx="3" ry="4"/>
   </g>
   <path fill="#2F3457" d="M314 103l9 0c1,0 2,-1 2,-2l0 -2c0,-1 -1,-2 -2,-2l-9 0c-1,0 -1,1 -1,2l0 2c0,1 0,2 1,2zm-1 -10l11 0c0,0 1,1 1,1l0 1c0,0 -1,1 -1,1l-11 0c0,0 0,-1 0,-1l0 -1c0,0 0,-1 0,-1z"/>
   <path fill="#2F3457" d="M333 120l0 -9c0,0 1,-1 2,-1l2 0c1,0 2,1 2,1l0 9c0,1 -1,2 -2,2l-2 0c-1,0 -2,-1 -2,-2zm10 1l0 -11c0,0 -1,0 -1,0l-1 0c-1,0 -1,0 -1,0l0 11c0,1 0,1 1,1l1 0c0,0 1,0 1,-1z"/>
   <path fill="#2F3457" d="M304 120l0 -9c0,0 -1,-1 -3,-1l-2 0c-1,0 -2,1 -2,1l0 9c0,1 1,2 2,2l2 0c2,0 3,-1 3,-2zm-11 1l0 -11c0,0 1,0 1,0l1 0c1,0 1,0 1,0l0 11c0,1 0,1 -1,1l-1 0c0,0 -1,0 -1,-1z"/>
  </g>
  <g id="_275377212720">
   <path fill="#2F3457" d="M314 187l9 0c1,0 2,1 2,2l0 2c0,1 -1,2 -2,2l-9 0c-1,0 -2,-1 -2,-2l0 -2c0,-1 1,-2 2,-2zm-1 10l11 0c0,0 1,-1 1,-1l0 -1c0,0 -1,-1 -1,-1l-11 0c0,0 -1,1 -1,1l0 1c0,0 1,1 1,1z"/>
   <g>
    <rect fill="#7D89B3" x="305" y="163" width="26.019" height="22.4598" rx="3" ry="4"/>
    <rect fill="#B5C2D8" x="307" y="164" width="23.199" height="20.0256" rx="3" ry="4"/>
   </g>
   <path fill="#2F3457" d="M314 162l9 0c1,0 2,-1 2,-2l0 -3c0,-1 -1,-2 -2,-2l-9 0c-1,0 -1,1 -1,2l0 3c0,1 0,2 1,2zm-1 -10l11 0c0,0 1,0 1,0l0 1c0,1 -1,1 -1,1l-11 0c0,0 0,0 0,-1l0 -1c0,0 0,0 0,0z"/>
   <path fill="#2F3457" d="M333 179l0 -9c0,-1 1,-2 2,-2l2 0c1,0 2,1 2,2l0 9c0,1 -1,1 -2,1l-2 0c-1,0 -2,0 -2,-1zm10 1l0 -11c0,-1 -1,-1 -1,-1l-1 0c-1,0 -1,0 -1,1l0 11c0,0 0,0 1,0l1 0c0,0 1,0 1,0z"/>
   <path fill="#2F3457" d="M304 179l0 -9c0,-1 -1,-2 -3,-2l-2 0c-1,0 -2,1 -2,2l0 9c0,1 1,1 2,1l2 0c2,0 3,0 3,-1zm-11 1l0 -11c0,-1 1,-1 1,-1l1 0c1,0 1,0 1,1l0 11c0,0 0,0 -1,0l-1 0c0,0 -1,0 -1,0z"/>
  </g>
  <g id="_276806141168">
   <path fill="#2F3457" d="M267 187l9 0c1,0 2,1 2,2l0 2c0,1 -1,2 -2,2l-9 0c-1,0 -2,-1 -2,-2l0 -2c0,-1 1,-2 2,-2zm-1 10l11 0c0,0 1,-1 1,-1l0 -1c0,0 -1,-1 -1,-1l-11 0c0,0 -1,1 -1,1l0 1c0,0 1,1 1,1z"/>
   <g>
    <rect fill="#7D89B3" x="258" y="163" width="26.019" height="22.4598" rx="3" ry="4"/>
    <rect fill="#B5C2D8" x="259" y="164" width="23.199" height="20.0256" rx="3" ry="4"/>
   </g>
   <path fill="#2F3457" d="M267 162l9 0c1,0 2,-1 2,-2l0 -3c0,-1 -1,-2 -2,-2l-9 0c-1,0 -2,1 -2,2l0 3c0,1 1,2 2,2zm-1 -10l11 0c0,0 1,0 1,0l0 1c0,1 -1,1 -1,1l-11 0c0,0 -1,0 -1,-1l0 -1c0,0 1,0 1,0z"/>
  </g>
  <g id="_275368566656">
   <path fill="#2F3457" d="M267 128l9 0c1,0 2,1 2,3l0 2c0,1 -1,2 -2,2l-9 0c-1,0 -2,-1 -2,-2l0 -2c0,-2 1,-3 2,-3zm-1 10l11 0c0,0 1,0 1,0l0 -1c0,-1 -1,-1 -1,-1l-11 0c0,0 -1,0 -1,1l0 1c0,0 1,0 1,0z"/>
   <g>
    <rect fill="#7D89B3" x="258" y="105" width="26.019" height="22.4598" rx="3" ry="4"/>
    <rect fill="#B5C2D8" x="259" y="106" width="23.199" height="20.0256" rx="3" ry="4"/>
   </g>
   <path fill="#2F3457" d="M267 103l9 0c1,0 2,-1 2,-2l0 -2c0,-1 -1,-2 -2,-2l-9 0c-1,0 -2,1 -2,2l0 2c0,1 1,2 2,2zm-1 -10l11 0c0,0 1,1 1,1l0 1c0,0 -1,1 -1,1l-11 0c0,0 -1,-1 -1,-1l0 -1c0,0 1,-1 1,-1z"/>
  </g>
  <g id="_275378782272">
   <path fill="#2F3457" d="M174 128l9 0c0,0 1,1 1,3l0 2c0,1 -1,2 -1,2l-9 0c-1,0 -2,-1 -2,-2l0 -2c0,-2 1,-3 2,-3zm-1 10l11 0c0,0 0,0 0,0l0 -1c0,-1 0,-1 0,-1l-11 0c-1,0 -1,0 -1,1l0 1c0,0 0,0 1,0z"/>
   <g>
    <rect fill="#7D89B3" x="165" y="105" width="26.019" height="22.4598" rx="3" ry="4"/>
    <rect fill="#B5C2D8" x="166" y="106" width="23.199" height="20.0256" rx="3" ry="4"/>
   </g>
   <path fill="#2F3457" d="M174 103l9 0c0,0 1,-1 1,-2l0 -2c0,-1 -1,-2 -1,-2l-9 0c-1,0 -2,1 -2,2l0 2c0,1 1,2 2,2zm-1 -10l10 0c1,0 1,1 1,1l0 1c0,0 0,1 -1,1l-10 0c-1,0 -1,-1 -1,-1l0 -1c0,0 0,-1 1,-1z"/>
  </g>
  <g id="_275378785824">
   <path fill="#2F3457" d="M227 128l9 0c1,0 2,1 2,3l0 2c0,1 -1,2 -2,2l-9 0c0,0 -1,-1 -1,-2l0 -2c0,-2 1,-3 1,-3zm-1 10l11 0c1,0 1,0 1,0l0 -1c0,-1 0,-1 -1,-1l-11 0c0,0 0,0 0,1l0 1c0,0 0,0 0,0z"/>
   <g>
    <rect fill="#7D89B3" x="218" y="105" width="26.019" height="22.4598" rx="3" ry="4"/>
    <rect fill="#B5C2D8" x="220" y="106" width="23.199" height="20.0256" rx="3" ry="4"/>
   </g>
   <path fill="#2F3457" d="M228 103l8 0c1,0 2,-1 2,-2l0 -2c0,-1 -1,-2 -2,-2l-8 0c-1,0 -2,1 -2,2l0 2c0,1 1,2 2,2zm-1 -10l10 0c1,0 1,1 1,1l0 1c0,0 0,1 -1,1l-10 0c-1,0 -1,-1 -1,-1l0 -1c0,0 0,-1 1,-1z"/>
  </g>
  <g id="_275378785952">
   <path fill="#2F3457" d="M134 187l9 0c1,0 2,1 2,2l0 2c0,1 -1,2 -2,2l-9 0c-1,0 -2,-1 -2,-2l0 -2c0,-1 1,-2 2,-2zm-1 10l11 0c0,0 1,-1 1,-1l0 -1c0,0 -1,-1 -1,-1l-11 0c0,0 -1,1 -1,1l0 1c0,0 1,1 1,1z"/>
   <g>
    <rect fill="#7D89B3" x="125" y="163" width="26.019" height="22.4598" rx="3" ry="4"/>
    <rect fill="#B5C2D8" x="126" y="164" width="23.199" height="20.0256" rx="3" ry="4"/>
   </g>
   <path fill="#2F3457" d="M134 162l9 0c1,0 2,-1 2,-2l0 -3c0,-1 -1,-2 -2,-2l-9 0c-1,0 -2,1 -2,2l0 3c0,1 1,2 2,2zm-1 -10l11 0c0,0 1,0 1,0l0 1c0,1 -1,1 -1,1l-11 0c0,0 -1,0 -1,-1l0 -1c0,0 1,0 1,0z"/>
  </g>
 </g>
</svg>
