<?xml version="1.0" encoding="UTF-8"?>
<!DOCTYPE svg PUBLIC "-//W3C//DTD SVG 1.1//EN" "http://www.w3.org/Graphics/SVG/1.1/DTD/svg11.dtd">
<!-- Creator: CorelDRAW X8 -->
<svg xmlns="http://www.w3.org/2000/svg" xml:space="preserve" width="843px" height="430px" version="1.1" shape-rendering="geometricPrecision" text-rendering="geometricPrecision" image-rendering="optimizeQuality" fill-rule="evenodd" clip-rule="evenodd"
viewBox="0 0 407 208"
 xmlns:xlink="http://www.w3.org/1999/xlink">
 <defs>
     <mask id="id0">
       <linearGradient id="id1" gradientUnits="userSpaceOnUse" x1="323.199" y1="249.508" x2="323.199" y2="30.1899">
        <stop offset="0" stop-opacity="1" stop-color="white"/>
        <stop offset="0.521569" stop-opacity="-95.8784" stop-color="white"/>
        <stop offset="1" stop-opacity="0" stop-color="white"/>
       </linearGradient>
      <rect fill="url(#id1)" x="279" y="85" width="121.96" height="31.3296"/>
     </mask>
 </defs>
 <g id="Layer_x0020_1">
  <metadata id="CorelCorpID_0Corel-Layer"/>
  <g id="_275513313584">
   <rect fill="#6582B0" width="407" height="208"/>
   <path fill="#526A8F" d="M221 188l171 0 0 -62c0,-1 1,-2 2,-2l11 0c1,0 2,1 2,2l0 64 0 11 0 0 0 0 0 0 0 0 0 0 0 0 0 0 0 0 0 0 0 0 0 1 0 0 0 0 0 0 0 0 0 0 0 0 0 0 0 0 0 0 0 0 0 0 0 0 0 0 0 0 0 0 0 0 0 0 0 0 0 0 0 0 0 0 0 0 0 0 0 0 0 0 0 0 0 0 0 0 0 0 0 0 0 0 0 0 0 0 0 0 0 0 0 0 0 0 0 1 -1 0 0 0 0 0 0 0 0 0 0 0 0 0 0 0 0 0 0 0 0 0 0 0 0 0 0 0 0 0 0 0 0 0 0 0 0 0 0 0 0 0 0 0 0 0 0 0 0 0 0 0 0 0 0 0 -1 0 0 0 0 0 0 0 0 0 0 0 0 0 -11 0 -173 0c-1,0 -2,-1 -2,-2l0 -11c0,-1 1,-2 2,-2z"/>
   <rect fill="#526A8F" transform="matrix(2.62717E-16 -0.0313287 1.09524 9.16108E-14 0.000266507 13.8114)" width="441" height="205"/>
   <polygon fill="#526A8F" points="227,93 218,79 406,79 406,93 "/>
   <polygon fill="#EDD2CE" points="219,122 362,122 362,165 219,165 "/>
   <rect fill="#526A8F" x="232" y="83" width="33.8187" height="33.8193" rx="4" ry="4"/>
   <path fill="#526A8F" d="M21 0l126 0 0 37c0,8 -7,15 -15,15l-96 0c-8,0 -15,-7 -15,-15l0 -37z"/>
   <path fill="#59405A" d="M130 16c0,0 0,1 0,1l0 44c0,5 -2,10 -6,10l-90 0c-3,0 -6,-5 -6,-10l0 -44c0,0 0,-1 0,-1l6 0 0 32 90 0 0 -32 6 0z"/>
   <path fill="#745975" d="M128 16c0,0 0,1 0,1l0 41c0,5 -2,9 -6,9l-86 0c-4,0 -6,-4 -6,-9l0 -41c0,0 0,-1 0,-1l6 0 0 36 86 0 0 -36 6 0z"/>
   <path fill="#3EAA92" d="M16 0l126 0 0 30c0,3 -2,5 -5,5l-116 0c-3,0 -5,-2 -5,-5l0 -30z"/>
   <path fill="#92D8C8" d="M16 14l126 0 0 5c0,1 -1,2 -2,2l-122 0c-1,0 -2,-1 -2,-2l0 -5z"/>
   <polygon fill="#2F3457" points="217,0 407,0 407,79 217,79 "/>
   <g>
    <path fill="#262E57" mask="url(#id0)" d="M279 101l0 0c0,4 4,7 8,7l3 0c1,3 2,4 4,5 3,4 7,4 9,-1 7,2 11,0 11,-4l11 0c1,3 3,3 6,2 4,6 9,7 11,4 4,2 6,-1 6,-6l15 0c1,3 3,3 7,2 4,6 9,7 10,4 4,2 7,-1 7,-6l5 0c4,0 8,-3 8,-7l0 0c0,-1 0,-1 0,-1 0,-1 0,-2 0,-2l0 0c0,-5 -3,-8 -8,-8l-8 0c-1,-1 -2,-1 -4,-1 0,-4 -4,-4 -8,-2 -2,0 -4,1 -5,3l-21 0c-1,-1 -3,-1 -4,-1 -1,-4 -4,-4 -8,-2 -2,0 -4,1 -5,3l-16 0c-1,-1 -3,-2 -5,-1 -1,-4 -7,-4 -12,0 -2,-1 -3,-1 -5,1l-3 0c-5,0 -8,3 -8,8l0 0c0,0 0,0 0,0 -1,1 -1,2 -1,3z"/>
    <rect fill="#53709F" transform="matrix(6.38374E-15 0.241036 0.40742 -1.07903E-14 279.118 87.8543)" width="65.2225" height="295.926" rx="33" ry="33"/>
    <rect fill="#745975" transform="matrix(6.38374E-15 0.241036 0.40742 -1.07903E-14 279.505 84.8611)" width="65.2225" height="295.926" rx="33" ry="33"/>
    <path fill="#3EAA92" d="M289 97c-2,7 5,15 9,9 14,6 22,-2 9,-9 13,-11 5,-18 -9,-9 -4,-9 -11,-2 -9,9z"/>
    <path fill="#64C7B2" d="M294 86c-7,2 -10,12 -3,12 2,15 12,18 12,4 16,5 19,-5 3,-13 6,-8 -4,-11 -12,-3z"/>
    <path fill="#92D8C8" d="M297 90c-4,1 -6,7 -2,8 2,9 8,10 8,2 9,3 11,-3 2,-8 3,-5 -3,-6 -8,-2z"/>
    <path fill="#3EAA92" d="M328 88c-6,4 -6,14 1,13 6,14 17,13 12,-1 17,1 16,-9 0,-12 3,-10 -7,-9 -13,0z"/>
    <path fill="#64C7B2" d="M339 84c-6,-4 -15,1 -10,6 -9,13 -3,22 6,11 8,15 17,9 11,-7 10,-2 4,-10 -7,-10z"/>
    <path fill="#92D8C8" d="M339 89c-4,-3 -9,1 -7,4 -5,7 -2,13 4,6 5,9 10,6 7,-4 6,-1 2,-6 -4,-6z"/>
    <path fill="#3EAA92" d="M367 88c-7,4 -7,14 0,13 7,14 17,13 13,-1 16,1 16,-9 -1,-12 4,-10 -7,-9 -12,0z"/>
    <path fill="#64C7B2" d="M378 84c-7,-4 -16,1 -11,6 -8,13 -3,22 7,11 8,15 16,9 10,-7 10,-2 5,-10 -6,-10z"/>
    <path fill="#92D8C8" d="M377 89c-4,-3 -9,1 -6,4 -5,7 -2,13 4,6 4,9 10,6 6,-4 6,-1 3,-6 -4,-6z"/>
   </g>
   <rect fill="#745975" x="232" y="82" width="30.1952" height="28.9878" rx="4" ry="4"/>
   <path fill="#92D8C8" d="M16 0l126 0 0 5c0,1 -1,2 -2,2l-122 0c-1,0 -2,-1 -2,-2l0 -5z"/>
   <path fill="#92D8C8" d="M16 28l126 0 0 5c0,1 -1,2 -2,2l-122 0c-1,0 -2,-1 -2,-2l0 -5z"/>
   <path fill="#2F3457" d="M219 0l0 0c1,0 1,1 1,1l0 75 186 0c1,0 1,0 1,1l0 0c0,1 0,2 -1,2l-187 0c-1,0 -2,-1 -2,-2l0 0c0,0 0,0 0,0 0,0 0,0 0,0l0 -76c0,0 1,-1 2,-1z"/>
   <path fill="#526A8F" d="M75 134l0 -30c0,-3 1,-6 3,-6l4 0c2,0 3,3 3,6l0 3 2 0 0 -6c0,-2 0,-3 1,-3l2 0c0,0 1,1 1,3l0 37c0,1 -1,2 -1,2l-2 0c-1,0 -1,-1 -1,-2l0 -7 -2 0 0 3c0,4 -1,6 -3,6l-4 0c-2,0 -3,-2 -3,-6zm-37 -36l27 0c4,0 7,4 7,8l0 26c0,5 -3,8 -7,8l-27 0c-4,0 -7,-3 -7,-8l0 -26c0,-4 3,-8 7,-8zm-22 28l2 0 0 -13 -2 0 0 13zm2 5l-2 0 0 7c0,1 0,2 -1,2l-2 0c0,0 -1,-1 -1,-2l0 -37c0,-2 1,-3 1,-3l2 0c1,0 1,1 1,3l0 6 2 0 0 -3c0,-3 1,-6 3,-6l4 0c2,0 3,3 3,6l0 31c0,3 -1,5 -3,5l-4 0c-2,0 -3,-2 -3,-5l0 -4zm69 -5l0 -13 -2 0 0 13 2 0z"/>
   <rect fill="#59405A" x="28" y="101" width="41.66" height="35.9613" rx="5" ry="7"/>
   <rect fill="#745975" x="30" y="103" width="37.1449" height="32.0638" rx="5" ry="6"/>
   <path fill="#2F3457" d="M25 132l0 -26c0,-3 -1,-5 -3,-5l-4 0c-2,0 -3,2 -3,5l0 26c0,3 1,5 3,5l4 0c2,0 3,-2 3,-5zm-16 3l0 -32c0,-1 1,-2 1,-2l2 0c1,0 1,1 1,2l0 32c0,1 0,2 -1,2l-2 0c0,0 -1,-1 -1,-2z"/>
   <rect fill="#2F3457" x="12" y="109" width="5.41981" height="4.69783"/>
   <rect fill="#2F3457" x="12" y="125" width="5.41981" height="4.69783"/>
   <path fill="#2F3457" d="M72 132l0 -26c0,-3 1,-5 3,-5l4 0c2,0 3,2 3,5l0 26c0,3 -1,5 -3,5l-4 0c-2,0 -3,-2 -3,-5zm16 3l0 -32c0,-1 -1,-2 -1,-2l-2 0c-1,0 -1,1 -1,2l0 32c0,1 0,2 1,2l2 0c0,0 1,-1 1,-2z"/>
   <rect fill="#2F3457" x="80" y="109" width="5.41981" height="4.69783"/>
   <rect fill="#2F3457" x="80" y="124" width="5.41981" height="4.69783"/>
   <path fill="#526A8F" d="M75 188l0 -31c0,-3 1,-6 3,-6l4 0c2,0 3,3 3,6l0 3 2 0 0 -6c0,-2 0,-3 1,-3l2 0c0,0 1,1 1,3l0 37c0,1 -1,2 -1,2l-2 0c-1,0 -1,-1 -1,-2l0 -7 -2 0 0 4c0,3 -1,5 -3,5l-4 0c-2,0 -3,-2 -3,-5zm-37 -37l27 0c4,0 7,4 7,9l0 25c0,5 -3,8 -7,8l-27 0c-4,0 -7,-3 -7,-8l0 -25c0,-5 3,-9 7,-9zm-22 28l2 0 0 -13 -2 0 0 13zm2 5l-2 0 0 7c0,1 0,2 -1,2l-2 0c0,0 -1,-1 -1,-2l0 -37c0,-2 1,-3 1,-3l2 0c1,0 1,1 1,3l0 6 2 0 0 -3c0,-3 1,-6 3,-6l4 0c2,0 3,3 3,6l0 31c0,3 -1,5 -3,5l-4 0c-2,0 -3,-2 -3,-5l0 -4zm69 -5l0 -13 -2 0 0 13 2 0z"/>
   <rect fill="#59405A" x="28" y="154" width="41.66" height="35.9613" rx="5" ry="7"/>
   <rect fill="#745975" x="30" y="156" width="37.1449" height="32.0638" rx="5" ry="6"/>
   <path fill="#2F3457" d="M25 185l0 -26c0,-3 -1,-5 -3,-5l-4 0c-2,0 -3,2 -3,5l0 26c0,3 1,5 3,5l4 0c2,0 3,-2 3,-5zm-16 3l0 -32c0,-1 1,-2 1,-2l2 0c1,0 1,1 1,2l0 32c0,1 0,2 -1,2l-2 0c0,0 -1,-1 -1,-2z"/>
   <rect fill="#2F3457" x="12" y="162" width="5.41981" height="4.69783"/>
   <rect fill="#2F3457" x="12" y="178" width="5.41981" height="4.69783"/>
   <path fill="#2F3457" d="M72 185l0 -26c0,-3 1,-5 3,-5l4 0c2,0 3,2 3,5l0 26c0,3 -1,5 -3,5l-4 0c-2,0 -3,-2 -3,-5zm16 3l0 -32c0,-1 -1,-2 -1,-2l-2 0c-1,0 -1,1 -1,2l0 32c0,1 0,2 1,2l2 0c0,0 1,-1 1,-2z"/>
   <rect fill="#2F3457" x="80" y="162" width="5.41981" height="4.69783"/>
   <rect fill="#2F3457" x="80" y="178" width="5.41981" height="4.69783"/>
   <path fill="#526A8F" d="M176 134l0 -30c0,-3 2,-6 4,-6l3 0c2,0 4,3 4,6l0 3 1 0 0 -6c0,-2 1,-3 2,-3l1 0c1,0 1,1 1,3l0 37c0,1 0,2 -1,2l-1 0c-1,0 -2,-1 -2,-2l0 -7 -1 0 0 3c0,4 -2,6 -4,6l-3 0c-2,0 -4,-2 -4,-6zm-37 -36l28 0c4,0 7,4 7,8l0 26c0,5 -3,8 -7,8l-28 0c-4,0 -7,-3 -7,-8l0 -26c0,-4 3,-8 7,-8zm-21 28l1 0 0 -13 -1 0 0 13zm1 5l-1 0 0 7c0,1 -1,2 -2,2l-1 0c-1,0 -1,-1 -1,-2l0 -37c0,-2 0,-3 1,-3l1 0c1,0 2,1 2,3l0 6 1 0 0 -3c0,-3 2,-6 4,-6l3 0c2,0 4,3 4,6l0 31c0,3 -2,5 -4,5l-3 0c-2,0 -4,-2 -4,-5l0 -4zm69 -5l0 -13 -1 0 0 13 1 0z"/>
   <rect fill="#59405A" x="129" y="101" width="41.66" height="35.9613" rx="5" ry="7"/>
   <rect fill="#745975" x="131" y="103" width="37.1449" height="32.0638" rx="5" ry="6"/>
   <path fill="#2F3457" d="M127 132l0 -26c0,-3 -2,-5 -4,-5l-3 0c-2,0 -4,2 -4,5l0 26c0,3 2,5 4,5l3 0c2,0 4,-2 4,-5zm-17 3l0 -32c0,-1 1,-2 2,-2l1 0c1,0 2,1 2,2l0 32c0,1 -1,2 -2,2l-1 0c-1,0 -2,-1 -2,-2z"/>
   <rect fill="#2F3457" x="113" y="109" width="5.41981" height="4.69783"/>
   <rect fill="#2F3457" x="113" y="125" width="5.41981" height="4.69783"/>
   <path fill="#2F3457" d="M173 132l0 -26c0,-3 2,-5 4,-5l3 0c2,0 4,2 4,5l0 26c0,3 -2,5 -4,5l-3 0c-2,0 -4,-2 -4,-5zm16 3l0 -32c0,-1 0,-2 -1,-2l-1 0c-1,0 -2,1 -2,2l0 32c0,1 1,2 2,2l1 0c1,0 1,-1 1,-2z"/>
   <rect fill="#2F3457" x="181" y="109" width="5.41981" height="4.69783"/>
   <rect fill="#2F3457" x="181" y="124" width="5.41981" height="4.69783"/>
   <path fill="#526A8F" d="M176 188l0 -31c0,-3 2,-6 4,-6l3 0c2,0 4,3 4,6l0 3 1 0 0 -6c0,-2 1,-3 2,-3l1 0c1,0 1,1 1,3l0 37c0,1 0,2 -1,2l-1 0c-1,0 -2,-1 -2,-2l0 -7 -1 0 0 4c0,3 -2,5 -4,5l-3 0c-2,0 -4,-2 -4,-5zm-37 -37l28 0c4,0 7,4 7,9l0 25c0,5 -3,8 -7,8l-28 0c-4,0 -7,-3 -7,-8l0 -25c0,-5 3,-9 7,-9zm-21 28l1 0 0 -13 -1 0 0 13zm1 5l-1 0 0 7c0,1 -1,2 -2,2l-1 0c-1,0 -1,-1 -1,-2l0 -37c0,-2 0,-3 1,-3l1 0c1,0 2,1 2,3l0 6 1 0 0 -3c0,-3 2,-6 4,-6l3 0c2,0 4,3 4,6l0 31c0,3 -2,5 -4,5l-3 0c-2,0 -4,-2 -4,-5l0 -4zm69 -5l0 -13 -1 0 0 13 1 0z"/>
   <rect fill="#59405A" x="129" y="154" width="41.66" height="35.9613" rx="5" ry="7"/>
   <rect fill="#745975" x="131" y="156" width="37.1449" height="32.0638" rx="5" ry="6"/>
   <path fill="#2F3457" d="M127 185l0 -26c0,-3 -2,-5 -4,-5l-3 0c-2,0 -4,2 -4,5l0 26c0,3 2,5 4,5l3 0c2,0 4,-2 4,-5zm-17 3l0 -32c0,-1 1,-2 2,-2l1 0c1,0 2,1 2,2l0 32c0,1 -1,2 -2,2l-1 0c-1,0 -2,-1 -2,-2z"/>
   <rect fill="#2F3457" x="113" y="162" width="5.41981" height="4.69783"/>
   <rect fill="#2F3457" x="113" y="178" width="5.41981" height="4.69783"/>
   <path fill="#2F3457" d="M173 185l0 -26c0,-3 2,-5 4,-5l3 0c2,0 4,2 4,5l0 26c0,3 -2,5 -4,5l-3 0c-2,0 -4,-2 -4,-5zm16 3l0 -32c0,-1 0,-2 -1,-2l-1 0c-1,0 -2,1 -2,2l0 32c0,1 1,2 2,2l1 0c1,0 1,-1 1,-2z"/>
   <rect fill="#2F3457" x="181" y="162" width="5.41981" height="4.69783"/>
   <rect fill="#2F3457" x="181" y="178" width="5.41981" height="4.69783"/>
   <path fill="#745975" d="M221 193l171 0 0 -62c0,-1 1,-2 2,-2l11 0c1,0 2,1 2,2l0 64 0 11 0 0 0 0 0 0 0 0 0 0 0 0 0 0 0 0 0 0 0 0 0 0 0 0 0 0 0 0 0 0 0 1 0 0 0 0 0 0 0 0 0 0 0 0 0 0 0 0 0 0 0 0 0 0 0 0 0 0 0 0 0 0 0 0 0 0 0 0 0 0 0 0 0 0 0 0 0 0 0 0 0 0 0 0 0 0 0 0 0 0 0 0 0 0 0 0 0 0 -1 0 0 0 0 0 0 0 0 0 0 0 0 1 0 0 0 0 0 0 0 0 0 0 0 0 0 0 0 0 0 0 0 0 0 0 0 0 0 0 0 0 0 0 0 0 0 0 0 0 0 0 0 0 0 0 -1 0 0 0 0 0 0 0 0 0 0 0 0 0 -11 0 -173 0c-1,0 -2,-1 -2,-2l0 -11c0,-1 1,-2 2,-2z"/>
   <path fill="#2F3457" d="M235 189l14 0c1,0 2,-1 2,-2l0 -3c0,-1 -1,-3 -2,-3l-14 0c-2,0 -3,2 -3,3l0 3c0,1 1,2 3,2zm-2 -12l17 0c1,0 1,1 1,1l0 1c0,1 0,1 -1,1l-17 0c0,0 -1,0 -1,-1l0 -1c0,0 1,-1 1,-1z"/>
   <path fill="#2F3457" d="M273 189l14 0c2,0 3,-1 3,-2l0 -3c0,-1 -1,-3 -3,-3l-14 0c-1,0 -2,2 -2,3l0 3c0,1 1,2 2,2zm-1 -12l17 0c1,0 1,1 1,1l0 1c0,1 0,1 -1,1l-17 0c-1,0 -1,0 -1,-1l0 -1c0,0 0,-1 1,-1z"/>
   <path fill="#2F3457" d="M315 189l14 0c1,0 2,-1 2,-2l0 -3c0,-1 -1,-3 -2,-3l-14 0c-2,0 -3,2 -3,3l0 3c0,1 1,2 3,2zm-2 -12l17 0c1,0 1,1 1,1l0 1c0,1 0,1 -1,1l-17 0c-1,0 -1,0 -1,-1l0 -1c0,0 0,-1 1,-1z"/>
   <path fill="#2F3457" d="M356 189l14 0c1,0 2,-1 2,-2l0 -3c0,-1 -1,-3 -2,-3l-14 0c-2,0 -3,2 -3,3l0 3c0,1 1,2 3,2zm-2 -12l17 0c1,0 1,1 1,1l0 1c0,1 0,1 -1,1l-17 0c-1,0 -1,0 -1,-1l0 -1c0,0 0,-1 1,-1z"/>
   <path fill="#2F3457" d="M386 159l0 -14c0,-2 -2,-3 -3,-3l-3 0c-1,0 -2,1 -2,3l0 14c0,1 1,2 2,2l3 0c1,0 3,-1 3,-2zm-13 1l0 -17c0,0 1,-1 1,-1l2 0c0,0 1,1 1,1l0 17c0,1 -1,1 -1,1l-2 0c0,0 -1,0 -1,-1z"/>
   <polygon fill="#FFEADD" points="224,125 357,125 357,162 224,162 "/>
   <rect fill="#526A8F" width="9.04556" height="207.756"/>
   <g>
    <rect fill="#9F86B6" x="236" y="88" width="9.92603" height="16.7724" rx="1" ry="2"/>
    <rect fill="#9F86B6" x="249" y="88" width="9.92603" height="4.56386" rx="1" ry="1"/>
    <rect fill="#9F86B6" x="249" y="95" width="9.92603" height="8.92515" rx="1" ry="1"/>
   </g>
   <rect fill="#EDD2CE" x="237" y="90" width="6.56733" height="4.68027"/>
  </g>
 </g>
</svg>
