<?xml version="1.0" encoding="UTF-8"?>
<!DOCTYPE svg PUBLIC "-//W3C//DTD SVG 1.1//EN" "http://www.w3.org/Graphics/SVG/1.1/DTD/svg11.dtd">
<!-- Creator: CorelDRAW X8 -->
<svg xmlns="http://www.w3.org/2000/svg" xml:space="preserve" width="843px" height="432px" version="1.1" shape-rendering="geometricPrecision" text-rendering="geometricPrecision" image-rendering="optimizeQuality" fill-rule="evenodd" clip-rule="evenodd"
viewBox="0 0 4893 2506"
 xmlns:xlink="http://www.w3.org/1999/xlink">
 <defs>
   <mask id="id0">
     <linearGradient id="id1" gradientUnits="userSpaceOnUse" x1="3164.14" y1="2676.9" x2="3839.85" y2="1978.5">
      <stop offset="0" stop-opacity="1" stop-color="white"/>
      <stop offset="1" stop-opacity="0" stop-color="white"/>
     </linearGradient>
    <rect fill="url(#id1)" x="3309" y="2079" width="460" height="342"/>
   </mask>
   <mask id="id2">
     <linearGradient id="id3" gradientUnits="userSpaceOnUse" x1="4842.08" y1="2676.9" x2="4166.36" y2="1978.5">
      <stop offset="0" stop-opacity="1" stop-color="white"/>
      <stop offset="1" stop-opacity="0" stop-color="white"/>
     </linearGradient>
    <rect fill="url(#id3)" x="4237" y="2079" width="460" height="342"/>
   </mask>
    <mask id="id4">
      <linearGradient id="id5" gradientUnits="userSpaceOnUse" x1="2054.31" y1="2584.45" x2="2054.31" y2="2360.59">
       <stop offset="0" stop-opacity="1" stop-color="white"/>
       <stop offset="1" stop-opacity="0" stop-color="white"/>
      </linearGradient>
     <rect fill="url(#id5)" x="1877" y="2317" width="327" height="195"/>
    </mask>
    <mask id="id6">
      <linearGradient id="id7" gradientUnits="userSpaceOnUse" x1="406.056" y1="2584.45" x2="406.063" y2="2360.59">
       <stop offset="0" stop-opacity="1" stop-color="white"/>
       <stop offset="1" stop-opacity="0" stop-color="white"/>
      </linearGradient>
     <rect fill="url(#id7)" x="229" y="2317" width="327" height="195"/>
    </mask>
     <mask id="id8">
       <linearGradient id="id9" gradientUnits="userSpaceOnUse" x1="2054.31" y1="-64.538" x2="2054.31" y2="159.329">
        <stop offset="0" stop-opacity="1" stop-color="white"/>
        <stop offset="1" stop-opacity="0" stop-color="white"/>
       </linearGradient>
      <rect fill="url(#id9)" x="1877" y="7" width="327" height="195"/>
     </mask>
     <mask id="id10">
       <linearGradient id="id11" gradientUnits="userSpaceOnUse" x1="406.056" y1="-64.538" x2="406.063" y2="159.329">
        <stop offset="0" stop-opacity="1" stop-color="white"/>
        <stop offset="1" stop-opacity="0" stop-color="white"/>
       </linearGradient>
      <rect fill="url(#id11)" x="229" y="7" width="327" height="195"/>
     </mask>
 </defs>
 <g id="Layer_x0020_1">
  <metadata id="CorelCorpID_0Corel-Layer"/>
  <rect fill="#6582B0" y="6" width="4893" height="2501"/>
  <rect fill="#526A8F" transform="matrix(1.05704E-17 -0.0691212 0.0440667 2.02123E-13 3300.39 1143.15)" width="16538" height="7688"/>
  <path fill="#2F3457" mask="url(#id0)" d="M3372 2126l2 0c16,-38 69,-58 135,-33 15,-6 32,-3 44,7 68,-35 128,-15 146,26l7 0c33,0 60,15 60,34l0 181c0,19 -27,34 -60,34l-5 0c-15,52 -75,64 -144,0l-36 0c-73,64 -135,52 -149,0l0 0c-34,0 -61,-15 -61,-34l0 -181c0,-19 27,-34 61,-34z"/>
  <rect fill="#526A8F" transform="matrix(1.52685E-16 -0.0100443 0.63653 2.93714E-14 0.00644384 166.116)" width="16538" height="7688"/>
  <polygon fill="#2F3457" points="3632,6 4893,6 4893,1310 3632,1310 "/>
  <polygon fill="#2F3457" points="2656,6 2947,6 2947,1004 3969,1004 3969,1346 3348,1346 3321,1300 2935,1300 2935,1359 2656,1359 2656,1300 2656,1073 "/>
  <polygon fill="#454E82" points="2691,6 2900,6 2900,1073 3876,1073 3876,1265 2900,1265 2900,1324 2691,1324 2691,1265 2691,1073 "/>
  <path fill="#59405A" d="M3876 6l0 1306 -448 0c-45,0 -75,-21 -75,-52l0 -1203c0,-31 30,-51 75,-51l448 0z"/>
  <rect fill="#526A8F" transform="matrix(2.82271E-18 -0.151218 0.0117676 4.42188E-13 0.00694035 2506.42)" width="16538" height="7688"/>
  <g id="_647507816128">
   <path fill="#526A8F" d="M932 1477l0 -361c0,-36 12,-72 36,-72l48 0c24,0 36,36 36,72l0 36 24 0 0 -72c0,-24 0,-36 12,-36l24 0c0,0 12,12 12,36l0 445c0,12 -12,24 -12,24l-24 0c-12,0 -12,-12 -12,-24l0 -84 -24 0 0 36c0,48 -12,72 -36,72l-48 0c-24,0 -36,-24 -36,-72l0 0zm-445 -433l324 0c49,0 85,48 85,96l0 313c0,60 -36,96 -85,96l-324 0c-48,0 -84,-36 -84,-96l0 -313c0,-48 36,-96 84,-96zm-265 337l24 0 0 -157 -24 0 0 157zm24 60l-24 0 0 84c0,12 0,24 -12,24l-24 0c0,0 -12,-12 -12,-24l0 -445c0,-24 12,-36 12,-36l24 0c12,0 12,12 12,36l0 72 24 0 0 -36c0,-36 12,-72 36,-72l49 0c24,0 36,36 36,72l0 373c0,36 -12,60 -36,60l-49 0c-24,0 -36,-24 -36,-60l0 -48zm830 -60l0 -157 -24 0 0 157 24 0z"/>
   <path fill="#7D89B3" d="M427 1080l380 0c34,0 61,38 61,84l0 264c0,47 -27,84 -61,84l-380 0c-33,0 -60,-37 -60,-84l0 -264c0,-46 27,-84 60,-84z"/>
   <path fill="#B5C2D8" d="M451 1104l326 0c33,0 60,32 60,72l0 242c0,39 -27,72 -60,72l-326 0c-33,0 -60,-33 -60,-72l0 -242c0,-40 27,-72 60,-72z"/>
   <path fill="#2F3457" d="M331 1453l0 -313c0,-36 -12,-60 -37,-60l-48 0c-24,0 -36,24 -36,60l0 313c0,36 12,60 36,60l48 0c25,0 37,-24 37,-60zm-193 36l0 -385c0,-12 12,-24 12,-24l24 0c12,0 12,12 12,24l0 385c0,12 0,24 -12,24l-24 0c0,0 -12,-12 -12,-24z"/>
   <rect fill="#2F3457" x="174" y="1176" width="65.1639" height="56.4834"/>
   <rect fill="#2F3457" x="174" y="1369" width="65.1639" height="56.4834"/>
   <path fill="#2F3457" d="M896 1453l0 -313c0,-36 12,-60 36,-60l48 0c24,0 36,24 36,60l0 313c0,36 -12,60 -36,60l-48 0c-24,0 -36,-24 -36,-60zm192 36l0 -385c0,-12 -12,-24 -12,-24l-24 0c-12,0 -12,12 -12,24l0 385c0,12 0,24 12,24l24 0c0,0 12,-12 12,-24z"/>
   <rect fill="#2F3457" x="992" y="1176" width="65.1639" height="56.4834"/>
   <rect fill="#2F3457" x="992" y="1357" width="65.1639" height="56.4834"/>
  </g>
  <g id="_647507805920">
   <path fill="#526A8F" d="M932 653l0 -361c0,-36 12,-72 36,-72l48 0c24,0 36,36 36,72l0 36 24 0 0 -72c0,-24 0,-36 12,-36l24 0c0,0 12,12 12,36l0 445c0,12 -12,24 -12,24l-24 0c-12,0 -12,-12 -12,-24l0 -84 -24 0 0 36c0,48 -12,72 -36,72l-48 0c-24,0 -36,-24 -36,-72l0 0zm-445 -433l324 0c49,0 85,48 85,96l0 313c0,60 -36,96 -85,96l-324 0c-48,0 -84,-36 -84,-96l0 -313c0,-48 36,-96 84,-96zm-265 337l24 0 0 -157 -24 0 0 157zm24 60l-24 0 0 84c0,12 0,24 -12,24l-24 0c0,0 -12,-12 -12,-24l0 -445c0,-24 12,-36 12,-36l24 0c12,0 12,12 12,36l0 72 24 0 0 -36c0,-36 12,-72 36,-72l49 0c24,0 36,36 36,72l0 373c0,36 -12,60 -36,60l-49 0c-24,0 -36,-24 -36,-60l0 -48zm830 -60l0 -157 -24 0 0 157 24 0z"/>
   <path fill="#7D89B3" d="M427 256l380 0c34,0 61,38 61,84l0 264c0,47 -27,84 -61,84l-380 0c-33,0 -60,-37 -60,-84l0 -264c0,-46 27,-84 60,-84z"/>
   <path fill="#B5C2D8" d="M451 280l326 0c33,0 60,32 60,72l0 241c0,40 -27,73 -60,73l-326 0c-33,0 -60,-33 -60,-73l0 -241c0,-40 27,-72 60,-72z"/>
   <path fill="#2F3457" d="M331 629l0 -313c0,-36 -12,-60 -37,-60l-48 0c-24,0 -36,24 -36,60l0 313c0,36 12,60 36,60l48 0c25,0 37,-24 37,-60zm-193 36l0 -385c0,-12 12,-24 12,-24l24 0c12,0 12,12 12,24l0 385c0,12 0,24 -12,24l-24 0c0,0 -12,-12 -12,-24z"/>
   <rect fill="#2F3457" x="174" y="352" width="65.1639" height="56.4834"/>
   <rect fill="#2F3457" x="174" y="545" width="65.1639" height="56.4834"/>
   <path fill="#2F3457" d="M896 629l0 -313c0,-36 12,-60 36,-60l48 0c24,0 36,24 36,60l0 313c0,36 -12,60 -36,60l-48 0c-24,0 -36,-24 -36,-60zm192 36l0 -385c0,-12 -12,-24 -12,-24l-24 0c-12,0 -12,12 -12,24l0 385c0,12 0,24 12,24l24 0c0,0 12,-12 12,-24z"/>
   <rect fill="#2F3457" x="992" y="352" width="65.1639" height="56.4834"/>
   <rect fill="#2F3457" x="992" y="533" width="65.1639" height="56.4834"/>
  </g>
  <g id="_646788741760">
   <path fill="#745975" d="M3314 2172l334 0c33,0 60,16 60,35l0 180c0,19 -27,34 -60,34l-334 0c-34,0 -61,-15 -61,-34l0 -180c0,-19 27,-35 61,-35z"/>
   <path fill="#3EAA92" d="M3482 2154c122,-75 224,28 125,125 99,155 -3,258 -125,125 -131,133 -233,30 -125,-125 -108,-97 -6,-200 125,-125z"/>
   <path fill="#79CFBA" d="M3400 2200c26,-88 119,-84 114,5 115,31 110,124 -5,114 -5,120 -98,116 -114,-5 -93,1 -89,-92 5,-114z"/>
   <path fill="#B9E7D5" d="M3424 2310c-35,-52 8,-98 52,-57 66,-45 112,-3 57,53 59,54 17,101 -53,56 -40,49 -86,6 -56,-52z"/>
  </g>
  <path fill="#2F3457" mask="url(#id2)" d="M4635 2126l-3 0c-16,-38 -69,-58 -134,-33 -16,-6 -32,-3 -44,7 -69,-35 -129,-15 -147,26l-7 0c-33,0 -60,15 -60,34l0 181c0,19 27,34 60,34l5 0c15,52 75,64 144,0l36 0c74,64 135,52 149,0l1 0c33,0 60,-15 60,-34l0 -181c0,-19 -27,-34 -60,-34z"/>
  <g id="_646788742784">
   <path fill="#745975" d="M4693 2172l-335 0c-33,0 -60,16 -60,35l0 180c0,19 27,34 60,34l335 0c33,0 60,-15 60,-34l0 -180c0,-19 -27,-35 -60,-35z"/>
   <path fill="#3EAA92" d="M4524 2154c-122,-75 -224,28 -125,125 -99,155 3,258 125,125 131,133 233,30 125,-125 108,-97 6,-200 -125,-125z"/>
   <path fill="#79CFBA" d="M4606 2200c-26,-88 -119,-84 -114,5 -114,31 -110,124 5,114 5,120 98,116 114,-5 94,1 89,-92 -5,-114z"/>
   <path fill="#B9E7D5" d="M4582 2310c35,-52 -8,-98 -52,-57 -66,-45 -112,-3 -56,53 -60,54 -17,101 52,56 41,49 87,6 56,-52z"/>
  </g>
  <g id="_646788739008">
   <g>
    <path fill="#526A8F" d="M2081 1477l0 -361c0,-36 12,-72 36,-72l48 0c24,0 36,36 36,72l0 36 24 0 0 -72c0,-24 0,-36 12,-36l24 0c0,0 12,12 12,36l0 445c0,12 -12,24 -12,24l-24 0c-12,0 -12,-12 -12,-24l0 -84 -24 0 0 36c0,48 -12,72 -36,72l-48 0c-24,0 -36,-24 -36,-72l0 0zm-445 -433l325 0c48,0 84,48 84,96l0 313c0,60 -36,96 -84,96l-325 0c-48,0 -84,-36 -84,-96l0 -313c0,-48 36,-96 84,-96zm-265 337l25 0 0 -157 -25 0 0 157zm25 60l-25 0 0 84c0,12 0,24 -12,24l-24 0c0,0 -12,-12 -12,-24l0 -445c0,-24 12,-36 12,-36l24 0c12,0 12,12 12,36l0 72 25 0 0 -36c0,-36 12,-72 36,-72l48 0c24,0 36,36 36,72l0 373c0,36 -12,60 -36,60l-48 0c-24,0 -36,-24 -36,-60l0 -48zm829 -60l0 -157 -24 0 0 157 24 0z"/>
    <path fill="#7D89B3" d="M1576 1080l381 0c33,0 60,38 60,84l0 264c0,47 -27,84 -60,84l-381 0c-33,0 -60,-37 -60,-84l0 -264c0,-46 27,-84 60,-84z"/>
    <path fill="#B5C2D8" d="M1600 1104l326 0c33,0 60,32 60,72l0 242c0,39 -27,72 -60,72l-326 0c-33,0 -60,-33 -60,-72l0 -242c0,-40 27,-72 60,-72z"/>
    <path fill="#2F3457" d="M1480 1453l0 -313c0,-36 -12,-60 -36,-60l-48 0c-25,0 -37,24 -37,60l0 313c0,36 12,60 37,60l48 0c24,0 36,-24 36,-60zm-193 36l0 -385c0,-12 12,-24 12,-24l24 0c12,0 12,12 12,24l0 385c0,12 0,24 -12,24l-24 0c0,0 -12,-12 -12,-24z"/>
    <rect fill="#2F3457" x="1323" y="1176" width="65.1639" height="56.4834"/>
    <rect fill="#2F3457" x="1323" y="1369" width="65.1639" height="56.4834"/>
    <path fill="#2F3457" d="M2045 1453l0 -313c0,-36 12,-60 36,-60l48 0c24,0 36,24 36,60l0 313c0,36 -12,60 -36,60l-48 0c-24,0 -36,-24 -36,-60zm192 36l0 -385c0,-12 -12,-24 -12,-24l-24 0c-12,0 -12,12 -12,24l0 385c0,12 0,24 12,24l24 0c0,0 12,-12 12,-24z"/>
    <rect fill="#2F3457" x="2141" y="1176" width="65.1639" height="56.4834"/>
    <rect fill="#2F3457" x="2141" y="1357" width="65.1639" height="56.4834"/>
   </g>
   <g>
    <path fill="#526A8F" d="M2081 653l0 -361c0,-36 12,-72 36,-72l48 0c24,0 36,36 36,72l0 36 24 0 0 -72c0,-24 0,-36 12,-36l24 0c0,0 12,12 12,36l0 445c0,12 -12,24 -12,24l-24 0c-12,0 -12,-12 -12,-24l0 -84 -24 0 0 36c0,48 -12,72 -36,72l-48 0c-24,0 -36,-24 -36,-72l0 0zm-445 -433l325 0c48,0 84,48 84,96l0 313c0,60 -36,96 -84,96l-325 0c-48,0 -84,-36 -84,-96l0 -313c0,-48 36,-96 84,-96zm-265 337l25 0 0 -157 -25 0 0 157zm25 60l-25 0 0 84c0,12 0,24 -12,24l-24 0c0,0 -12,-12 -12,-24l0 -445c0,-24 12,-36 12,-36l24 0c12,0 12,12 12,36l0 72 25 0 0 -36c0,-36 12,-72 36,-72l48 0c24,0 36,36 36,72l0 373c0,36 -12,60 -36,60l-48 0c-24,0 -36,-24 -36,-60l0 -48zm829 -60l0 -157 -24 0 0 157 24 0z"/>
    <path fill="#7D89B3" d="M1576 256l381 0c33,0 60,38 60,84l0 264c0,47 -27,84 -60,84l-381 0c-33,0 -60,-37 -60,-84l0 -264c0,-46 27,-84 60,-84z"/>
    <path fill="#B5C2D8" d="M1600 280l326 0c33,0 60,32 60,72l0 241c0,40 -27,73 -60,73l-326 0c-33,0 -60,-33 -60,-73l0 -241c0,-40 27,-72 60,-72z"/>
    <path fill="#2F3457" d="M1480 629l0 -313c0,-36 -12,-60 -36,-60l-48 0c-25,0 -37,24 -37,60l0 313c0,36 12,60 37,60l48 0c24,0 36,-24 36,-60zm-193 36l0 -385c0,-12 12,-24 12,-24l24 0c12,0 12,12 12,24l0 385c0,12 0,24 -12,24l-24 0c0,0 -12,-12 -12,-24z"/>
    <rect fill="#2F3457" x="1323" y="352" width="65.1639" height="56.4834"/>
    <rect fill="#2F3457" x="1323" y="545" width="65.1639" height="56.4834"/>
    <path fill="#2F3457" d="M2045 629l0 -313c0,-36 12,-60 36,-60l48 0c24,0 36,24 36,60l0 313c0,36 -12,60 -36,60l-48 0c-24,0 -36,-24 -36,-60zm192 36l0 -385c0,-12 -12,-24 -12,-24l-24 0c-12,0 -12,12 -12,24l0 385c0,12 0,24 12,24l24 0c0,0 12,-12 12,-24z"/>
    <rect fill="#2F3457" x="2141" y="352" width="65.1639" height="56.4834"/>
    <rect fill="#2F3457" x="2141" y="533" width="65.1639" height="56.4834"/>
   </g>
  </g>
  <g id="_647544596048">
   <path fill="#526A8F" d="M2081 2220l0 -361c0,-36 12,-72 36,-72l48 0c24,0 36,36 36,72l0 36 24 0 0 -72c0,-24 0,-36 12,-36l24 0c0,0 12,12 12,36l0 445c0,12 -12,24 -12,24l-24 0c-12,0 -12,-12 -12,-24l0 -84 -24 0 0 36c0,48 -12,72 -36,72l-48 0c-24,0 -36,-24 -36,-72l0 0zm-445 -433l325 0c48,0 84,48 84,96l0 313c0,60 -36,96 -84,96l-325 0c-48,0 -84,-36 -84,-96l0 -313c0,-48 36,-96 84,-96zm-265 337l25 0 0 -157 -25 0 0 157zm25 60l-25 0 0 84c0,12 0,24 -12,24l-24 0c0,0 -12,-12 -12,-24l0 -445c0,-24 12,-36 12,-36l24 0c12,0 12,12 12,36l0 72 25 0 0 -36c0,-36 12,-72 36,-72l48 0c24,0 36,36 36,72l0 373c0,36 -12,60 -36,60l-48 0c-24,0 -36,-24 -36,-60l0 -48zm829 -60l0 -157 -24 0 0 157 24 0z"/>
   <path fill="#7D89B3" d="M1576 1823l381 0c33,0 60,38 60,84l0 264c0,47 -27,84 -60,84l-381 0c-33,0 -60,-37 -60,-84l0 -264c0,-46 27,-84 60,-84z"/>
   <path fill="#B5C2D8" d="M1600 1847l326 0c33,0 60,32 60,72l0 241c0,40 -27,73 -60,73l-326 0c-33,0 -60,-33 -60,-73l0 -241c0,-40 27,-72 60,-72z"/>
   <path fill="#2F3457" d="M1480 2196l0 -313c0,-36 -12,-60 -36,-60l-48 0c-25,0 -37,24 -37,60l0 313c0,36 12,60 37,60l48 0c24,0 36,-24 36,-60zm-193 36l0 -385c0,-12 12,-24 12,-24l24 0c12,0 12,12 12,24l0 385c0,12 0,24 -12,24l-24 0c0,0 -12,-12 -12,-24z"/>
   <rect fill="#2F3457" x="1323" y="1919" width="65.1639" height="56.4834"/>
   <rect fill="#2F3457" x="1323" y="2112" width="65.1639" height="56.4834"/>
   <path fill="#2F3457" d="M2045 2196l0 -313c0,-36 12,-60 36,-60l48 0c24,0 36,24 36,60l0 313c0,36 -12,60 -36,60l-48 0c-24,0 -36,-24 -36,-60zm192 36l0 -385c0,-12 -12,-24 -12,-24l-24 0c-12,0 -12,12 -12,24l0 385c0,12 0,24 12,24l24 0c0,0 12,-12 12,-24z"/>
   <rect fill="#2F3457" x="2141" y="1919" width="65.1639" height="56.4834"/>
   <rect fill="#2F3457" x="2141" y="2100" width="65.1639" height="56.4834"/>
  </g>
  <g id="_647544597104">
   <path fill="#FAF8F9" d="M2124 2506c0,-46 -37,-84 -83,-84 -47,0 -84,38 -84,84l167 0z"/>
   <path fill="#FAF8F9" mask="url(#id4)" d="M2197 2506c1,-5 1,-11 1,-17 0,-92 -70,-166 -157,-166 -88,0 -158,74 -158,166 0,6 0,12 1,17l313 0z"/>
  </g>
  <g id="_647544597904">
   <path fill="#FAF8F9" d="M476 2506c0,-46 -37,-84 -84,-84 -46,0 -84,38 -84,84l168 0z"/>
   <path fill="#FAF8F9" mask="url(#id6)" d="M549 2506c0,-5 1,-11 1,-17 0,-92 -71,-166 -158,-166 -87,0 -157,74 -157,166 0,6 0,12 1,17l313 0z"/>
  </g>
  <g id="_647544600720">
   <polygon fill="#A3ACC9" stroke="#4B4B7F" stroke-width="5.22436" points="3245,1497 4741,1497 4741,2008 3245,2008 "/>
   <polygon fill="#7D89B3" stroke="#4B4B7F" stroke-width="5.22436" points="3245,1497 3559,1497 4426,1497 4678,1497 4741,1497 4741,2008 4426,2008 4426,1642 3559,1642 3559,2008 3245,2008 3245,1642 3245,1642 3245,1497 "/>
   <rect fill="#59405A" stroke="#4B4B7F" stroke-width="5.22436" x="3559" y="1844" width="867" height="164"/>
   <rect fill="#9F86B6" stroke="#4B4B7F" stroke-width="5.22436" x="3662" y="1844" width="662" height="164"/>
   <rect fill="#D5C0DA" stroke="#4B4B7F" stroke-width="5.22436" x="3771" y="1844" width="444" height="164"/>
  </g>
  <path fill="#7F5F9D" d="M3461 6l0 1306 -92 0c-10,0 -16,-21 -16,-52l0 -1203c0,-31 6,-51 16,-51l92 0z"/>
  <path fill="#7F5F9D" d="M3694 6l0 1306 -93 0c-10,0 -16,-21 -16,-52l0 -1203c0,-31 6,-51 16,-51l93 0z"/>
  <path fill="#7F5F9D" d="M3926 6l0 1306 -93 0c-9,0 -16,-21 -16,-52l0 -1203c0,-31 7,-51 16,-51l93 0z"/>
 </g>
 <g id="Layer_x0020_1_0">
  <metadata id="CorelCorpID_1Corel-Layer"/>
  <g id="_647544602192">
   <path fill="#526A8F" d="M932 2220l0 -361c0,-36 12,-72 36,-72l48 0c24,0 36,36 36,72l0 36 24 0 0 -72c0,-24 0,-36 12,-36l24 0c0,0 12,12 12,36l0 445c0,12 -12,24 -12,24l-24 0c-12,0 -12,-12 -12,-24l0 -84 -24 0 0 36c0,48 -12,72 -36,72l-48 0c-24,0 -36,-24 -36,-72l0 0zm-445 -433l324 0c49,0 85,48 85,96l0 313c0,60 -36,96 -85,96l-324 0c-48,0 -84,-36 -84,-96l0 -313c0,-48 36,-96 84,-96zm-265 337l24 0 0 -157 -24 0 0 157zm24 60l-24 0 0 84c0,12 0,24 -12,24l-24 0c0,0 -12,-12 -12,-24l0 -445c0,-24 12,-36 12,-36l24 0c12,0 12,12 12,36l0 72 24 0 0 -36c0,-36 12,-72 36,-72l49 0c24,0 36,36 36,72l0 373c0,36 -12,60 -36,60l-49 0c-24,0 -36,-24 -36,-60l0 -48zm830 -60l0 -157 -24 0 0 157 24 0z"/>
   <path fill="#7D89B3" d="M427 1823l380 0c34,0 61,38 61,84l0 264c0,47 -27,84 -61,84l-380 0c-33,0 -60,-37 -60,-84l0 -264c0,-46 27,-84 60,-84z"/>
   <path fill="#B5C2D8" d="M451 1847l326 0c33,0 60,32 60,72l0 241c0,40 -27,73 -60,73l-326 0c-33,0 -60,-33 -60,-73l0 -241c0,-40 27,-72 60,-72z"/>
   <path fill="#2F3457" d="M331 2196l0 -313c0,-36 -12,-60 -37,-60l-48 0c-24,0 -36,24 -36,60l0 313c0,36 12,60 36,60l48 0c25,0 37,-24 37,-60zm-193 36l0 -385c0,-12 12,-24 12,-24l24 0c12,0 12,12 12,24l0 385c0,12 0,24 -12,24l-24 0c0,0 -12,-12 -12,-24z"/>
   <rect fill="#2F3457" x="174" y="1919" width="65.1639" height="56.4834"/>
   <rect fill="#2F3457" x="174" y="2112" width="65.1639" height="56.4834"/>
   <path fill="#2F3457" d="M896 2196l0 -313c0,-36 12,-60 36,-60l48 0c24,0 36,24 36,60l0 313c0,36 -12,60 -36,60l-48 0c-24,0 -36,-24 -36,-60zm192 36l0 -385c0,-12 -12,-24 -12,-24l-24 0c-12,0 -12,12 -12,24l0 385c0,12 0,24 12,24l24 0c0,0 12,-12 12,-24z"/>
   <rect fill="#2F3457" x="992" y="1919" width="65.1639" height="56.4834"/>
   <rect fill="#2F3457" x="992" y="2100" width="65.1639" height="56.4834"/>
  </g>
  <g id="_647544604496">
   <g>
    <path fill="#FAF8F9" d="M2124 13c0,47 -37,84 -83,84 -47,0 -84,-37 -84,-84l167 0z"/>
    <path fill="#FAF8F9" mask="url(#id8)" d="M2197 13c1,6 1,12 1,18 0,91 -70,166 -157,166 -88,0 -158,-75 -158,-166 0,-6 0,-12 1,-18l313 0z"/>
   </g>
   <g>
    <path fill="#FAF8F9" d="M476 13c0,47 -37,84 -84,84 -46,0 -84,-37 -84,-84l168 0z"/>
    <path fill="#FAF8F9" mask="url(#id10)" d="M549 13c0,6 1,12 1,18 0,91 -71,166 -158,166 -87,0 -157,-75 -157,-166 0,-6 0,-12 1,-18l313 0z"/>
   </g>
  </g>
 </g>
</svg>
