<?xml version="1.0" encoding="UTF-8"?>
<!DOCTYPE svg PUBLIC "-//W3C//DTD SVG 1.1//EN" "http://www.w3.org/Graphics/SVG/1.1/DTD/svg11.dtd">
<!-- Creator: CorelDRAW X8 -->
<svg xmlns="http://www.w3.org/2000/svg" xml:space="preserve" width="845px" height="432px" version="1.1" shape-rendering="geometricPrecision" text-rendering="geometricPrecision" image-rendering="optimizeQuality" fill-rule="evenodd" clip-rule="evenodd"
viewBox="0 0 407 208"
 xmlns:xlink="http://www.w3.org/1999/xlink">
 <g>
   <g id="_275378802912">
   <path fill="#2F3457" d="M28 44l9 0c1,0 1,1 1,2l0 2c0,1 0,2 -1,2l-9 0c-1,0 -2,-1 -2,-2l0 -2c0,-1 1,-2 2,-2zm-1 10l11 0c0,0 0,-1 0,-1l0 -1c0,-1 0,-1 0,-1l-11 0c-1,0 -1,0 -1,1l0 1c0,0 0,1 1,1z"/>
   <g>
    <rect fill="#7D89B3" x="19" y="20" width="26.1417" height="22.5658" rx="3" ry="4"/>
    <rect fill="#B5C2D8" x="20" y="21" width="23.3085" height="20.1201" rx="3" ry="4"/>
   </g>
   <path fill="#2F3457" d="M28 18l9 0c1,0 1,-1 1,-2l0 -2c0,-1 0,-2 -1,-2l-9 0c-1,0 -2,1 -2,2l0 2c0,1 1,2 2,2zm-1 -10l11 0c0,0 0,1 0,1l0 1c0,0 0,1 0,1l-11 0c-1,0 -1,-1 -1,-1l0 -1c0,0 0,-1 1,-1z"/>
   <path fill="#2F3457" d="M46 36l0 -9c0,-1 1,-2 2,-2l3 0c1,0 2,1 2,2l0 9c0,1 -1,1 -2,1l-3 0c-1,0 -2,0 -2,-1zm10 1l0 -11c0,-1 0,-1 -1,-1l0 0c-1,0 -1,0 -1,1l0 11c0,0 0,0 1,0l0 0c1,0 1,0 1,0z"/>
   <path fill="#2F3457" d="M17 36l0 -9c0,-1 -1,-2 -2,-2l-2 0c-1,0 -2,1 -2,2l0 9c0,1 1,1 2,1l2 0c1,0 2,0 2,-1zm-10 1l0 -11c0,-1 0,-1 1,-1l1 0c0,0 1,0 1,1l0 11c0,0 -1,0 -1,0l-1 0c-1,0 -1,0 -1,0z"/>
  </g>
 </g>
</svg>
