<?xml version="1.0" encoding="UTF-8"?>
<!DOCTYPE svg PUBLIC "-//W3C//DTD SVG 1.1//EN" "http://www.w3.org/Graphics/SVG/1.1/DTD/svg11.dtd">
<!-- Creator: CorelDRAW X8 -->
<svg xmlns="http://www.w3.org/2000/svg" xml:space="preserve" width="743px" height="379px" version="1.1" shape-rendering="geometricPrecision" text-rendering="geometricPrecision" image-rendering="optimizeQuality" fill-rule="evenodd" clip-rule="evenodd"
viewBox="0 0 1011 515"
 xmlns:xlink="http://www.w3.org/1999/xlink">
 <g id="Layer_x0020_1">
  <metadata id="CorelCorpID_0Corel-Layer"/>
  <path fill="#B5C2D8" d="M23 0l965 0c13,0 23,10 23,23l0 470c0,12 -10,22 -23,22l-965 0c-13,0 -23,-10 -23,-22l0 -470c0,-13 10,-23 23,-23z"/>
  <path fill="#E2E7F0" d="M28 8l952 0c12,0 21,10 21,22l0 455c0,13 -9,23 -21,23l-952 0c-11,0 -20,-10 -20,-23l0 -455c0,-12 9,-22 20,-22z"/>
  <path fill="#9F86B6" fill-rule="nonzero" d="M504 172c17,-34 34,-51 69,-51 37,0 68,30 68,68 0,69 -68,137 -137,206 -68,-69 -137,-137 -137,-206 0,-38 31,-68 69,-68 34,0 51,17 68,51z"/>
 </g>
</svg>
