<?xml version="1.0" encoding="UTF-8"?>
<!DOCTYPE svg PUBLIC "-//W3C//DTD SVG 1.1//EN" "http://www.w3.org/Graphics/SVG/1.1/DTD/svg11.dtd">
<!-- Creator: CorelDRAW X8 -->
<svg xmlns="http://www.w3.org/2000/svg" xml:space="preserve" width="844px" height="432px" version="1.1" shape-rendering="geometricPrecision" text-rendering="geometricPrecision" image-rendering="optimizeQuality" fill-rule="evenodd" clip-rule="evenodd"
viewBox="0 0 407 208"
 xmlns:xlink="http://www.w3.org/1999/xlink">
 <g id="Layer_x0020_1">
  <metadata id="CorelCorpID_0Corel-Layer"/>
  <rect fill="none" stroke="black" stroke-width="0.43389" width="406" height="208"/>
  <rect fill="#6582B0" width="406" height="208"/>
  <rect fill="#526A8F" width="9.03245" height="207.455"/>
  <rect fill="#526A8F" transform="matrix(1.52685E-16 -0.0100443 0.63653 2.93714E-14 0.217323 14.0131)" width="1374" height="638"/>
  <g id="_647543041088">
   <polygon fill="#526A8F" points="10,93 1,79 189,79 189,93 "/>
   <polygon fill="#2F3457" points="0,0 190,0 190,79 0,79 "/>
   <path fill="#2F3457" d="M2 0l0 0c1,0 1,1 1,1l0 75 186 0c1,0 1,0 1,1l0 0c0,1 0,2 -1,2l-187 0c-1,0 -2,-1 -2,-2l0 0c0,0 0,0 0,0 0,0 0,0 0,0l0 -76c0,0 1,-1 2,-1z"/>
  </g>
 </g>
</svg>
