<?xml version="1.0" encoding="UTF-8"?>
<!DOCTYPE svg PUBLIC "-//W3C//DTD SVG 1.1//EN" "http://www.w3.org/Graphics/SVG/1.1/DTD/svg11.dtd">
<!-- Creator: CorelDRAW X8 -->
<svg xmlns="http://www.w3.org/2000/svg" xml:space="preserve" width="843px" height="431px" version="1.1" shape-rendering="geometricPrecision" text-rendering="geometricPrecision" image-rendering="optimizeQuality" fill-rule="evenodd" clip-rule="evenodd"
viewBox="0 0 406 208"
 xmlns:xlink="http://www.w3.org/1999/xlink">
 <g id="Layer_x0020_1">
  <metadata id="CorelCorpID_0Corel-Layer"/>
  <g id="_647509131104">
   <rect fill="#6582B0" width="406" height="208"/>
   <rect fill="#526A8F" transform="matrix(8.42298E-17 -0.0100443 0.351146 2.93714E-14 0.000208614 13.7869)" width="1373" height="638"/>
   <polygon fill="#526A8F" points="227,93 218,79 405,79 405,93 "/>
   <polygon fill="#2F3457" points="217,0 406,0 406,79 217,79 "/>
   <path fill="#2F3457" d="M219 0l0 0c1,0 1,1 1,1l0 75 185 0c1,0 1,0 1,1l0 0c0,1 0,2 -1,2l-186 0c-1,0 -2,-1 -2,-2l0 0c0,0 0,0 0,0 0,0 0,0 0,0l0 -76c0,0 1,-1 2,-1z"/>
   <rect fill="#526A8F" width="9.02639" height="207.316"/>
  </g>
 </g>
</svg>
