<?xml version="1.0" encoding="UTF-8"?>
<!DOCTYPE svg PUBLIC "-//W3C//DTD SVG 1.1//EN" "http://www.w3.org/Graphics/SVG/1.1/DTD/svg11.dtd">
<!-- Creator: CorelDRAW X8 -->
<svg xmlns="http://www.w3.org/2000/svg" xml:space="preserve" width="743px" height="379px" version="1.1" shape-rendering="geometricPrecision" text-rendering="geometricPrecision" image-rendering="optimizeQuality" fill-rule="evenodd" clip-rule="evenodd"
viewBox="0 0 1011 515"
 xmlns:xlink="http://www.w3.org/1999/xlink">
 <defs>
    <mask id="id0">
      <linearGradient id="id1" gradientUnits="userSpaceOnUse" x1="448.839" y1="151.67" x2="701.519" y2="553.675">
       <stop offset="0" stop-opacity="1" stop-color="white"/>
       <stop offset="1" stop-opacity="0" stop-color="white"/>
      </linearGradient>
     <rect fill="url(#id1)" x="278" y="125" width="470" height="195"/>
    </mask>
 </defs>
 <g id="Layer_x0020_1">
  <metadata id="CorelCorpID_0Corel-Layer"/>
  <path fill="#B5C2D8" d="M23 0l965 0c13,0 23,10 23,23l0 470c0,12 -10,22 -23,22l-965 0c-13,0 -23,-10 -23,-22l0 -470c0,-13 10,-23 23,-23z"/>
  <path fill="#E2E7F0" d="M28 8l952 0c12,0 21,10 21,22l0 455c0,13 -9,23 -21,23l-952 0c-11,0 -20,-10 -20,-23l0 -455c0,-12 9,-22 20,-22z"/>
  <g id="_647543618320">
   <path fill="#526A8F" mask="url(#id0)" d="M279 126l469 0 0 137c0,30 -26,56 -56,56l-357 0c-30,0 -56,-26 -56,-56l0 -137 0 0z"/>
   <path fill="#59405A" d="M685 185c0,0 0,4 0,4l0 164c0,18 -8,37 -23,37l-335 0c-11,0 -22,-19 -22,-37l0 -164c0,0 0,-4 0,-4l22 0 0 119 335 0 0 -119 23 0z"/>
   <path fill="#745975" d="M677 185c0,0 0,4 0,4l0 152c0,19 -7,34 -22,34l-320 0c-15,0 -23,-15 -23,-34l0 -152c0,0 0,-4 0,-4l23 0 0 134 320 0 0 -134 22 0z"/>
   <path fill="#3EAA92" d="M260 126l469 0 0 111c0,11 -7,19 -18,19l-432 0c-11,0 -19,-8 -19,-19l0 -111z"/>
   <path fill="#92D8C8" d="M260 178l469 0 0 18c0,4 -3,8 -7,8l-454 0c-4,0 -8,-4 -8,-8l0 -18 0 0z"/>
   <path fill="#92D8C8" d="M260 126l469 0 0 18c0,4 -3,8 -7,8l-454 0c-4,0 -8,-4 -8,-8l0 -18 0 0z"/>
   <path fill="#92D8C8" d="M260 230l469 0 0 18c0,4 -3,8 -7,8l-454 0c-4,0 -8,-4 -8,-8l0 -18 0 0z"/>
  </g>
 </g>
</svg>
