<?xml version="1.0" encoding="UTF-8"?>
<!DOCTYPE svg PUBLIC "-//W3C//DTD SVG 1.1//EN" "http://www.w3.org/Graphics/SVG/1.1/DTD/svg11.dtd">
<!-- Creator: CorelDRAW X8 -->
<svg xmlns="http://www.w3.org/2000/svg" xml:space="preserve" width="743px" height="379px" version="1.1" shape-rendering="geometricPrecision" text-rendering="geometricPrecision" image-rendering="optimizeQuality" fill-rule="evenodd" clip-rule="evenodd"
viewBox="0 0 1011 515"
 xmlns:xlink="http://www.w3.org/1999/xlink">
 <g id="Layer_x0020_1">
  <metadata id="CorelCorpID_0Corel-Layer"/>
  <path fill="#B5C2D8" d="M23 0l965 0c13,0 23,10 23,23l0 470c0,12 -10,22 -23,22l-965 0c-13,0 -23,-10 -23,-22l0 -470c0,-13 10,-23 23,-23z"/>
  <path fill="#E2E7F0" d="M28 8l952 0c12,0 21,10 21,22l0 455c0,13 -9,23 -21,23l-952 0c-11,0 -20,-10 -20,-23l0 -455c0,-12 9,-22 20,-22z"/>
  <g id="_647370415728">
   <polygon fill="#2F3457" points="361,99 429,99 429,333 647,333 647,403 427,403 427,416 361,416 361,403 361,349 "/>
   <polygon fill="#454E82" points="369,99 418,99 418,349 647,349 647,394 418,394 418,408 369,408 369,394 369,349 "/>
   <path fill="#59405A" d="M647 99l0 306 -105 0c-10,0 -17,-5 -17,-12l0 -282c0,-7 7,-12 17,-12l105 0z"/>
   <path fill="#745975" d="M647 113l0 57 -87 0c-18,0 -35,-1 -35,-1l0 -55c0,-1 17,-1 35,-1l87 0 0 0z"/>
   <path fill="#745975" d="M647 219l0 57 -87 0c-18,0 -35,-1 -35,-1l0 -55c0,-1 17,-1 35,-1l87 0 0 0z"/>
   <path fill="#745975" d="M647 330l0 57 -87 0c-18,0 -35,0 -35,0l0 -56c0,0 17,-1 35,-1l87 0 0 0z"/>
  </g>
 </g>
</svg>
