<?xml version="1.0" encoding="UTF-8"?>
<!DOCTYPE svg PUBLIC "-//W3C//DTD SVG 1.1//EN" "http://www.w3.org/Graphics/SVG/1.1/DTD/svg11.dtd">
<!-- Creator: CorelDRAW X8 -->
<svg xmlns="http://www.w3.org/2000/svg" xml:space="preserve" width="843px" height="430px" version="1.1" shape-rendering="geometricPrecision" text-rendering="geometricPrecision" image-rendering="optimizeQuality" fill-rule="evenodd" clip-rule="evenodd"
viewBox="0 0 400 204"
 xmlns:xlink="http://www.w3.org/1999/xlink">
 <g id="Layer_x0020_1">
  <metadata id="CorelCorpID_0Corel-Layer"/>
  <rect fill="#B5C2D8" width="400" height="204" rx="9" ry="9"/>
  <rect fill="#E2E7F0" x="3" y="3" width="393" height="198" rx="8" ry="9"/>
  <g id="_276870559920">
   <path fill="#1A1A1A" d="M304 49c1,1 1,1 1,2l0 68c0,8 -6,14 -13,14l-184 0c-7,0 -12,-6 -12,-14l0 -68c0,-1 0,-1 0,-2l12 0 0 50 184 0 0 -50 12 0z"/>
   <path fill="#2F3457" d="M118 136l22 0c2,0 4,2 4,5l0 4c0,2 -2,4 -4,4l-22 0c-2,0 -4,-2 -4,-4l0 -4c0,-3 2,-5 4,-5zm-2 19l26 0c1,0 2,0 2,-1l0 -2c0,-1 -1,-2 -2,-2l-26 0c-1,0 -2,1 -2,2l0 2c0,1 1,1 2,1z"/>
   <path fill="#2F3457" d="M165 136l21 0c3,0 4,2 4,5l0 4c0,2 -1,4 -4,4l-21 0c-2,0 -4,-2 -4,-4l0 -4c0,-3 2,-5 4,-5zm-3 19l27 0c1,0 1,0 1,-1l0 -2c0,-1 0,-2 -1,-2l-27 0c0,0 -1,1 -1,2l0 2c0,1 1,1 1,1z"/>
   <path fill="#2F3457" d="M217 136l21 0c3,0 4,2 4,5l0 4c0,2 -1,4 -4,4l-21 0c-2,0 -4,-2 -4,-4l0 -4c0,-3 2,-5 4,-5zm-3 19l27 0c1,0 1,0 1,-1l0 -2c0,-1 0,-2 -1,-2l-27 0c-1,0 -1,1 -1,2l0 2c0,1 0,1 1,1z"/>
   <path fill="#2F3457" d="M262 136l21 0c2,0 4,2 4,5l0 4c0,2 -2,4 -4,4l-21 0c-3,0 -4,-2 -4,-4l0 -4c0,-3 1,-5 4,-5zm-3 19l27 0c0,0 1,0 1,-1l0 -2c0,-1 -1,-2 -1,-2l-27 0c-1,0 -1,1 -1,2l0 2c0,1 0,1 1,1z"/>
   <path fill="#454E82" d="M300 49c1,1 1,1 1,2l0 64c0,7 -6,13 -12,13l-177 0c-7,0 -12,-6 -12,-13l0 -64c0,-1 0,-1 0,-2l12 0 0 47 177 0 0 -47 11 0z"/>
   <path fill="#282F58" d="M72 49l257 0 0 22c0,5 -4,9 -9,9l-239 0c-5,0 -9,-4 -9,-9l0 -22z"/>
   <path fill="#1D203D" d="M72 49l257 0 0 9c0,2 -2,4 -4,4l-250 0c-2,0 -3,-2 -3,-4l0 -9z"/>
  </g>
 </g>
</svg>
