<?xml version="1.0" encoding="UTF-8"?>
<!DOCTYPE svg PUBLIC "-//W3C//DTD SVG 1.1//EN" "http://www.w3.org/Graphics/SVG/1.1/DTD/svg11.dtd">
<!-- Creator: CorelDRAW X8 -->
<svg xmlns="http://www.w3.org/2000/svg" xml:space="preserve" width="743px" height="379px" version="1.1" shape-rendering="geometricPrecision" text-rendering="geometricPrecision" image-rendering="optimizeQuality" fill-rule="evenodd" clip-rule="evenodd"
viewBox="0 0 1011 515"
 xmlns:xlink="http://www.w3.org/1999/xlink">
 <g id="Layer_x0020_1">
  <metadata id="CorelCorpID_0Corel-Layer"/>
  <path fill="#B5C2D8" d="M23 0l965 0c13,0 23,10 23,23l0 470c0,12 -10,22 -23,22l-965 0c-13,0 -23,-10 -23,-22l0 -470c0,-13 10,-23 23,-23z"/>
  <path fill="#E2E7F0" d="M28 8l952 0c12,0 21,10 21,22l0 455c0,13 -9,23 -21,23l-952 0c-11,0 -20,-10 -20,-23l0 -455c0,-12 9,-22 20,-22z"/>
  <g id="_647370419120">
   <polygon fill="#A3ACC9" stroke="#4B4B7F" stroke-width="1.22432" points="231,164 778,164 778,351 231,351 "/>
   <polygon fill="#7D89B3" stroke="#4B4B7F" stroke-width="1.22432" points="231,164 346,164 663,164 754,164 778,164 778,351 663,351 663,217 346,217 346,351 231,351 231,217 231,217 231,164 "/>
   <rect fill="#59405A" stroke="#4B4B7F" stroke-width="1.22432" x="346" y="291" width="317.069" height="60.0624"/>
   <rect fill="#9F86B6" stroke="#4B4B7F" stroke-width="1.22432" x="383" y="291" width="242.065" height="60.0624"/>
   <rect fill="#D5C0DA" stroke="#4B4B7F" stroke-width="1.22432" x="423" y="291" width="162.468" height="60.0624"/>
  </g>
 </g>
</svg>
