<?xml version="1.0" encoding="UTF-8"?>
<!DOCTYPE svg PUBLIC "-//W3C//DTD SVG 1.1//EN" "http://www.w3.org/Graphics/SVG/1.1/DTD/svg11.dtd">
<!-- Creator: CorelDRAW X8 -->
<svg xmlns="http://www.w3.org/2000/svg" xml:space="preserve" width="743px" height="379px" version="1.1" shape-rendering="geometricPrecision" text-rendering="geometricPrecision" image-rendering="optimizeQuality" fill-rule="evenodd" clip-rule="evenodd"
viewBox="0 0 1011 515"
 xmlns:xlink="http://www.w3.org/1999/xlink">
 <defs>
    <mask id="id0">
      <linearGradient id="id1" gradientUnits="userSpaceOnUse" x1="334.351" y1="455.895" x2="666.203" y2="112.906">
       <stop offset="0" stop-opacity="1" stop-color="white"/>
       <stop offset="1" stop-opacity="0" stop-color="white"/>
      </linearGradient>
     <rect fill="url(#id1)" x="406" y="163" width="225" height="167"/>
    </mask>
 </defs>
 <g id="Layer_x0020_1">
  <metadata id="CorelCorpID_0Corel-Layer"/>
  <path fill="#B5C2D8" d="M23 0l965 0c13,0 23,10 23,23l0 470c0,12 -10,22 -23,22l-965 0c-13,0 -23,-10 -23,-22l0 -470c0,-13 10,-23 23,-23z"/>
  <path fill="#E2E7F0" d="M28 8l952 0c12,0 21,10 21,22l0 455c0,13 -9,23 -21,23l-952 0c-11,0 -20,-10 -20,-23l0 -455c0,-12 9,-22 20,-22z"/>
  <g id="_647578984272">
   <path fill="#2F3457" mask="url(#id0)" d="M436 185l2 0c7,-18 33,-28 66,-16 7,-3 15,-1 21,4 34,-18 63,-8 72,12l4 0c16,0 29,8 29,17l0 89c0,9 -13,17 -29,17l-3 0c-7,25 -37,31 -71,0l-17 0c-36,31 -67,25 -73,0l-1 0c-16,0 -29,-8 -29,-17l0 -89c0,-9 13,-17 29,-17z"/>
   <g>
    <path fill="#745975" d="M408 208l164 0c16,0 30,8 30,17l0 88c0,10 -14,17 -30,17l-164 0c-17,0 -30,-7 -30,-17l0 -88c0,-9 13,-17 30,-17z"/>
    <path fill="#3EAA92" d="M490 199c60,-37 111,14 62,61 49,77 -2,127 -62,62 -64,65 -114,15 -61,-62 -53,-47 -3,-98 61,-61z"/>
    <path fill="#79CFBA" d="M450 222c13,-44 59,-41 56,2 56,15 54,61 -2,56 -3,59 -48,57 -56,-2 -46,0 -44,-46 2,-56z"/>
    <path fill="#B9E7D5" d="M462 276c-17,-26 4,-49 26,-28 32,-23 55,-2 27,26 30,26 9,49 -25,27 -20,24 -43,3 -28,-25z"/>
   </g>
  </g>
 </g>
</svg>
