<?xml version="1.0" encoding="UTF-8"?>
<!DOCTYPE svg PUBLIC "-//W3C//DTD SVG 1.1//EN" "http://www.w3.org/Graphics/SVG/1.1/DTD/svg11.dtd">
<!-- Creator: CorelDRAW X8 -->
<svg xmlns="http://www.w3.org/2000/svg" xml:space="preserve" width="843px" height="430px" version="1.1" shape-rendering="geometricPrecision" text-rendering="geometricPrecision" image-rendering="optimizeQuality" fill-rule="evenodd" clip-rule="evenodd"
viewBox="0 0 400 204"
 xmlns:xlink="http://www.w3.org/1999/xlink">
 <defs>
    <mask id="id0">
      <linearGradient id="id1" gradientUnits="userSpaceOnUse" x1="409.699" y1="79.2476" x2="105.521" y2="79.2476">
       <stop offset="0" stop-opacity="1" stop-color="white"/>
       <stop offset="0.521569" stop-opacity="-95.8784" stop-color="white"/>
       <stop offset="1" stop-opacity="0" stop-color="white"/>
      </linearGradient>
     <rect fill="url(#id1)" x="182" y="18" width="43.0447" height="168.744"/>
    </mask>
 </defs>
 <g id="Layer_x0020_1">
  <metadata id="CorelCorpID_0Corel-Layer"/>
  <rect fill="#B5C2D8" width="400" height="204" rx="9" ry="9"/>
  <rect fill="#E2E7F0" x="3" y="3" width="393" height="198" rx="8" ry="9"/>
  <g id="_275378771072">
   <path fill="#262E57" mask="url(#id0)" d="M203 18l0 0c6,0 11,5 11,11l0 4c3,1 6,4 6,6 6,4 6,10 -1,12 3,10 0,16 -5,15l0 16c3,1 4,4 2,8 9,6 11,13 5,15 3,5 0,9 -7,9l0 21c3,1 4,4 2,9 9,6 11,13 5,15 3,5 0,8 -7,8l0 8c0,6 -5,11 -11,11l0 0c0,0 0,0 -1,0 -1,0 -2,0 -3,0l0 0c-6,0 -11,-5 -11,-11l0 -11c-1,-2 -1,-4 -1,-6 -5,0 -6,-5 -2,-11 0,-3 1,-5 3,-7l0 -29c-1,-2 -1,-4 -1,-6 -5,-1 -6,-6 -2,-11 0,-3 1,-6 3,-7l0 -22c-1,-1 -2,-3 -2,-6 -4,-2 -4,-10 2,-17 -2,-3 -2,-5 0,-7l0 -5c0,-6 5,-11 11,-11l0 0c0,0 0,0 1,0 1,0 2,-1 3,-1z"/>
   <rect fill="#53709F" x="185" y="18" width="21.8039" height="167.217" rx="11" ry="18"/>
   <rect fill="#745975" x="181" y="19" width="21.8039" height="167.217" rx="11" ry="18"/>
   <path fill="#3EAA92" d="M198 32c10,-3 20,7 13,13 7,19 -3,29 -13,12 -15,17 -25,7 -13,-12 -12,-6 -2,-16 13,-13z"/>
   <path fill="#64C7B2" d="M183 39c2,-11 16,-14 17,-5 21,4 25,18 5,18 7,21 -7,25 -18,4 -11,8 -15,-6 -4,-17z"/>
   <path fill="#92D8C8" d="M189 43c1,-6 9,-8 10,-3 13,2 15,11 3,11 4,13 -4,15 -11,2 -7,5 -9,-3 -2,-10z"/>
   <path fill="#3EAA92" d="M186 86c5,-9 19,-8 18,1 18,9 18,23 -1,18 1,22 -14,22 -18,-1 -13,5 -12,-10 1,-18z"/>
   <path fill="#64C7B2" d="M180 102c-6,-9 2,-22 9,-15 17,-12 30,-4 15,9 20,11 12,23 -9,15 -3,14 -15,6 -15,-9z"/>
   <path fill="#92D8C8" d="M187 101c-4,-6 1,-13 5,-9 11,-7 18,-3 9,5 12,7 8,14 -5,9 -2,9 -9,4 -9,-5z"/>
   <path fill="#3EAA92" d="M186 140c5,-10 19,-9 18,0 18,9 18,24 -1,18 1,23 -14,22 -18,-1 -13,5 -12,-10 1,-17z"/>
   <path fill="#64C7B2" d="M180 155c-6,-9 2,-21 9,-15 17,-12 30,-4 15,9 20,11 12,23 -9,15 -3,14 -15,6 -15,-9z"/>
   <path fill="#92D8C8" d="M187 154c-4,-5 1,-13 5,-9 11,-7 18,-2 9,6 12,6 8,14 -5,9 -2,8 -9,3 -9,-6z"/>
  </g>
 </g>
</svg>
