<?xml version="1.0" encoding="UTF-8"?>
<!DOCTYPE svg PUBLIC "-//W3C//DTD SVG 1.1//EN" "http://www.w3.org/Graphics/SVG/1.1/DTD/svg11.dtd">
<!-- Creator: CorelDRAW X8 -->
<svg xmlns="http://www.w3.org/2000/svg" xml:space="preserve" width="743px" height="379px" version="1.1" shape-rendering="geometricPrecision" text-rendering="geometricPrecision" image-rendering="optimizeQuality" fill-rule="evenodd" clip-rule="evenodd"
viewBox="0 0 1011 515"
 xmlns:xlink="http://www.w3.org/1999/xlink">
 <defs>
    <mask id="id0">
      <linearGradient id="id1" gradientUnits="userSpaceOnUse" x1="339.871" y1="114.404" x2="877.806" y2="601.906">
       <stop offset="0" stop-opacity="1" stop-color="white"/>
       <stop offset="1" stop-opacity="0" stop-color="white"/>
      </linearGradient>
     <rect fill="url(#id1)" x="369" y="127" width="270" height="270"/>
    </mask>
 </defs>
 <g id="Layer_x0020_1">
  <metadata id="CorelCorpID_0Corel-Layer"/>
  <path fill="#B5C2D8" d="M23 0l965 0c13,0 23,10 23,23l0 470c0,12 -10,22 -23,22l-965 0c-13,0 -23,-10 -23,-22l0 -470c0,-13 10,-23 23,-23z"/>
  <path fill="#E2E7F0" d="M28 8l952 0c12,0 21,10 21,22l0 455c0,13 -9,23 -21,23l-952 0c-11,0 -20,-10 -20,-23l0 -455c0,-12 9,-22 20,-22z"/>
  <g id="_646799776768">
   <path fill="#526A8F" mask="url(#id0)" d="M401 127l206 0c17,0 32,14 32,32l0 205c0,18 -15,32 -32,32l-206 0c-17,0 -31,-14 -31,-32l0 -205c0,-18 14,-32 31,-32z"/>
   <path fill="#745975" d="M401 119l177 0c18,0 32,14 32,32l0 167c0,18 -14,32 -32,32l-177 0c-17,0 -31,-14 -31,-32l0 -167c0,-18 14,-32 31,-32z"/>
   <path fill="#9F86B6" d="M409 167l63 0c5,0 8,7 8,16l0 102c0,8 -3,15 -8,15l-63 0c-4,0 -8,-7 -8,-15l0 -102c0,-9 4,-16 8,-16z"/>
   <path fill="#9F86B6" d="M513 167l63 0c4,0 8,4 8,8l0 20c0,5 -4,8 -8,8l-63 0c-5,0 -8,-3 -8,-8l0 -20c0,-4 3,-8 8,-8z"/>
   <path fill="#9F86B6" d="M513 223l63 0c4,0 8,3 8,8l0 55c0,4 -4,8 -8,8l-63 0c-5,0 -8,-4 -8,-8l0 -55c0,-5 3,-8 8,-8z"/>
   <rect fill="#EDD2CE" x="409" y="183" width="52.2667" height="37.2481"/>
  </g>
 </g>
</svg>
