<?xml version="1.0" encoding="UTF-8"?>
<!DOCTYPE svg PUBLIC "-//W3C//DTD SVG 1.1//EN" "http://www.w3.org/Graphics/SVG/1.1/DTD/svg11.dtd">
<!-- Creator: CorelDRAW X8 -->
<svg xmlns="http://www.w3.org/2000/svg" xml:space="preserve" width="843px" height="430px" version="1.1" shape-rendering="geometricPrecision" text-rendering="geometricPrecision" image-rendering="optimizeQuality" fill-rule="evenodd" clip-rule="evenodd"
viewBox="0 0 400 204"
 xmlns:xlink="http://www.w3.org/1999/xlink">
 <g id="Layer_x0020_1">
  <metadata id="CorelCorpID_0Corel-Layer"/>
  <rect fill="#B5C2D8" width="400" height="204" rx="9" ry="9"/>
  <rect fill="#E2E7F0" x="3" y="3" width="393" height="198" rx="8" ry="9"/>
  <g id="_276875591216">
   <path fill="#2F3457" d="M186 147l32 0c3,0 6,3 6,8l0 7c0,5 -3,8 -6,8l-32 0c-3,0 -6,-3 -6,-8l0 -7c0,-5 3,-8 6,-8zm-4 36l40 0c1,0 2,-1 2,-3l0 -3c0,-2 -1,-3 -2,-3l-40 0c-1,0 -2,1 -2,3l0 3c0,2 1,3 2,3z"/>
   <g>
    <rect fill="#7D89B3" x="154" y="62" width="93.1896" height="80.4421" rx="12" ry="16"/>
    <rect fill="#B5C2D8" x="159" y="67" width="83.0898" height="71.7238" rx="10" ry="14"/>
   </g>
   <path fill="#2F3457" d="M186 57l32 0c3,0 6,-3 6,-7l0 -8c0,-5 -3,-8 -6,-8l-32 0c-3,0 -6,3 -6,8l0 8c0,4 3,7 6,7zm-3 -36l38 0c2,0 3,2 3,3l0 3c0,2 -1,4 -3,4l-38 0c-2,0 -3,-2 -3,-4l0 -3c0,-1 1,-3 3,-3z"/>
  </g>
 </g>
</svg>
