<?xml version="1.0" encoding="UTF-8"?>
<!DOCTYPE svg PUBLIC "-//W3C//DTD SVG 1.1//EN" "http://www.w3.org/Graphics/SVG/1.1/DTD/svg11.dtd">
<!-- Creator: CorelDRAW X8 -->
<svg xmlns="http://www.w3.org/2000/svg" xml:space="preserve" width="743px" height="379px" version="1.1" shape-rendering="geometricPrecision" text-rendering="geometricPrecision" image-rendering="optimizeQuality" fill-rule="evenodd" clip-rule="evenodd"
viewBox="0 0 1011 515"
 xmlns:xlink="http://www.w3.org/1999/xlink">
 <g id="Layer_x0020_1">
  <metadata id="CorelCorpID_0Corel-Layer"/>
  <path fill="#B5C2D8" d="M23 0l965 0c13,0 23,10 23,23l0 470c0,12 -10,22 -23,22l-965 0c-13,0 -23,-10 -23,-22l0 -470c0,-13 10,-23 23,-23z"/>
  <path fill="#E2E7F0" d="M28 8l952 0c12,0 21,10 21,22l0 455c0,13 -9,23 -21,23l-952 0c-11,0 -20,-10 -20,-23l0 -455c0,-12 9,-22 20,-22z"/>
  <g id="_647550195984">
   <path fill="#526A8F" d="M435 182l147 0c13,0 24,14 24,32l0 102c0,18 -11,33 -24,33l-147 0c-13,0 -23,-15 -23,-33l0 -102c0,-18 10,-32 23,-32l0 0zm102 -10l-58 0c-7,0 -11,-6 -11,-16l0 -21c0,-2 0,-4 0,-5l-13 0 0 -29 13 0 0 -8c0,0 2,-5 4,-5l71 0c3,0 5,5 5,5l0 8 11 0 0 29 -12 0c1,1 1,3 1,5l0 21c0,10 -5,16 -11,16zm-3 -63l-54 0 0 10 54 0 0 -10zm3 249l-58 0c-7,0 -11,5 -11,15l0 21c0,4 0,6 1,9l-14 0 0 28 13 0 0 6c0,0 2,5 4,5l71 0c3,0 5,-5 5,-5l0 -6 16 0 0 -28 -17 0c1,-3 1,-5 1,-9l0 -21c0,-10 -5,-15 -11,-15zm2 63l-59 0 0 -11 57 0c1,0 1,0 2,0l0 11zm81 -127l0 -58c0,-6 6,-11 16,-11l21 0c2,0 4,0 5,1l0 -13 29 0 0 12 8 0c0,0 5,2 5,5l0 71c0,2 -5,5 -5,5l-8 0 0 10 -29 0 0 -11c-1,0 -3,1 -5,1l-21 0c-10,0 -16,-5 -16,-12zm63 -2l0 -54 -10 0 0 54 10 0zm-284 2l0 -58c0,-6 -5,-11 -16,-11l-21 0c-3,0 -6,1 -8,1l0 -13 -29 0 0 12 -5 0c0,0 -5,2 -5,5l0 71c0,2 5,5 5,5l5 0 0 16 29 0 0 -18c2,1 5,2 8,2l21 0c11,0 16,-5 16,-12zm-63 3l0 -59 10 0 0 56c0,1 0,2 1,3l-11 0z"/>
   <g>
    <g>
     <path fill="#7D89B3" d="M424 168l148 0c12,0 23,14 23,32l0 103c0,18 -11,32 -23,32l-148 0c-13,0 -23,-14 -23,-32l0 -103c0,-18 10,-32 23,-32z"/>
     <path fill="#B5C2D8" d="M433 177l127 0c13,0 23,13 23,28l0 93c0,16 -10,28 -23,28l-127 0c-12,0 -23,-12 -23,-28l0 -93c0,-15 11,-28 23,-28z"/>
    </g>
    <path fill="#2F3457" d="M388 281l0 -59c0,-6 -5,-11 -16,-11l-21 0c-3,0 -6,1 -8,1l0 -13 -28 0 0 12 -6 0c0,0 -5,3 -5,5l0 71c0,2 5,5 5,5l6 0 0 16 28 0 0 -17c2,0 5,1 8,1l21 0c11,0 16,-5 16,-11zm-63 2l0 -59 10 0 0 57c0,0 0,1 1,2l-11 0z"/>
    <path fill="#2F3457" d="M609 281l0 -59c0,-6 6,-11 16,-11l21 0c2,0 4,0 5,1l0 -13 29 0 0 12 8 0c0,0 6,3 6,5l0 71c0,2 -6,5 -6,5l-8 0 0 10 -29 0 0 -11c-1,1 -3,1 -5,1l-21 0c-10,0 -16,-5 -16,-11zm63 -3l0 -54 -10 0 0 54 10 0z"/>
    <path fill="#2F3457" d="M526 344l-58 0c-7,0 -11,5 -11,16l0 21c0,3 0,6 1,8l-14 0 0 28 13 0 0 6c0,0 2,5 4,5l72 0c2,0 4,-5 4,-5l0 -6 16 0 0 -28 -17 0c1,-2 1,-5 1,-8l0 -21c0,-11 -4,-16 -11,-16zm2 63l-59 0 0 -11 57 0c1,0 2,0 2,0l0 11z"/>
    <path fill="#2F3457" d="M526 158l-58 0c-7,0 -11,-5 -11,-16l0 -21c0,-2 0,-4 0,-5l-13 0 0 -29 13 0 0 -8c0,0 2,-5 4,-5l72 0c2,0 4,5 4,5l0 8 11 0 0 29 -11 0c0,1 0,3 0,5l0 21c0,11 -4,16 -11,16zm-3 -63l-54 0 0 10 54 0 0 -10z"/>
   </g>
  </g>
 </g>
</svg>
