<?xml version="1.0" encoding="UTF-8"?>
<!DOCTYPE svg PUBLIC "-//W3C//DTD SVG 1.1//EN" "http://www.w3.org/Graphics/SVG/1.1/DTD/svg11.dtd">
<!-- Creator: CorelDRAW X8 -->
<svg xmlns="http://www.w3.org/2000/svg" xml:space="preserve" width="843px" height="430px" version="1.1" shape-rendering="geometricPrecision" text-rendering="geometricPrecision" image-rendering="optimizeQuality" fill-rule="evenodd" clip-rule="evenodd"
viewBox="0 0 400 204"
 xmlns:xlink="http://www.w3.org/1999/xlink">
 <g id="Layer_x0020_1">
  <metadata id="CorelCorpID_0Corel-Layer"/>
  <rect fill="#B5C2D8" width="400" height="204" rx="9" ry="9"/>
  <rect fill="#E2E7F0" x="3" y="3" width="393" height="198" rx="8" ry="9"/>
  <g id="_275513313072">
   <path fill="#526A8F" d="M253 135l0 -66c0,-6 4,-12 8,-12l7 0c4,0 8,6 8,12l0 7 3 0 0 -14c0,-3 1,-5 3,-5l3 0c2,0 3,2 3,5l0 80c0,3 -1,5 -3,5l-3 0c-2,0 -3,-2 -3,-5l0 -14 -3 0 0 7c0,7 -4,12 -8,12l-7 0c-4,0 -8,-5 -8,-12zm-79 -78l59 0c9,0 15,8 15,18l0 55c0,9 -6,17 -15,17l-59 0c-8,0 -15,-8 -15,-17l0 -55c0,-10 7,-18 15,-18zm-46 59l3 0 0 -28 -3 0 0 28zm3 12l-3 0 0 14c0,3 -2,5 -3,5l-3 0c-2,0 -3,-2 -3,-5l0 -80c0,-3 1,-5 3,-5l3 0c1,0 3,2 3,5l0 14 3 0 0 -7c0,-6 3,-12 7,-12l8 0c4,0 7,6 7,12l0 66c0,7 -3,12 -7,12l-8 0c-4,0 -7,-5 -7,-12l0 -7zm148 -12l0 -28 -3 0 0 28 3 0z"/>
   <rect fill="#59405A" x="152" y="63" width="89.5715" height="77.319" rx="11" ry="15"/>
   <rect fill="#745975" x="157" y="67" width="79.8638" height="68.9392" rx="10" ry="13"/>
   <path fill="#2F3457" d="M147 130l0 -57c0,-5 -3,-10 -8,-10l-7 0c-4,0 -7,5 -7,10l0 57c0,5 3,10 7,10l7 0c5,0 8,-5 8,-10zm-35 6l0 -69c0,-2 2,-4 3,-4l3 0c2,0 3,2 3,4l0 69c0,2 -1,4 -3,4l-3 0c-1,0 -3,-2 -3,-4z"/>
   <rect fill="#2F3457" x="118" y="79" width="11.6529" height="10.1006"/>
   <rect fill="#2F3457" x="118" y="113" width="11.6529" height="10.1006"/>
   <path fill="#2F3457" d="M247 129l0 -56c0,-5 3,-10 7,-10l8 0c4,0 7,5 7,10l0 56c0,6 -3,11 -7,11l-8 0c-4,0 -7,-5 -7,-11zm35 7l0 -69c0,-2 -2,-4 -3,-4l-3 0c-2,0 -3,2 -3,4l0 69c0,2 1,4 3,4l3 0c1,0 3,-2 3,-4z"/>
   <rect fill="#2F3457" x="264" y="79" width="11.6529" height="10.1006"/>
   <rect fill="#2F3457" x="264" y="113" width="11.6529" height="10.1006"/>
  </g>
 </g>
</svg>
