<?xml version="1.0" encoding="UTF-8"?>
<!DOCTYPE svg PUBLIC "-//W3C//DTD SVG 1.1//EN" "http://www.w3.org/Graphics/SVG/1.1/DTD/svg11.dtd">
<!-- Creator: CorelDRAW X8 -->
<svg xmlns="http://www.w3.org/2000/svg" xml:space="preserve" width="743px" height="379px" version="1.1" shape-rendering="geometricPrecision" text-rendering="geometricPrecision" image-rendering="optimizeQuality" fill-rule="evenodd" clip-rule="evenodd"
viewBox="0 0 1011 515"
 xmlns:xlink="http://www.w3.org/1999/xlink">
 <g id="Layer_x0020_1">
  <metadata id="CorelCorpID_0Corel-Layer"/>
  <path fill="#B5C2D8" d="M23 0l965 0c13,0 23,10 23,23l0 470c0,12 -10,22 -23,22l-965 0c-13,0 -23,-10 -23,-22l0 -470c0,-13 10,-23 23,-23z"/>
  <path fill="#E2E7F0" d="M28 8l952 0c12,0 21,10 21,22l0 455c0,13 -9,23 -21,23l-952 0c-11,0 -20,-10 -20,-23l0 -455c0,-12 9,-22 20,-22z"/>
  <g id="_647547567360">
   <path fill="#526A8F" d="M640 339l0 -163c0,-16 6,-33 17,-33l21 0c11,0 17,17 17,33l0 16 11 0 0 -32c0,-11 0,-17 5,-17l11 0c0,0 6,6 6,17l0 201c0,6 -6,11 -6,11l-11 0c-5,0 -5,-5 -5,-11l0 -38 -11 0 0 16c0,22 -6,33 -17,33l-21 0c-11,0 -17,-11 -17,-33l0 0zm-201 -196l147 0c22,0 38,22 38,44l0 142c0,27 -16,43 -38,43l-147 0c-22,0 -38,-16 -38,-43l0 -142c0,-22 16,-44 38,-44zm-120 153l11 0 0 -71 -11 0 0 71zm11 27l-11 0 0 38c0,6 0,11 -6,11l-11 0c0,0 -5,-5 -5,-11l0 -201c0,-11 5,-17 5,-17l11 0c6,0 6,6 6,17l0 32 11 0 0 -16c0,-16 5,-33 16,-33l22 0c11,0 16,17 16,33l0 169c0,16 -5,27 -16,27l-22 0c-11,0 -16,-11 -16,-27l0 -22zm376 -27l0 -71 -11 0 0 71 11 0z"/>
   <path fill="#7D89B3" d="M411 160l173 0c15,0 27,17 27,38l0 119c0,22 -12,39 -27,39l-173 0c-15,0 -27,-17 -27,-39l0 -119c0,-21 12,-38 27,-38z"/>
   <path fill="#B5C2D8" d="M422 171l148 0c15,0 28,14 28,32l0 110c0,18 -13,32 -28,32l-148 0c-15,0 -27,-14 -27,-32l0 -110c0,-18 12,-32 27,-32z"/>
   <path fill="#2F3457" d="M368 329l0 -142c0,-16 -6,-27 -16,-27l-22 0c-11,0 -17,11 -17,27l0 142c0,16 6,27 17,27l22 0c10,0 16,-11 16,-27zm-87 16l0 -174c0,-6 5,-11 5,-11l11 0c5,0 5,5 5,11l0 174c0,5 0,11 -5,11l-11 0c0,0 -5,-6 -5,-11z"/>
   <rect fill="#2F3457" x="297" y="203" width="29.5334" height="25.5993"/>
   <rect fill="#2F3457" x="297" y="290" width="29.5334" height="25.5993"/>
   <path fill="#2F3457" d="M624 329l0 -142c0,-16 5,-27 16,-27l22 0c11,0 16,11 16,27l0 142c0,16 -5,27 -16,27l-22 0c-11,0 -16,-11 -16,-27zm87 16l0 -174c0,-6 -5,-11 -5,-11l-11 0c-6,0 -6,5 -6,11l0 174c0,5 0,11 6,11l11 0c0,0 5,-6 5,-11z"/>
   <rect fill="#2F3457" x="668" y="203" width="29.5334" height="25.5993"/>
   <rect fill="#2F3457" x="668" y="285" width="29.5334" height="25.5993"/>
  </g>
 </g>
</svg>
